# Blender v3.1.2 OBJ File: 'farm.blend'
# www.blender.org
mtllib shared.mtl
o {mesh}Elevator_Sphere.016
v -30.521070 281.529724 -73.684372
v 30.521065 281.529724 -73.684380
v 73.684387 281.529724 -30.521074
v 73.684380 281.529724 30.521074
v 30.521069 281.529724 73.684380
v -30.521063 281.529724 73.684380
v -73.684357 281.529724 30.521069
v -73.684357 281.529724 -30.521053
v -30.521070 0.582862 -73.684372
v 30.521065 0.582862 -73.684380
v 73.684387 0.582862 -30.521074
v 73.684380 0.582862 30.521074
v 30.521069 0.582862 73.684380
v -30.521063 0.582862 73.684380
v -73.684357 0.582862 30.521069
v -73.684357 0.582862 -30.521053
v 73.684387 16.208744 -30.521074
v 73.684380 16.208744 30.521074
v 30.521069 16.208744 73.684380
v -73.684357 16.208744 -30.521053
v -30.521070 16.208744 -73.684372
v -73.684357 16.208744 30.521069
v 30.521065 16.208744 -73.684380
v -30.521063 16.208744 73.684380
v -34.351753 0.582862 -82.932457
v 34.351749 0.582862 -82.932465
v 82.932465 0.582862 -34.351749
v 82.932457 0.582862 34.351753
v 34.351746 0.582862 82.932449
v -34.351746 0.582862 82.932449
v -82.932442 0.582862 34.351749
v -82.932449 0.582862 -34.351738
v 80.722183 16.208744 33.436226
v 33.436222 16.208744 80.722176
v -33.436230 16.208744 -80.722183
v 80.722198 16.208744 -33.436226
v -80.722176 16.208744 -33.436207
v -80.722168 16.208744 33.436218
v 33.436218 16.208744 -80.722183
v -33.436218 16.208744 80.722176
v -12.699037 367.827698 -30.658176
v -23.464758 349.030365 -56.648930
v -30.658186 320.898193 -74.015388
v 12.699039 367.827698 -30.658176
v 23.464752 349.030365 -56.648922
v 30.658173 320.898193 -74.015388
v 30.658186 367.827698 -12.699029
v 56.648933 349.030365 -23.464752
v 74.015404 320.898193 -30.658180
v 30.658188 367.827698 12.699045
v 56.648922 349.030365 23.464758
v 74.015388 320.898193 30.658180
v 12.699039 367.827698 30.658194
v 23.464758 349.030365 56.648933
v 30.658186 320.898193 74.015404
v -0.000001 374.428467 0.000015
v -12.699032 367.827698 30.658194
v -23.464752 349.030365 56.648930
v -30.658173 320.898193 74.015388
v -30.658182 367.827698 12.699045
v -56.648914 349.030365 23.464758
v -74.015373 320.898193 30.658182
v -30.658186 367.827698 -12.699027
v -56.648922 349.030365 -23.464739
v -74.015381 320.898193 -30.658165
v -32.528095 201.137543 -78.529755
v -32.528095 212.137558 -78.529755
v 32.528084 201.137543 -78.529755
v 32.528084 212.137558 -78.529755
v 78.529755 201.137543 -32.528091
v 78.529755 212.137558 -32.528091
v 78.529755 201.137543 32.528091
v 78.529755 212.137558 32.528091
v 32.528084 201.137543 78.529762
v 32.528084 212.137558 78.529762
v -32.528080 201.137543 78.529770
v -32.528080 212.137558 78.529770
v -78.529755 201.137543 32.528091
v -78.529755 212.137558 32.528091
v -78.529770 201.137543 -32.528076
v -78.529770 212.137558 -32.528076
v -32.528095 106.711426 -78.529755
v -32.528095 117.711433 -78.529755
v 32.528084 106.711426 -78.529755
v 32.528084 117.711433 -78.529755
v 78.529755 106.711426 -32.528091
v 78.529755 117.711433 -32.528091
v 78.529755 106.711426 32.528091
v 78.529755 117.711433 32.528091
v 32.528084 106.711426 78.529762
v 32.528084 117.711433 78.529762
v -32.528080 106.711426 78.529770
v -32.528080 117.711433 78.529770
v -78.529755 106.711426 32.528091
v -78.529755 117.711433 32.528091
v -78.529770 106.711426 -32.528076
v -78.529770 117.711433 -32.528076
v -32.313145 295.178864 -78.010818
v 32.313137 295.178864 -78.010826
v 78.010834 295.178864 -32.313145
v 78.010826 295.178864 32.313145
v 32.313141 295.178864 78.010818
v -32.313133 295.178864 78.010818
v -78.010803 295.178864 32.313141
v -78.010803 295.178864 -32.313122
v -33.981865 295.178864 -82.039459
v -34.897877 281.642395 -84.250916
v 33.981853 295.178864 -82.039467
v 34.897869 281.642395 -84.250923
v 82.039467 295.178864 -33.981861
v 84.250923 281.642395 -34.897877
v 82.039459 295.178864 33.981861
v 84.250923 281.642395 34.897881
v 33.981857 295.178864 82.039452
v 34.897865 281.642395 84.250900
v -33.981850 295.178864 82.039452
v -34.897865 281.642395 84.250900
v -82.039436 295.178864 33.981861
v -84.250900 281.642395 34.897869
v -82.039436 295.178864 -33.981842
v -84.250900 281.642395 -34.897854
v 70.905602 315.081482 15.838580
v 70.905602 315.081482 -15.838580
v 106.514000 284.602417 15.838580
v 106.514000 284.602417 -15.838580
v 70.905602 0.000000 15.838580
v 70.905602 0.000000 -15.838580
v 106.514000 0.000000 -15.838580
v 106.514000 0.000000 15.838580
vt 0.603353 0.628039
vt 0.603353 0.628039
vt 0.603353 0.628039
vt 0.603353 0.628039
vt 0.603353 0.628039
vt 0.603353 0.628039
vt 0.603353 0.628039
vt 0.603353 0.628039
vt 0.603353 0.628039
vt 0.603353 0.628039
vt 0.603353 0.628039
vt 0.603353 0.628039
vt 0.603353 0.628039
vt 0.603353 0.628039
vt 0.603353 0.628039
vt 0.603353 0.628039
vt 0.693172 0.616966
vt 0.693172 0.616966
vt 0.693172 0.616966
vt 0.693172 0.616966
vt 0.000000 0.000000
vt 0.000000 0.000000
vt 0.000000 0.000000
vt 0.000000 0.000000
vt 0.693172 0.616966
vt 0.693172 0.616966
vt 0.000000 0.000000
vt 0.000000 0.000000
vt 0.000000 0.000000
vt 0.000000 0.000000
vt 0.693172 0.616966
vt 0.693172 0.616966
vt 0.693172 0.616966
vt 0.693172 0.616966
vt 0.000000 0.000000
vt 0.000000 0.000000
vt 0.693172 0.616966
vt 0.693172 0.616966
vt 0.580024 0.136538
vt 0.580024 0.136538
vt 0.677807 0.136538
vt 0.677807 0.136538
vt 0.616936 0.125464
vt 0.616936 0.125464
vt 0.714719 0.125464
vt 0.714719 0.125464
vt 0.616936 0.125464
vt 0.616936 0.125464
vt 0.714719 0.125464
vt 0.714719 0.125464
vt 0.580024 0.136538
vt 0.580024 0.136538
vt 0.677807 0.136538
vt 0.677807 0.136538
vt 0.616936 0.125464
vt 0.714719 0.125464
vt 0.580024 0.136538
vt 0.580024 0.136538
vt 0.677807 0.136538
vt 0.677807 0.136538
vt 0.616936 0.125464
vt 0.616936 0.125464
vt 0.714719 0.125464
vt 0.714719 0.125464
vt 0.616936 0.125464
vt 0.714719 0.125464
vt 0.603353 0.615735
vt 0.603353 0.615735
vt 0.603353 0.615735
vt 0.603353 0.615735
vt 0.603353 0.615735
vt 0.603353 0.615735
vt 0.603353 0.615735
vt 0.603353 0.615735
vt 0.603353 0.615735
vt 0.603353 0.615735
vt 0.603353 0.615735
vt 0.603353 0.615735
vt 0.603353 0.615735
vt 0.603353 0.615735
vt 0.603353 0.615735
vt 0.603353 0.615735
vt 0.693172 0.616966
vt 0.693172 0.616966
vt 0.000000 0.000000
vt 0.000000 0.000000
vt 0.693172 0.616966
vt 0.693172 0.616966
vt 0.000000 0.000000
vt 0.000000 0.000000
vt 0.000000 0.000000
vt 0.000000 0.000000
vt 0.572410 0.649506
vt 0.614711 0.649506
vt 0.614711 0.649506
vt 0.572410 0.649506
vt 0.642976 0.649506
vt 0.652901 0.649506
vt 0.642976 0.649506
vt 0.533737 0.649506
vt 0.533737 0.649506
vt 0.614711 0.649506
vt 0.572410 0.649506
vt 0.642976 0.649506
vt 0.533737 0.649506
vt 0.572410 0.649506
vt 0.533737 0.649506
vt 0.642976 0.649506
vt 0.614711 0.649506
vt 0.642976 0.649506
vt 0.614711 0.649506
vt 0.572410 0.649506
vt 0.533737 0.649506
vt 0.614711 0.649506
vt 0.572410 0.649506
vt 0.642976 0.649506
vt 0.533737 0.649506
vt 0.642976 0.649506
vt 0.572410 0.649506
vt 0.533737 0.649506
vt 0.614711 0.649506
vt 0.572410 0.649506
vt 0.533737 0.649506
vt 0.642976 0.649506
vt 0.614711 0.649506
vt 0.025043 0.021740
vt 0.025043 0.021740
vt 0.025043 0.021740
vt 0.025043 0.021740
vt 0.025043 0.021740
vt 0.025043 0.021740
vt 0.025043 0.021740
vt 0.025043 0.021740
vt 0.025043 0.021740
vt 0.025043 0.021740
vt 0.025043 0.021740
vt 0.025043 0.021740
vt 0.025043 0.021740
vt 0.025043 0.021740
vt 0.025043 0.021740
vt 0.025043 0.021740
vt 0.025043 0.021740
vt 0.025043 0.021740
vt 0.025043 0.021740
vt 0.025043 0.021740
vt 0.025043 0.021740
vt 0.025043 0.021740
vt 0.025043 0.021740
vt 0.025043 0.021740
vt 0.025043 0.021740
vt 0.025043 0.021740
vt 0.025043 0.021740
vt 0.025043 0.021740
vt 0.025043 0.021740
vt 0.025043 0.021740
vt 0.025043 0.021740
vt 0.025043 0.021740
vt 0.763149 0.631730
vt 0.763149 0.631730
vt 0.763149 0.631730
vt 0.763149 0.631730
vt 0.763149 0.631730
vt 0.763149 0.631730
vt 0.763149 0.631730
vt 0.763149 0.631730
vt 0.763149 0.631730
vt 0.763149 0.631730
vt 0.622884 0.628039
vt 0.622884 0.628039
vt 0.622884 0.628039
vt 0.622884 0.628039
vt 0.622884 0.628039
vt 0.622884 0.628039
vt 0.622884 0.628039
vt 0.622884 0.628039
vt 0.622884 0.628039
vt 0.622884 0.628039
vt 0.622884 0.628039
vt 0.622884 0.628039
vt 0.622884 0.628039
vt 0.622884 0.628039
vt 0.622884 0.628039
vt 0.622884 0.628039
vt 0.763149 0.631730
vt 0.763149 0.631730
vt 0.763149 0.631730
vt 0.763149 0.631730
vt 0.763149 0.631730
vt 0.763149 0.631730
vt 0.594756 0.641739
vt 0.678917 0.641739
vt 0.678917 0.641739
vt 0.594756 0.641739
vt 0.670776 0.641739
vt 0.594756 0.641739
vt 0.670776 0.641739
vt 0.594756 0.641739
vn -0.0038 -1.0000 0.0091
vn -0.0091 -1.0000 0.0038
vn 0.0038 -1.0000 -0.0091
vn 0.0091 -1.0000 -0.0038
vn -0.0091 -1.0000 -0.0038
vn 0.0091 -1.0000 0.0038
vn -0.0038 -1.0000 -0.0091
vn 0.0038 -1.0000 0.0091
vn 0.0000 1.0000 -0.0000
vn 0.0000 -1.0000 0.0000
vn 0.0000 0.0000 1.0000
vn -0.0000 0.0000 -1.0000
vn -0.7071 0.0000 0.7071
vn 0.7071 0.0000 -0.7071
vn -1.0000 0.0000 0.0000
vn -0.7071 0.0000 -0.7071
vn 0.7071 0.0000 0.7071
vn 1.0000 0.0000 0.0000
vn 0.9132 0.1513 -0.3783
vn 0.9132 0.1513 0.3783
vn 0.3783 0.1513 0.9132
vn -0.9132 0.1513 -0.3783
vn -0.3783 0.1513 -0.9132
vn -0.9132 0.1513 0.3783
vn 0.3783 0.1513 -0.9132
vn -0.3783 0.1513 0.9132
vn -0.3581 0.3524 -0.8646
vn -0.2792 0.6839 -0.6741
vn 0.2792 0.6839 -0.6741
vn 0.3581 0.3524 -0.8646
vn -0.1617 0.9063 -0.3904
vn 0.1617 0.9063 -0.3904
vn -0.3774 0.1658 -0.9111
vn 0.3774 0.1658 -0.9111
vn 0.6741 0.6839 -0.2792
vn 0.8646 0.3524 -0.3581
vn 0.3904 0.9063 -0.1617
vn 0.9111 0.1658 -0.3774
vn 0.8646 0.3524 0.3581
vn 0.9111 0.1658 0.3774
vn 0.3904 0.9063 0.1617
vn 0.6741 0.6839 0.2792
vn 0.1617 0.9063 0.3904
vn 0.2792 0.6839 0.6741
vn 0.3581 0.3524 0.8646
vn 0.3774 0.1658 0.9111
vn -0.2792 0.6839 0.6741
vn -0.3581 0.3524 0.8646
vn -0.1617 0.9063 0.3904
vn -0.3774 0.1658 0.9111
vn -0.3904 0.9063 0.1617
vn -0.8646 0.3524 0.3581
vn -0.9111 0.1658 0.3774
vn -0.6741 0.6839 0.2792
vn -0.8646 0.3524 -0.3581
vn -0.9111 0.1658 -0.3774
vn -0.3904 0.9063 -0.1617
vn -0.6741 0.6839 -0.2792
vn -0.3827 0.0000 -0.9239
vn 0.3827 0.0000 -0.9239
vn 0.9239 0.0000 -0.3827
vn 0.9239 0.0000 0.3827
vn 0.3827 0.0000 0.9239
vn -0.3827 0.0000 0.9239
vn -0.9239 0.0000 0.3827
vn -0.9239 0.0000 -0.3827
vn -0.9098 0.1741 -0.3768
vn -0.3768 0.1741 -0.9098
vn -0.9098 0.1741 0.3768
vn -0.3768 0.1741 0.9098
vn 0.3768 0.1741 0.9098
vn 0.9098 0.1741 0.3768
vn 0.9098 0.1741 -0.3768
vn 0.3768 0.1741 -0.9098
vn 0.6503 0.7597 0.0000
usemtl Material.005
s 1
f 6/1/1 117/2/1 119/3/2 7/4/2
f 2/5/3 109/6/3 111/7/4 3/8/4
f 7/4/2 119/3/2 121/9/5 8/10/5
f 3/8/4 111/7/4 113/11/6 4/12/6
f 8/10/5 121/9/5 107/13/7 1/14/7
f 5/15/8 115/16/8 117/2/1 6/1/1
f 4/12/6 113/11/6 115/16/8 5/15/8
f 17/17/9 18/18/9 33/19/9 36/20/9
f 11/21/10 10/22/10 26/23/10 27/24/10
f 18/18/9 19/25/9 34/26/9 33/19/9
f 10/22/10 9/27/10 25/28/10 26/23/10
f 9/27/10 16/29/10 32/30/10 25/28/10
f 20/31/9 21/32/9 35/33/9 37/34/9
f 16/29/10 15/35/10 31/36/10 32/30/10
f 22/37/9 20/31/9 37/34/9 38/38/9
f 5/39/11 6/40/11 24/41/11 19/42/11
f 1/43/12 2/44/12 23/45/12 21/46/12
f 6/47/13 7/48/13 22/49/13 24/50/13
f 2/51/14 3/52/14 17/53/14 23/54/14
f 7/48/15 8/55/15 20/56/15 22/49/15
f 8/57/16 1/58/16 21/59/16 20/60/16
f 4/61/17 5/62/17 19/63/17 18/64/17
f 3/65/18 4/61/18 18/64/18 17/66/18
f 36/67/19 33/68/20 28/69/20 27/70/19
f 33/68/20 34/71/21 29/72/21 28/69/20
f 37/73/22 35/74/23 25/75/23 32/76/22
f 38/77/24 37/73/22 32/76/22 31/78/24
f 39/79/25 36/67/19 27/70/19 26/80/25
f 40/81/26 38/77/24 31/78/24 30/82/26
f 35/74/23 39/79/25 26/80/25 25/75/23
f 34/71/21 40/81/26 30/82/26 29/72/21
f 19/25/9 24/83/9 40/84/9 34/26/9
f 12/85/10 11/21/10 27/24/10 28/86/10
f 21/32/9 23/87/9 39/88/9 35/33/9
f 13/89/10 12/85/10 28/86/10 29/90/10
f 24/83/9 22/37/9 38/38/9 40/84/9
f 14/91/10 13/89/10 29/90/10 30/92/10
f 23/87/9 17/17/9 36/20/9 39/88/9
f 15/35/10 14/91/10 30/92/10 31/36/10
f 43/93/27 42/94/28 45/95/29 46/96/30
f 41/97/31 56/98/9 44/99/32
f 98/100/33 43/93/27 46/96/30 99/101/34
f 42/94/28 41/97/31 44/99/32 45/95/29
f 46/96/30 45/95/29 48/102/35 49/103/36
f 44/99/32 56/98/9 47/104/37
f 99/101/34 46/96/30 49/103/36 100/105/38
f 45/95/29 44/99/32 47/104/37 48/102/35
f 100/105/38 49/103/36 52/106/39 101/107/40
f 48/102/35 47/104/37 50/108/41 51/109/42
f 49/103/36 48/102/35 51/109/42 52/106/39
f 47/104/37 56/98/9 50/108/41
f 51/109/42 50/108/41 53/110/43 54/111/44
f 52/106/39 51/109/42 54/111/44 55/112/45
f 50/108/41 56/98/9 53/110/43
f 101/107/40 52/106/39 55/112/45 102/113/46
f 55/112/45 54/111/44 58/114/47 59/115/48
f 53/110/43 56/98/9 57/116/49
f 102/113/46 55/112/45 59/115/48 103/117/50
f 54/111/44 53/110/43 57/116/49 58/114/47
f 57/116/49 56/98/9 60/118/51
f 103/117/50 59/115/48 62/119/52 104/120/53
f 58/114/47 57/116/49 60/118/51 61/121/54
f 59/115/48 58/114/47 61/121/54 62/119/52
f 104/120/53 62/119/52 65/122/55 105/123/56
f 61/121/54 60/118/51 63/124/57 64/125/58
f 62/119/52 61/121/54 64/125/58 65/122/55
f 60/118/51 56/98/9 63/124/57
f 65/122/55 64/125/58 42/94/28 43/93/27
f 63/124/57 56/98/9 41/97/31
f 105/123/56 65/122/55 43/93/27 98/100/33
f 64/125/58 63/124/57 41/97/31 42/94/28
f 66/126/59 67/127/59 69/128/60 68/129/60
f 68/129/60 69/128/60 71/130/61 70/131/61
f 70/131/61 71/130/61 73/132/62 72/133/62
f 72/133/62 73/132/62 75/134/63 74/135/63
f 74/135/63 75/134/63 77/136/64 76/137/64
f 76/137/64 77/136/64 79/138/65 78/139/65
f 69/128/9 67/127/9 81/140/9 79/138/9 77/136/9 75/134/9 73/132/9 71/130/9
f 78/139/65 79/138/65 81/140/66 80/141/66
f 80/141/66 81/140/66 67/127/59 66/126/59
f 66/126/10 68/129/10 70/131/10 72/133/10 74/135/10 76/137/10 78/139/10 80/141/10
f 82/142/59 83/143/59 85/144/60 84/145/60
f 84/145/60 85/144/60 87/146/61 86/147/61
f 86/147/61 87/146/61 89/148/62 88/149/62
f 88/149/62 89/148/62 91/150/63 90/151/63
f 90/151/63 91/150/63 93/152/64 92/153/64
f 92/153/64 93/152/64 95/154/65 94/155/65
f 85/144/9 83/143/9 97/156/9 95/154/9 93/152/9 91/150/9 89/148/9 87/146/9
f 94/155/65 95/154/65 97/156/66 96/157/66
f 96/157/66 97/156/66 83/143/59 82/142/59
f 82/142/10 84/145/10 86/147/10 88/149/10 90/151/10 92/153/10 94/155/10 96/157/10
f 98/158/9 99/159/9 108/160/9 106/161/9
f 99/159/9 100/162/9 110/163/9 108/160/9
f 100/162/9 101/164/9 112/165/9 110/163/9
f 101/164/9 102/166/9 114/167/9 112/165/9
f 121/168/67 120/169/67 106/170/68 107/171/68
f 119/172/69 118/173/69 120/169/67 121/168/67
f 117/174/70 116/175/70 118/173/69 119/172/69
f 115/176/71 114/177/71 116/175/70 117/174/70
f 113/178/72 112/179/72 114/177/71 115/176/71
f 111/180/73 110/181/73 112/179/72 113/178/72
f 109/182/74 108/183/74 110/181/73 111/180/73
f 107/171/68 106/170/68 108/183/74 109/182/74
f 105/184/9 98/158/9 106/161/9 120/185/9
f 104/186/9 105/184/9 120/185/9 118/187/9
f 103/188/9 104/186/9 118/187/9 116/189/9
f 102/166/9 103/188/9 116/189/9 114/167/9
f 1/14/7 107/13/7 109/6/3 2/5/3
f 126/190/15 122/191/15 123/192/15 127/193/15
f 127/193/12 123/192/12 125/194/12 128/195/12
f 128/195/18 125/194/18 124/196/18 129/197/18
f 129/197/11 124/196/11 122/191/11 126/190/11
f 125/194/75 123/192/75 122/191/75 124/196/75
