# Blender v3.1.2 OBJ File: 'farm.blend'
# www.blender.org
mtllib shared.mtl
o {mesh}Garland_Cube.010
v 102.322365 113.892624 -5.820759
v -100.653687 99.668213 6.427739
v 102.393364 113.887283 5.749558
v -102.017662 99.597031 -5.061899
v 90.784653 114.760544 -5.749558
v -89.179657 100.267052 5.061898
v 90.855652 114.755203 5.820758
v -90.543640 100.195862 -6.427740
v -94.241951 -0.133252 4.902172
v -95.282211 -0.187540 -3.860503
v -86.531441 0.269166 -4.902174
v -85.491196 0.323457 3.860501
v 83.628639 0.490195 4.439253
v 83.574493 0.494272 -4.384952
v 92.373833 -0.167650 -4.439253
v 92.427979 -0.171727 4.384952
v -90.144714 85.114853 1.527888
v -89.767700 88.161491 1.527888
v -90.144714 85.114853 -1.527888
v -89.767700 88.161491 -1.527888
v 92.403923 108.641747 1.527889
v 90.881264 111.544945 1.527889
v 92.403923 108.641747 -1.527887
v 90.881264 111.544945 -1.527887
v 49.166698 85.107513 -1.527888
v 1.970534 75.719124 -1.527889
v -43.839184 77.630096 -1.527889
v -43.588936 80.681847 -1.527889
v 1.711310 78.770584 -1.527889
v 47.539978 87.988495 -1.527888
v -43.839180 77.630096 1.527887
v 1.970534 75.719124 1.527887
v 49.166698 85.107513 1.527888
v 47.539978 87.988495 1.527888
v 1.711310 78.770584 1.527887
v -43.588932 80.681847 1.527887
v -84.282310 85.690048 -0.729669
v -84.282310 85.690048 1.326543
v -64.629166 81.853455 1.326543
v -79.069542 60.137253 0.298437
v -64.629166 81.853455 -0.729669
v -64.054619 82.097633 -0.729670
v -64.054619 82.097633 1.326543
v -44.170841 79.731117 1.326543
v -56.958645 57.002510 0.298437
v -44.170841 79.731117 -0.729669
v -42.732258 78.722153 -0.729670
v -42.732258 78.722153 1.326542
v -22.722860 77.954567 1.326543
v -33.650635 54.275429 0.298436
v -22.722860 77.954567 -0.729670
v -20.197906 76.884460 -0.729670
v -20.197906 76.884460 1.326542
v -0.174365 76.732895 1.326542
v -10.368403 52.728737 0.298436
v -0.174365 76.732895 -0.729670
v 1.792248 77.218964 -0.729670
v 1.792248 77.218964 1.326542
v 21.536253 80.556549 1.326543
v 15.677982 55.143990 0.298436
v 21.536253 80.556549 -0.729669
v 23.561989 81.511589 -0.729670
v 23.561989 81.511589 1.326543
v 43.305996 84.849174 1.326544
v 37.447723 59.436615 0.298437
v 43.305996 84.849174 -0.729669
v 45.049675 85.374153 -0.729669
v 45.049675 85.374153 1.326543
v 63.128590 93.983337 1.326545
v 64.442398 67.937393 0.298438
v 63.128590 93.983337 -0.729667
v 64.979889 95.681107 -0.729668
v 64.979889 95.681107 1.326545
v 82.966354 104.481804 1.326546
v 84.556686 78.451279 0.298440
v 82.966354 104.481804 -0.729666
vt 0.215468 0.866048
vt 0.318893 0.866048
vt 0.318893 0.866048
vt 0.215468 0.866048
vt 0.318893 0.866048
vt 0.215468 0.866048
vt 0.318893 0.866048
vt 0.215468 0.866048
vt 0.215468 0.866048
vt 0.333875 0.866048
vt 0.333875 0.866048
vt 0.215468 0.866048
vt 0.333875 0.866048
vt 0.333875 0.866048
vt 0.215468 0.866048
vt 0.215468 0.866048
vt 0.558444 0.882037
vt 0.558444 0.882037
vt 0.558444 0.882037
vt 0.558444 0.882037
vt 0.558444 0.882037
vt 0.558444 0.882037
vt 0.558444 0.882037
vt 0.558444 0.882037
vt 0.558444 0.882037
vt 0.558444 0.882037
vt 0.558444 0.882037
vt 0.558444 0.882037
vt 0.558444 0.882037
vt 0.558444 0.882037
vt 0.558444 0.882037
vt 0.558444 0.882037
vt 0.558444 0.882037
vt 0.558444 0.882037
vt 0.558444 0.882037
vt 0.558444 0.882037
vt 0.609505 0.125961
vt 0.609505 0.125961
vt 0.609505 0.125961
vt 0.609505 0.125961
vt 0.609505 0.125961
vt 0.137034 0.629191
vt 0.137034 0.629191
vt 0.137034 0.629191
vt 0.137034 0.629191
vt 0.137034 0.629191
vt 0.379422 0.379422
vt 0.379422 0.379422
vt 0.379422 0.379422
vt 0.379422 0.379422
vt 0.379422 0.379422
vt 0.609505 0.125961
vt 0.609505 0.125961
vt 0.609505 0.125961
vt 0.609505 0.125961
vt 0.609505 0.125961
vt 0.137034 0.629191
vt 0.137034 0.629191
vt 0.137034 0.629191
vt 0.137034 0.629191
vt 0.137034 0.629191
vt 0.379422 0.379422
vt 0.379422 0.379422
vt 0.379422 0.379422
vt 0.379422 0.379422
vt 0.379422 0.379422
vt 0.609505 0.125961
vt 0.609505 0.125961
vt 0.609505 0.125961
vt 0.609505 0.125961
vt 0.609505 0.125961
vt 0.137034 0.629191
vt 0.137034 0.629191
vt 0.137034 0.629191
vt 0.137034 0.629191
vt 0.137034 0.629191
vn -0.9908 -0.0655 0.1180
vn -0.1172 -0.0199 -0.9929
vn 0.9923 0.0380 -0.1180
vn 0.1186 -0.0076 0.9929
vn -0.9980 0.0630 0.0062
vn -0.0521 0.9986 -0.0000
vn 0.0750 0.9972 0.0000
vn 0.0052 -0.0124 0.9999
vn 0.9962 -0.0870 -0.0062
vn -0.0070 -0.0115 -0.9999
vn 0.0000 0.0000 -1.0000
vn 0.0000 -0.0000 1.0000
vn 0.4781 -0.8783 0.0000
vn 0.1599 0.9871 -0.0000
vn -0.4775 0.8786 0.0000
vn -0.1972 0.9804 0.0000
vn 0.0422 0.9991 0.0000
vn -0.1596 -0.9872 0.0000
vn -0.0417 -0.9991 0.0000
vn 0.1951 -0.9808 0.0000
vn -0.0082 -0.0419 0.9991
vn -0.0082 -0.0419 -0.9991
vn 0.1916 0.9815 0.0000
vn 0.8327 -0.5537 0.0000
vn -0.9798 -0.1999 0.0000
vn -0.0050 -0.0424 0.9991
vn -0.0050 -0.0424 -0.9991
vn 0.1182 0.9930 0.0000
vn 0.8715 -0.4903 0.0000
vn -0.9623 -0.2721 0.0000
vn -0.0016 -0.0426 0.9991
vn -0.0016 -0.0426 -0.9991
vn 0.0383 0.9993 0.0000
vn 0.9080 -0.4190 0.0000
vn -0.9374 -0.3482 0.0000
vn -0.0003 -0.0427 0.9991
vn -0.0003 -0.0427 -0.9991
vn 0.0076 1.0000 0.0000
vn 0.9204 -0.3909 0.0000
vn -0.9262 -0.3769 0.0000
vn 0.0071 -0.0421 0.9991
vn 0.0071 -0.0421 -0.9991
vn -0.1667 0.9860 0.0000
vn 0.9744 -0.2246 0.0000
vn -0.8465 -0.5324 0.0000
vn 0.0183 -0.0385 0.9991
vn 0.0183 -0.0385 -0.9991
vn -0.4299 0.9029 0.0000
vn 0.9987 0.0504 0.0000
vn -0.6686 -0.7436 0.0000
vn 0.0187 -0.0383 0.9991
vn 0.0187 -0.0383 -0.9991
vn -0.4395 0.8982 0.0000
vn 0.9981 0.0610 0.0000
vn -0.6607 -0.7507 0.0000
usemtl Material.005
s 1
f 9/1/1 2/2/1 4/3/1 10/4/1
f 10/4/2 4/3/2 8/5/2 11/6/2
f 11/6/3 8/5/3 6/7/3 12/8/3
f 12/8/4 6/7/4 2/2/4 9/1/4
f 13/9/5 7/10/5 5/11/5 14/12/5
f 8/5/6 4/3/6 2/2/6 6/7/6
f 1/13/7 5/11/7 7/10/7 3/14/7
f 16/15/8 3/14/8 7/10/8 13/9/8
f 15/16/9 1/13/9 3/14/9 16/15/9
f 14/12/10 5/11/10 1/13/10 15/16/10
f 25/17/11 30/18/11 24/19/11 23/20/11
f 31/21/12 36/22/12 18/23/12 17/24/12
f 25/17/13 23/20/13 21/25/13 33/26/13
f 28/27/14 20/28/14 18/23/14 36/22/14
f 24/19/15 30/18/15 34/29/15 22/30/15
f 30/18/16 29/31/16 35/32/16 34/29/16
f 29/31/17 28/27/17 36/22/17 35/32/17
f 19/33/18 27/34/18 31/21/18 17/24/18
f 27/34/19 26/35/19 32/36/19 31/21/19
f 26/35/20 25/17/20 33/26/20 32/36/20
f 21/25/12 22/30/12 34/29/12 33/26/12
f 33/26/12 34/29/12 35/32/12 32/36/12
f 32/36/12 35/32/12 36/22/12 31/21/12
f 19/33/11 20/28/11 28/27/11 27/34/11
f 27/34/11 28/27/11 29/31/11 26/35/11
f 26/35/11 29/31/11 30/18/11 25/17/11
f 38/37/21 40/38/21 39/39/21
f 37/40/22 41/41/22 40/38/22
f 39/39/23 41/41/23 37/40/23 38/37/23
f 40/38/24 41/41/24 39/39/24
f 38/37/25 37/40/25 40/38/25
f 43/42/26 45/43/26 44/44/26
f 42/45/27 46/46/27 45/43/27
f 44/44/28 46/46/28 42/45/28 43/42/28
f 45/43/29 46/46/29 44/44/29
f 43/42/30 42/45/30 45/43/30
f 48/47/31 50/48/31 49/49/31
f 47/50/32 51/51/32 50/48/32
f 49/49/33 51/51/33 47/50/33 48/47/33
f 50/48/34 51/51/34 49/49/34
f 48/47/35 47/50/35 50/48/35
f 53/52/36 55/53/36 54/54/36
f 52/55/37 56/56/37 55/53/37
f 54/54/38 56/56/38 52/55/38 53/52/38
f 55/53/39 56/56/39 54/54/39
f 53/52/40 52/55/40 55/53/40
f 58/57/41 60/58/41 59/59/41
f 57/60/42 61/61/42 60/58/42
f 59/59/43 61/61/43 57/60/43 58/57/43
f 60/58/44 61/61/44 59/59/44
f 58/57/45 57/60/45 60/58/45
f 63/62/41 65/63/41 64/64/41
f 62/65/42 66/66/42 65/63/42
f 64/64/43 66/66/43 62/65/43 63/62/43
f 65/63/44 66/66/44 64/64/44
f 63/62/45 62/65/45 65/63/45
f 68/67/46 70/68/46 69/69/46
f 67/70/47 71/71/47 70/68/47
f 69/69/48 71/71/48 67/70/48 68/67/48
f 70/68/49 71/71/49 69/69/49
f 68/67/50 67/70/50 70/68/50
f 73/72/51 75/73/51 74/74/51
f 72/75/52 76/76/52 75/73/52
f 74/74/53 76/76/53 72/75/53 73/72/53
f 75/73/54 76/76/54 74/74/54
f 73/72/55 72/75/55 75/73/55
