# Blender v3.1.2 OBJ File: 'farm.blend'
# www.blender.org
mtllib shared.mtl
o {mesh}Potted_Bush_Circle
v -19.132864 25.000000 19.132864
v -19.132864 25.000000 -19.132864
v 19.132864 25.000000 19.132864
v 19.132864 25.000000 -19.132864
v -21.266478 0.000000 21.266478
v -21.266478 0.000000 -21.266478
v 21.266478 0.000000 -21.266478
v 21.266478 0.000000 21.266478
v -25.000000 25.000000 25.000000
v -25.000000 25.000000 -25.000000
v 25.000000 25.000000 -25.000000
v 25.000000 25.000000 25.000000
v -18.254585 23.477379 18.254585
v -16.007904 61.367142 16.007902
v -18.254585 23.477379 -18.254585
v -16.007902 61.367142 -16.007904
v 18.254585 23.477379 18.254585
v 16.007902 61.367142 16.007904
v 18.254585 23.477379 -18.254585
v 16.007904 61.367142 -16.007902
v -19.935434 23.477379 11.399725
v -19.627571 55.698723 19.627569
v -17.481880 62.841118 -9.996704
v -21.347437 31.462107 -21.347437
v -11.399726 23.477379 -19.935434
v 9.996704 62.841118 -17.481880
v 21.347437 31.462107 -21.347437
v 19.935434 23.477379 -11.399725
v 17.481880 62.841118 9.996704
v 21.347437 31.462107 21.347437
v 11.399725 23.477379 19.935434
v -9.996704 62.841118 17.481880
v 11.399725 23.477379 -19.935434
v -9.996704 62.841118 -17.481880
v -11.399726 23.477379 19.935434
v 9.996704 62.841118 17.481880
v -19.935434 23.477379 -11.399726
v -17.481880 62.841118 9.996704
v 19.935434 23.477379 11.399725
v 17.481880 62.841118 -9.996704
v -21.347437 31.462107 21.347437
v -19.627569 55.698723 -19.627571
v 19.627571 55.698723 -19.627569
v 19.627569 55.698723 19.627571
v -22.983580 55.892872 -11.417829
v 11.417829 55.892872 -22.983580
v 22.983580 55.892872 11.417829
v -11.417829 55.892872 22.983580
v -7.919526 65.830246 7.919525
v 7.919525 65.830246 7.919525
v 11.417830 55.892872 22.983580
v -11.417830 55.892872 -22.983580
v 7.919525 65.830246 -7.919525
v -7.919526 65.830246 -7.919526
v 22.983578 55.892872 -11.417828
v -22.983580 55.892872 11.417830
v -24.997517 31.250948 12.418316
v 24.997517 31.250948 -12.418316
v -12.418316 31.250948 -24.997517
v 12.418316 31.250948 24.997517
v -12.418316 31.250944 24.997519
v 24.997517 31.250944 12.418316
v 12.418316 31.250944 -24.997517
v -24.997517 31.250944 -12.418316
v -22.226587 38.615894 22.226587
v -22.226589 47.089149 22.226587
v -22.226587 47.089149 -22.226589
v -22.226587 38.615894 -22.226589
v 22.226589 47.089149 -22.226587
v 22.226589 38.615894 -22.226587
v 22.226587 47.089149 22.226589
v 22.226587 38.615894 22.226589
v -26.026989 47.162434 12.929739
v -26.026985 38.542610 12.929739
v 26.026985 47.162434 -12.929739
v 26.026985 38.542606 -12.929739
v -12.929739 47.162434 -26.026989
v -12.929739 38.542610 -26.026985
v 12.929739 47.162434 26.026989
v 12.929739 38.542610 26.026985
v -12.929739 47.162434 26.026989
v -12.929739 38.542606 26.026989
v 26.026989 47.162434 12.929739
v 26.026985 38.542606 12.929739
v 12.929739 47.162434 -26.026989
v 12.929739 38.542606 -26.026985
v -26.026989 47.162434 -12.929739
v -26.026985 38.542606 -12.929739
v -25.245529 43.003448 2.869407
v -25.246466 44.734383 7.994908
v -25.043720 40.398438 11.223745
v -24.917471 35.987740 8.093773
v -27.313137 39.819077 6.879000
v -29.333511 44.335560 0.827335
v -29.016838 35.916565 0.922495
v -28.822590 33.409138 8.963875
v -29.019209 40.278458 13.838561
v -25.042196 37.597721 2.930508
v -29.334970 47.031357 8.809900
v -16.417204 48.461967 22.755116
v -10.924170 49.950523 23.607824
v -7.935911 45.160236 24.721310
v -11.582101 40.711124 24.556767
v -12.420843 45.320511 26.515896
v -18.856386 50.334011 26.187801
v -19.451729 41.973560 27.046467
v -11.777267 38.985928 28.825613
v -6.438846 45.499912 29.066526
v -16.823824 42.751709 23.341591
v -10.813985 52.513409 27.436260
v 5.029904 57.661282 21.223909
v 9.426305 58.091099 19.904003
v 11.822465 54.628586 21.781416
v 8.906969 52.058815 24.261625
v 8.376396 56.168777 24.313072
v 4.582061 60.122341 23.247391
v 4.152914 55.137665 26.848244
v 9.765840 52.631641 27.308931
v 13.663967 56.067513 23.992802
v 4.708938 53.933125 23.917065
v 10.460211 60.697018 21.482628
v -4.166512 63.910633 4.474929
v 1.629117 64.075974 2.392618
v 5.406348 63.581551 7.234188
v 1.945174 63.110645 12.308755
v 0.128072 66.573746 8.114761
v -5.734842 68.015976 3.786186
v -5.467699 67.200035 12.167812
v 2.623770 66.921867 14.500078
v 7.357431 67.565895 7.559870
v -3.971177 63.314034 10.603439
v 2.191519 68.242081 0.938324
v 23.695620 48.512177 12.830151
v 24.613079 43.731873 9.858571
v 23.959333 39.305717 13.394835
v 22.637827 41.350510 18.551949
v 26.903183 43.986004 14.762506
v 27.696514 50.840664 12.932126
v 25.892946 48.666294 20.869884
v 26.133739 40.260052 21.385490
v 28.086132 37.239082 13.766390
v 22.474840 47.040413 18.202953
v 29.051968 43.778263 8.541927
v 19.147703 59.308552 -5.950083
v 21.428976 54.856743 -8.763550
v 23.294453 51.069347 -4.875862
v 22.166096 53.180416 0.340329
v 24.371672 56.896027 -3.790095
v 21.731722 62.200569 -6.561560
v 22.332773 60.833687 0.861788
v 25.714048 54.115402 1.737714
v 27.202749 51.330154 -5.144285
v 19.603264 58.272530 -0.323574
v 24.741524 56.327065 -10.273514
v 10.901550 45.472782 -25.301991
v 10.098982 41.041630 -25.257647
v 13.961363 38.937397 -24.290472
v 17.151012 42.068058 -23.737059
v 12.914157 42.360817 -27.236095
v 10.716887 46.183086 -28.255913
v 16.420658 47.013283 -27.026045
v 18.895473 41.727379 -26.207918
v 14.721221 37.630318 -26.932161
v 15.259945 46.107147 -24.362211
v 9.666577 40.384106 -28.197884
v -7.757601 61.737240 -14.865060
v -8.332364 57.240063 -20.015949
v -2.007496 55.563492 -22.082790
v 2.476251 59.024483 -18.209274
v -3.775301 61.512524 -19.728071
v -8.823225 65.320107 -16.832870
v -0.621066 66.674232 -15.461863
v 3.742425 61.989254 -20.939064
v -1.762953 57.739662 -25.695171
v -1.077504 62.840069 -13.748477
v -9.528950 59.798233 -23.157391
v -18.944561 48.217278 -21.918272
v -18.772039 43.414909 -22.590031
v -14.254475 42.248596 -23.922365
v -11.634989 46.330147 -24.074026
v -17.015974 46.190731 -25.724878
v -21.707228 49.885735 -24.732670
v -14.823787 52.697384 -26.163939
v -10.300355 46.940804 -28.096819
v -14.388169 40.571381 -27.860142
v -14.533618 50.018990 -22.835434
v -21.438000 42.391453 -25.780973
v -22.394238 55.935268 -4.449793
v -24.351757 52.319248 -6.398706
v -23.984644 52.782734 -10.910493
v -21.800230 56.685211 -11.750017
v -24.812662 56.630325 -8.466738
v -24.828915 57.558586 -3.238838
v -22.724344 61.159760 -7.652746
v -24.036154 58.559460 -12.981716
v -26.951473 53.351212 -11.861286
v -20.817307 58.633579 -7.757091
v -27.441418 52.732635 -5.839856
vt 0.311215 0.887928
vt 0.416942 0.887928
vt 0.416942 0.887928
vt 0.311215 0.887928
vt 0.416942 0.887928
vt 0.311215 0.887928
vt 0.416942 0.887928
vt 0.311215 0.887928
vt 0.520295 0.881776
vt 0.520295 0.881776
vt 0.520295 0.881776
vt 0.520295 0.881776
vt 0.520295 0.881776
vt 0.520295 0.881776
vt 0.520295 0.881776
vt 0.520295 0.881776
vt 0.176696 0.629874
vt 0.140278 0.629874
vt 0.139457 0.629874
vt 0.176386 0.629874
vt 0.139457 0.629874
vt 0.110066 0.629874
vt 0.116301 0.629874
vt 0.140278 0.629874
vt 0.139457 0.629874
vt 0.110066 0.629874
vt 0.110066 0.629874
vt 0.139457 0.629874
vt 0.139457 0.629874
vt 0.110066 0.629874
vt 0.116301 0.629874
vt 0.140278 0.629874
vt 0.176386 0.629874
vt 0.176696 0.629874
vt 0.110066 0.629874
vt 0.116301 0.629874
vt 0.140278 0.629874
vt 0.176386 0.629874
vt 0.176696 0.629874
vt 0.139457 0.629874
vt 0.110066 0.629874
vt 0.139457 0.629874
vt 0.110066 0.629874
vt 0.116301 0.629874
vt 0.176386 0.629874
vt 0.176696 0.629874
vt 0.176386 0.629874
vt 0.176386 0.629874
vt 0.097422 0.629874
vt 0.097422 0.629874
vt 0.110066 0.629874
vt 0.097422 0.629874
vt 0.097422 0.629874
vt 0.212847 0.629874
vt 0.212847 0.629874
vt 0.243691 0.629874
vt 0.243691 0.629874
vt 0.139457 0.629874
vt 0.212847 0.629874
vt 0.212847 0.629874
vt 0.243691 0.629874
vt 0.243691 0.629874
vt 0.212847 0.629874
vt 0.212847 0.629874
vt 0.243691 0.629874
vt 0.243691 0.629874
vt 0.212847 0.629874
vt 0.212847 0.629874
vt 0.243691 0.629874
vt 0.243691 0.629874
vt 0.276573 0.629874
vt 0.242798 0.629874
vt 0.276573 0.629874
vt 0.276573 0.629874
vt 0.276573 0.629874
vt 0.242798 0.629874
vt 0.276573 0.629874
vt 0.276573 0.629874
vt 0.176386 0.629874
vt 0.276573 0.629874
vt 0.242798 0.629874
vt 0.276573 0.629874
vt 0.276573 0.629874
vt 0.276573 0.629874
vt 0.242798 0.629874
vt 0.276573 0.629874
vt 0.276573 0.629874
vt 0.176386 0.629874
vt 0.212537 0.629874
vt 0.212537 0.629874
vt 0.212537 0.629874
vt 0.212537 0.629874
vt 0.041833 0.204245
vt 0.041833 0.204245
vt 0.041833 0.204245
vt 0.041833 0.204245
vt 0.041833 0.204245
vt 0.041833 0.204245
vt 0.041833 0.204245
vt 0.041833 0.204245
vt 0.041833 0.204245
vt 0.041833 0.204245
vt 0.041833 0.204245
vt 0.103357 0.123190
vt 0.103357 0.123190
vt 0.103357 0.123190
vt 0.103357 0.123190
vt 0.103357 0.123190
vt 0.103357 0.123190
vt 0.103357 0.123190
vt 0.103357 0.123190
vt 0.103357 0.123190
vt 0.103357 0.123190
vt 0.103357 0.123190
vt 0.041833 0.204245
vt 0.041833 0.204245
vt 0.041833 0.204245
vt 0.041833 0.204245
vt 0.041833 0.204245
vt 0.041833 0.204245
vt 0.041833 0.204245
vt 0.041833 0.204245
vt 0.041833 0.204245
vt 0.041833 0.204245
vt 0.041833 0.204245
vt 0.127771 0.121237
vt 0.127771 0.121237
vt 0.127771 0.121237
vt 0.127771 0.121237
vt 0.127771 0.121237
vt 0.127771 0.121237
vt 0.127771 0.121237
vt 0.127771 0.121237
vt 0.127771 0.121237
vt 0.127771 0.121237
vt 0.127771 0.121237
vt 0.041833 0.204245
vt 0.041833 0.204245
vt 0.041833 0.204245
vt 0.041833 0.204245
vt 0.041833 0.204245
vt 0.041833 0.204245
vt 0.041833 0.204245
vt 0.041833 0.204245
vt 0.041833 0.204245
vt 0.041833 0.204245
vt 0.041833 0.204245
vt 0.127771 0.121237
vt 0.127771 0.121237
vt 0.127771 0.121237
vt 0.127771 0.121237
vt 0.127771 0.121237
vt 0.127771 0.121237
vt 0.127771 0.121237
vt 0.127771 0.121237
vt 0.127771 0.121237
vt 0.127771 0.121237
vt 0.127771 0.121237
vt 0.041833 0.204245
vt 0.041833 0.204245
vt 0.041833 0.204245
vt 0.041833 0.204245
vt 0.041833 0.204245
vt 0.041833 0.204245
vt 0.041833 0.204245
vt 0.041833 0.204245
vt 0.041833 0.204245
vt 0.041833 0.204245
vt 0.041833 0.204245
vt 0.041833 0.204245
vt 0.041833 0.204245
vt 0.041833 0.204245
vt 0.041833 0.204245
vt 0.041833 0.204245
vt 0.041833 0.204245
vt 0.041833 0.204245
vt 0.041833 0.204245
vt 0.041833 0.204245
vt 0.041833 0.204245
vt 0.041833 0.204245
vt 0.127771 0.121237
vt 0.127771 0.121237
vt 0.127771 0.121237
vt 0.127771 0.121237
vt 0.127771 0.121237
vt 0.127771 0.121237
vt 0.127771 0.121237
vt 0.127771 0.121237
vt 0.127771 0.121237
vt 0.127771 0.121237
vt 0.127771 0.121237
vt 0.111169 0.132956
vt 0.111169 0.132956
vt 0.111169 0.132956
vt 0.111169 0.132956
vt 0.111169 0.132956
vt 0.111169 0.132956
vt 0.111169 0.132956
vt 0.111169 0.132956
vt 0.111169 0.132956
vt 0.111169 0.132956
vt 0.111169 0.132956
vn -0.9890 -0.1477 0.0000
vn 0.0000 -0.1477 -0.9890
vn 0.9890 -0.1477 0.0000
vn 0.0000 -0.1477 0.9890
vn 0.0000 1.0000 0.0000
vn -0.6943 0.1892 0.6943
vn -0.6066 0.5138 0.6066
vn -0.8531 0.4934 0.1695
vn -0.9646 0.1766 0.1961
vn -0.8531 0.4934 -0.1695
vn -0.5463 0.8245 -0.1471
vn -0.4523 0.7687 -0.4523
vn -0.6066 0.5138 -0.6066
vn 0.8531 0.4934 -0.1695
vn 0.5463 0.8245 -0.1471
vn 0.5463 0.8245 0.1471
vn 0.8531 0.4934 0.1695
vn 0.1695 0.4934 -0.8531
vn 0.1471 0.8245 -0.5463
vn 0.4523 0.7687 -0.4523
vn 0.6066 0.5138 -0.6066
vn -0.9646 0.1766 -0.1961
vn -0.6943 0.1892 -0.6943
vn -0.5463 0.8245 0.1471
vn 0.4523 0.7687 0.4523
vn 0.6066 0.5138 0.6066
vn 0.1961 0.1766 -0.9646
vn 0.6943 0.1892 -0.6943
vn -0.1695 0.4934 -0.8531
vn -0.1471 0.8245 -0.5463
vn -0.1695 0.4934 0.8531
vn -0.1471 0.8245 0.5463
vn -0.4523 0.7687 0.4523
vn 0.9646 0.1766 0.1961
vn 0.6943 0.1892 0.6943
vn -0.1961 0.1766 -0.9646
vn -0.1961 0.1766 0.9646
vn 0.1331 0.9821 0.1331
vn -0.1331 0.9821 0.1331
vn 0.1471 0.8245 0.5463
vn -0.1331 0.9821 -0.1331
vn 0.1331 0.9821 -0.1331
vn 0.1952 -0.0754 0.9779
vn -0.1952 -0.0754 0.9779
vn -0.1689 -0.3396 0.9253
vn 0.1689 -0.3396 0.9253
vn 0.1695 0.4934 0.8531
vn -0.1952 -0.0754 -0.9779
vn 0.1952 -0.0754 -0.9779
vn 0.1689 -0.3396 -0.9253
vn -0.1689 -0.3396 -0.9253
vn 0.9779 -0.0754 -0.1952
vn 0.9779 -0.0754 0.1952
vn 0.9253 -0.3396 0.1689
vn 0.9253 -0.3396 -0.1689
vn -0.9779 -0.0754 0.1952
vn -0.9779 -0.0754 -0.1952
vn -0.9253 -0.3396 -0.1689
vn -0.9253 -0.3396 0.1689
vn -0.5960 -0.5382 0.5960
vn -0.6643 -0.3427 0.6643
vn -0.8377 -0.5280 0.1394
vn -0.8377 -0.5280 -0.1394
vn 0.5960 -0.5382 -0.5960
vn 0.6643 -0.3427 -0.6643
vn 0.8377 -0.5280 -0.1394
vn 0.8377 -0.5280 0.1394
vn 0.9646 0.1766 -0.1961
vn -0.5960 -0.5382 -0.5960
vn -0.6643 -0.3427 -0.6643
vn -0.1394 -0.5280 -0.8377
vn 0.1394 -0.5280 -0.8377
vn 0.5960 -0.5382 0.5960
vn 0.6643 -0.3427 0.6643
vn 0.1394 -0.5280 0.8377
vn -0.1394 -0.5280 0.8377
vn 0.1961 0.1766 0.9646
vn 0.7047 -0.0830 0.7047
vn 0.7047 -0.0830 -0.7047
vn -0.7047 -0.0830 0.7047
vn -0.7047 -0.0830 -0.7047
vn -0.9659 -0.1690 0.1963
vn -0.9998 -0.0185 0.0026
vn -0.9651 -0.2561 -0.0539
vn -0.9758 0.2072 -0.0694
vn -0.9722 0.1053 0.2091
vn -0.9710 -0.0429 -0.2352
vn 0.5717 -0.7773 0.2626
vn 0.5489 -0.4826 -0.6825
vn 0.5117 0.5069 -0.6937
vn 0.5115 0.8237 0.2445
vn 0.5486 0.0301 0.8355
vn -0.0480 0.0038 0.9988
vn -0.2105 0.1269 0.9693
vn -0.2449 -0.0690 0.9671
vn -0.2229 0.3139 0.9229
vn -0.0246 0.2068 0.9781
vn -0.3925 0.1188 0.9121
vn 0.2951 -0.8905 -0.3464
vn -0.6365 -0.5278 -0.5624
vn -0.5643 0.4871 -0.6666
vn 0.4120 0.7517 -0.5150
vn 0.9431 -0.0997 -0.3171
vn 0.2739 0.4865 0.8297
vn 0.1869 0.5771 0.7950
vn 0.1425 0.4767 0.8675
vn 0.1507 0.6727 0.7244
vn 0.2969 0.6034 0.7401
vn 0.0603 0.5788 0.8132
vn 0.1393 -0.9796 0.1449
vn -0.8367 -0.5439 0.0648
vn -0.7620 0.3228 -0.5613
vn 0.2600 0.4228 -0.8681
vn 0.8170 -0.3822 -0.4317
vn 0.1145 0.9786 0.1709
vn 0.0078 0.9962 0.0862
vn -0.0292 0.9754 0.2184
vn -0.0431 0.9984 -0.0376
vn 0.1188 0.9929 0.0106
vn -0.1276 0.9866 0.1020
vn 0.3028 -0.5150 0.8019
vn -0.7148 -0.4800 0.5086
vn -0.7484 -0.3774 -0.5455
vn 0.2485 -0.3490 -0.9036
vn 0.8981 -0.4340 -0.0709
vn 0.9643 -0.0418 0.2616
vn 0.9692 0.0445 0.2421
vn 0.9447 0.0466 0.3248
vn 0.9829 0.0861 0.1626
vn 0.9854 -0.0089 0.1699
vn 0.9589 0.1309 0.2519
vn -0.6357 -0.4919 0.5950
vn -0.6648 0.5238 0.5327
vn -0.4469 0.7865 -0.4263
vn -0.2831 -0.0668 -0.9568
vn -0.3998 -0.8568 -0.3256
vn 0.8929 0.4501 0.0110
vn 0.8926 0.4507 0.0107
vn 0.8926 0.4507 0.0114
vn 0.8925 0.4510 0.0101
vn 0.8928 0.4502 0.0102
vn 0.8923 0.4512 0.0108
vn -0.1593 -0.5845 0.7956
vn -0.6411 0.3728 0.6708
vn -0.7268 0.5676 -0.3869
vn -0.2979 -0.2693 -0.9158
vn 0.0528 -0.9813 -0.1850
vn 0.2634 -0.1045 -0.9590
vn 0.2379 -0.0447 -0.9703
vn 0.2900 -0.0108 -0.9570
vn 0.1651 -0.0407 -0.9854
vn 0.1888 -0.0982 -0.9771
vn 0.2050 0.0154 -0.9786
vn 0.7999 -0.1390 0.5839
vn 0.3450 0.8325 0.4335
vn -0.7033 0.6799 0.2075
vn -0.8964 -0.3859 0.2181
vn 0.0326 -0.8920 0.4508
vn 0.0982 0.6816 -0.7251
vn -0.0043 0.7541 -0.6567
vn 0.1141 0.7988 -0.5907
vn -0.1509 0.7528 -0.6407
vn -0.0708 0.6608 -0.7472
vn -0.0488 0.8367 -0.5455
vn 0.9503 -0.2791 0.1377
vn 0.3725 0.3413 0.8630
vn -0.7137 0.1620 0.6814
vn -0.8072 -0.5693 -0.1561
vn 0.2213 -0.8419 -0.4922
vn -0.1591 0.0625 -0.9853
vn -0.2361 0.1301 -0.9630
vn -0.1600 0.2005 -0.9665
vn -0.3424 0.1175 -0.9322
vn -0.2780 0.0289 -0.9601
vn -0.2868 0.2201 -0.9323
vn 0.9495 -0.0097 0.3135
vn 0.3586 0.7423 0.5661
vn -0.5407 0.3750 0.7530
vn -0.5055 -0.6041 0.6161
vn 0.4155 -0.8419 0.3445
vn -0.8769 0.4728 -0.0867
vn -0.8757 0.4825 -0.0185
vn -0.8441 0.5336 -0.0528
vn -0.8880 0.4579 0.0429
vn -0.9056 0.4231 -0.0308
vn -0.8489 0.5279 0.0250
vn 0.5625 0.1351 -0.8157
vn 0.7943 0.5944 0.1257
vn 0.4225 -0.0417 0.9054
vn -0.0390 -0.8942 0.4459
vn 0.0476 -0.7849 -0.6177
usemtl Material.005
s 1
f 5/1/1 9/2/1 10/3/1 6/4/1
f 6/4/2 10/3/2 11/5/2 7/6/2
f 7/6/3 11/5/3 12/7/3 8/8/3
f 8/8/4 12/7/4 9/2/4 5/1/4
f 1/9/5 2/10/5 10/11/5 9/12/5
f 2/10/5 4/13/5 11/14/5 10/11/5
f 4/13/5 3/15/5 12/16/5 11/14/5
f 3/15/5 1/9/5 9/12/5 12/16/5
f 66/17/6 22/18/7 56/19/8 73/20/9
f 45/21/10 23/22/11 16/23/12 42/24/13
f 55/25/14 40/26/15 29/27/16 47/28/17
f 46/29/18 26/30/19 20/31/20 43/32/21
f 87/33/22 45/21/10 42/24/13 67/34/23
f 56/19/8 38/35/24 23/22/11 45/21/10
f 47/28/17 29/27/16 18/36/25 44/37/26
f 85/38/27 46/29/18 43/32/21 69/39/28
f 52/40/29 34/41/30 26/30/19 46/29/18
f 48/42/31 32/43/32 14/44/33 22/18/7
f 83/45/34 47/28/17 44/37/26 71/46/35
f 67/34/23 42/24/13 52/40/29 77/47/36
f 81/48/37 48/42/31 22/18/7 66/17/6
f 50/49/38 49/50/39 32/43/32 36/51/40
f 49/50/39 38/35/24 14/44/33 32/43/32
f 54/52/41 23/22/11 38/35/24 49/50/39
f 29/27/16 50/49/38 36/51/40 18/36/25
f 53/53/42 54/52/41 49/50/39 50/49/38
f 80/54/43 82/55/44 61/56/45 60/57/46
f 44/37/26 18/36/25 36/51/40 51/58/47
f 78/59/48 86/60/49 63/61/50 59/62/51
f 42/24/13 16/23/12 34/41/30 52/40/29
f 20/31/20 26/30/19 53/53/42 40/26/15
f 34/41/30 16/23/12 23/22/11 54/52/41
f 76/63/52 84/64/53 62/65/54 58/66/55
f 43/32/21 20/31/20 40/26/15 55/25/14
f 74/67/56 88/68/57 64/69/58 57/70/59
f 22/18/7 14/44/33 38/35/24 56/19/8
f 13/71/60 41/72/61 57/70/59 21/73/62
f 57/70/59 64/69/58 37/74/63 21/73/62
f 51/58/47 36/51/40 32/43/32 48/42/31
f 19/75/64 27/76/65 58/66/55 28/77/66
f 58/66/55 62/65/54 39/78/67 28/77/66
f 69/39/28 43/32/21 55/25/14 75/79/68
f 15/80/69 24/81/70 59/62/51 25/82/71
f 59/62/51 63/61/50 33/83/72 25/82/71
f 26/30/19 34/41/30 54/52/41 53/53/42
f 17/84/73 30/85/74 60/57/46 31/86/75
f 60/57/46 61/56/45 35/87/76 31/86/75
f 71/46/35 44/37/26 51/58/47 79/88/77
f 35/87/76 61/56/45 41/72/61 13/71/60
f 39/78/67 62/65/54 30/85/74 17/84/73
f 33/83/72 63/61/50 27/76/65 19/75/64
f 37/74/63 64/69/58 24/81/70 15/80/69
f 40/26/15 53/53/42 50/49/38 29/27/16
f 30/85/74 72/89/78 80/54/43 60/57/46
f 72/89/78 71/46/35 79/88/77 80/54/43
f 27/76/65 70/90/79 76/63/52 58/66/55
f 70/90/79 69/39/28 75/79/68 76/63/52
f 56/19/8 45/21/10 87/33/22 73/20/9
f 73/20/9 87/33/22 88/68/57 74/67/56
f 55/25/14 47/28/17 83/45/34 75/79/68
f 75/79/68 83/45/34 84/64/53 76/63/52
f 52/40/29 46/29/18 85/38/27 77/47/36
f 77/47/36 85/38/27 86/60/49 78/59/48
f 51/58/47 48/42/31 81/48/37 79/88/77
f 79/88/77 81/48/37 82/55/44 80/54/43
f 61/56/45 82/55/44 65/91/80 41/72/61
f 82/55/44 81/48/37 66/17/6 65/91/80
f 24/81/70 68/92/81 78/59/48 59/62/51
f 68/92/81 67/34/23 77/47/36 78/59/48
f 62/65/54 84/64/53 72/89/78 30/85/74
f 84/64/53 83/45/34 71/46/35 72/89/78
f 63/61/50 86/60/49 70/90/79 27/76/65
f 86/60/49 85/38/27 69/39/28 70/90/79
f 64/69/58 88/68/57 68/92/81 24/81/70
f 88/68/57 87/33/22 67/34/23 68/92/81
f 41/72/61 65/91/80 74/67/56 57/70/59
f 65/91/80 66/17/6 73/20/9 74/67/56
f 94/93/82 93/94/83 99/95/84
f 96/96/85 93/94/83 95/97/86
f 99/95/84 93/94/83 97/98/87
f 95/97/86 93/94/83 94/93/82
f 92/99/88 96/96/88 95/97/89 98/100/89
f 89/101/90 94/93/90 99/95/91 90/102/91
f 90/102/91 99/95/91 97/98/92 91/103/92
f 98/100/89 95/97/89 94/93/90 89/101/90
f 91/103/92 97/98/92 96/96/88 92/99/88
f 97/98/87 93/94/83 96/96/85
f 105/104/93 104/105/94 110/106/95
f 107/107/96 104/105/94 106/108/97
f 110/106/95 104/105/94 108/109/98
f 106/108/97 104/105/94 105/104/93
f 103/110/99 107/107/99 106/108/100 109/111/100
f 100/112/101 105/104/101 110/106/102 101/113/102
f 101/113/102 110/106/102 108/109/103 102/114/103
f 109/111/100 106/108/100 105/104/101 100/112/101
f 102/114/103 108/109/103 107/107/99 103/110/99
f 108/109/98 104/105/94 107/107/96
f 116/115/104 115/116/105 121/117/106
f 118/118/107 115/116/105 117/119/108
f 121/117/106 115/116/105 119/120/109
f 117/119/108 115/116/105 116/115/104
f 114/121/110 118/118/110 117/119/111 120/122/111
f 111/123/112 116/115/112 121/117/113 112/124/113
f 112/124/113 121/117/113 119/120/114 113/125/114
f 120/122/111 117/119/111 116/115/112 111/123/112
f 113/125/114 119/120/114 118/118/110 114/121/110
f 119/120/109 115/116/105 118/118/107
f 127/126/115 126/127/116 132/128/117
f 129/129/118 126/127/116 128/130/119
f 132/128/117 126/127/116 130/131/120
f 128/130/119 126/127/116 127/126/115
f 125/132/121 129/129/121 128/130/122 131/133/122
f 122/134/123 127/126/123 132/128/124 123/135/124
f 123/135/124 132/128/124 130/131/125 124/136/125
f 131/133/122 128/130/122 127/126/123 122/134/123
f 124/136/125 130/131/125 129/129/121 125/132/121
f 130/131/120 126/127/116 129/129/118
f 138/137/126 137/138/127 143/139/128
f 140/140/129 137/138/127 139/141/130
f 143/139/128 137/138/127 141/142/131
f 139/141/130 137/138/127 138/137/126
f 136/143/132 140/140/132 139/141/133 142/144/133
f 133/145/134 138/137/134 143/139/135 134/146/135
f 134/146/135 143/139/135 141/142/136 135/147/136
f 142/144/133 139/141/133 138/137/134 133/145/134
f 135/147/136 141/142/136 140/140/132 136/143/132
f 141/142/131 137/138/127 140/140/129
f 149/148/137 148/149/138 154/150/139
f 151/151/140 148/149/138 150/152/141
f 154/150/139 148/149/138 152/153/142
f 150/152/141 148/149/138 149/148/137
f 147/154/143 151/151/143 150/152/144 153/155/144
f 144/156/145 149/148/145 154/150/146 145/157/146
f 145/157/146 154/150/146 152/153/147 146/158/147
f 153/155/144 150/152/144 149/148/145 144/156/145
f 146/158/147 152/153/147 151/151/143 147/154/143
f 152/153/142 148/149/138 151/151/140
f 160/159/148 159/160/149 165/161/150
f 162/162/151 159/160/149 161/163/152
f 165/161/150 159/160/149 163/164/153
f 161/163/152 159/160/149 160/159/148
f 158/165/154 162/162/154 161/163/155 164/166/155
f 155/167/156 160/159/156 165/161/157 156/168/157
f 156/168/157 165/161/157 163/164/158 157/169/158
f 164/166/155 161/163/155 160/159/156 155/167/156
f 157/169/158 163/164/158 162/162/154 158/165/154
f 163/164/153 159/160/149 162/162/151
f 171/170/159 170/171/160 176/172/161
f 173/173/162 170/171/160 172/174/163
f 176/172/161 170/171/160 174/175/164
f 172/174/163 170/171/160 171/170/159
f 169/176/165 173/173/165 172/174/166 175/177/166
f 166/178/167 171/170/167 176/172/168 167/179/168
f 167/179/168 176/172/168 174/175/169 168/180/169
f 175/177/166 172/174/166 171/170/167 166/178/167
f 168/180/169 174/175/169 173/173/165 169/176/165
f 174/175/164 170/171/160 173/173/162
f 182/181/170 181/182/171 187/183/172
f 184/184/173 181/182/171 183/185/174
f 187/183/172 181/182/171 185/186/175
f 183/185/174 181/182/171 182/181/170
f 180/187/176 184/184/176 183/185/177 186/188/177
f 177/189/178 182/181/178 187/183/179 178/190/179
f 178/190/179 187/183/179 185/186/180 179/191/180
f 186/188/177 183/185/177 182/181/178 177/189/178
f 179/191/180 185/186/180 184/184/176 180/187/176
f 185/186/175 181/182/171 184/184/173
f 193/192/181 192/193/182 198/194/183
f 195/195/184 192/193/182 194/196/185
f 198/194/183 192/193/182 196/197/186
f 194/196/185 192/193/182 193/192/181
f 191/198/187 195/195/187 194/196/188 197/199/188
f 188/200/189 193/192/189 198/194/190 189/201/190
f 189/201/190 198/194/190 196/197/191 190/202/191
f 197/199/188 194/196/188 193/192/189 188/200/189
f 190/202/191 196/197/191 195/195/187 191/198/187
f 196/197/186 192/193/182 195/195/184
