# Blender v3.1.2 OBJ File: 'farm.blend'
# www.blender.org
mtllib shared.mtl
o {mesh}Arch_Cube.020
v -44.795403 7.964775 5.974503
v -44.795403 7.964775 -5.974503
v -32.846394 7.964775 5.974503
v -32.846394 7.964775 -5.974503
v -48.271233 0.000000 9.450334
v -48.271233 0.000000 -9.450334
v -29.370564 0.000000 -9.450334
v -29.370564 0.000000 9.450334
v -47.298828 6.239303 8.477928
v -47.298828 6.239303 -8.477928
v -30.342970 6.239303 -8.477928
v -30.342970 6.239303 8.477928
v -46.719830 51.580929 5.954481
v -46.706615 51.457287 -5.998012
v -33.667747 52.238678 -5.951658
v -33.906780 52.326359 5.995061
v -48.655926 52.692348 7.687665
v -48.639324 52.536987 -7.745395
v -31.808100 53.544380 -7.685686
v -32.039295 53.691135 7.742663
v -46.692139 60.375763 5.263047
v -46.532688 60.285812 -5.310427
v -34.762478 61.171032 -5.258712
v -35.183613 61.214989 5.307939
v -49.097881 59.156590 7.684670
v -49.078403 58.974434 -7.749145
v -32.015110 60.172565 -7.678824
v -32.353352 60.323925 7.747447
v 1.303542 87.438293 5.255891
v 1.265342 87.284561 -5.312923
v 1.142957 97.567764 -5.298810
v 1.172222 97.704849 5.271312
v -12.838257 86.368134 5.357555
v -12.834838 86.149055 -5.219451
v -14.588838 96.319771 -5.218326
v -14.601623 96.519630 5.360058
v -23.733614 83.225311 5.379008
v -23.706715 82.973701 -5.202130
v -28.631958 92.093048 -5.208472
v -28.656002 92.317955 5.371913
v -31.357557 74.764175 5.492108
v -31.101629 74.605774 -5.342836
v -39.822136 80.717636 -5.349710
v -39.983059 80.879318 5.487305
v -34.595757 66.508537 5.903856
v -46.596592 66.001228 5.859789
v -46.393543 65.893837 -5.874155
v -34.169979 66.424576 -5.824759
v -46.532688 60.285812 -5.310427
v -46.692139 60.375763 5.263047
v -34.762478 61.171032 -5.258712
v -35.183613 61.214989 5.307939
v 46.712490 7.964774 -5.974505
v 46.712490 7.964774 5.974501
v 34.763481 7.964774 -5.974504
v 34.763481 7.964774 5.974503
v 50.188320 0.000000 -9.450336
v 50.188320 0.000000 9.450331
v 31.287653 0.000000 9.450332
v 31.287653 0.000000 -9.450336
v 49.215916 6.239303 -8.477931
v 49.215916 6.239303 8.477925
v 32.260056 6.239303 8.477927
v 32.260056 6.239303 -8.477930
v 47.843815 50.591362 -6.583199
v 47.962967 50.568085 5.344841
v 35.988544 50.398052 4.907886
v 35.862984 50.422813 -7.018958
v 49.583755 51.813934 -8.255177
v 49.737774 51.783974 7.146441
v 34.275734 51.549702 6.546489
v 34.110115 51.582336 -8.852967
v 47.510517 58.892525 -6.214154
v 47.648331 58.866322 4.335863
v 37.040596 58.679695 3.861713
v 36.895805 58.707958 -6.686862
v 49.823685 57.975460 -8.426397
v 50.008434 57.940334 6.970069
v 34.537254 57.683701 6.302611
v 34.338837 57.716732 -9.091157
v -8.430557 101.479591 8.442047
v -4.801850 84.771675 6.144327
v -4.826183 84.559464 -6.104821
v -8.430026 101.260284 -7.421040
v 15.578045 84.199417 -5.379691
v 15.628469 84.288696 5.303067
v 17.202385 94.455269 5.420927
v 17.170132 94.382072 -5.304249
v 26.842821 80.033684 -5.273106
v 26.895126 80.070305 5.523544
v 31.775192 89.156952 5.890336
v 31.757721 89.144356 -5.034356
v 34.389011 71.417145 -6.198452
v 34.520306 71.412880 4.719579
v 43.452827 77.850525 5.212277
v 43.317204 77.880005 -5.741993
v 36.649963 63.640022 -7.165743
v 47.861145 64.176804 -6.721799
v 48.029671 64.145775 4.984016
v 36.823742 63.612129 4.538807
v 47.648331 58.866322 4.335863
v 47.510517 58.892525 -6.214154
v 37.040596 58.679695 3.861713
v 36.895805 58.707958 -6.686862
v 7.625514 82.660736 6.028159
v 10.842495 102.216301 8.315088
v 7.555047 82.515350 -6.212184
v 10.774288 102.101448 -7.535549
vt 0.541008 0.632950
vt 0.548117 0.632950
vt 0.548117 0.632950
vt 0.541008 0.632950
vt 0.548117 0.632950
vt 0.541008 0.632950
vt 0.548117 0.632950
vt 0.541008 0.632950
vt 0.642694 0.633927
vt 0.642694 0.633927
vt 0.715464 0.633927
vt 0.715608 0.633927
vt 0.550083 0.632950
vt 0.550083 0.632950
vt 0.550083 0.632950
vt 0.550083 0.632950
vt 0.599781 0.632950
vt 0.600630 0.632950
vt 0.602185 0.632950
vt 0.601047 0.632950
vt 0.642694 0.633927
vt 0.642694 0.633927
vt 0.714383 0.633927
vt 0.714180 0.633927
vt 0.602018 0.632950
vt 0.600870 0.632950
vt 0.608205 0.632950
vt 0.609570 0.632950
vt 0.600530 0.632950
vt 0.599640 0.632950
vt 0.609743 0.632950
vt 0.608413 0.632950
vt 0.609802 0.632950
vt 0.609699 0.632950
vt 0.610708 0.632950
vt 0.610758 0.632950
vt 0.731883 0.633927
vt 0.732528 0.633927
vt 0.743022 0.633927
vt 0.750796 0.633927
vt 0.757494 0.633927
vt 0.770423 0.633927
vt 0.772010 0.633927
vt 0.758938 0.633927
vt 0.770677 0.633927
vt 0.757773 0.633927
vt 0.759133 0.633927
vt 0.772184 0.633927
vt 0.765050 0.633927
vt 0.765336 0.633927
vt 0.753778 0.633927
vt 0.753458 0.633927
vt 0.742821 0.633927
vt 0.750590 0.633927
vt 0.732421 0.633927
vt 0.731746 0.633927
vt 0.725743 0.633927
vt 0.724618 0.633927
vt 0.724732 0.633927
vt 0.725799 0.633927
vt 0.541008 0.632950
vt 0.548117 0.632950
vt 0.548117 0.632950
vt 0.541008 0.632950
vt 0.548117 0.632950
vt 0.541008 0.632950
vt 0.548117 0.632950
vt 0.541008 0.632950
vt 0.642694 0.633927
vt 0.642694 0.633927
vt 0.712439 0.633927
vt 0.712479 0.633927
vt 0.550083 0.632950
vt 0.550083 0.632950
vt 0.550083 0.632950
vt 0.550083 0.632950
vt 0.598653 0.632950
vt 0.598461 0.632950
vt 0.599782 0.632950
vt 0.600046 0.632950
vt 0.642694 0.633927
vt 0.642694 0.633927
vt 0.712756 0.633927
vt 0.712718 0.633927
vt 0.599745 0.632950
vt 0.600012 0.632950
vt 0.607027 0.632950
vt 0.606734 0.632950
vt 0.598433 0.632950
vt 0.598627 0.632950
vt 0.606772 0.632950
vt 0.607067 0.632950
vt 0.608112 0.632950
vt 0.608082 0.632950
vt 0.607869 0.632950
vt 0.607901 0.632950
vt 0.729564 0.633927
vt 0.728881 0.633927
vt 0.738768 0.633927
vt 0.746983 0.633927
vt 0.755130 0.633927
vt 0.768053 0.633927
vt 0.767960 0.633927
vt 0.755016 0.633927
vt 0.761318 0.633927
vt 0.761302 0.633927
vt 0.749721 0.633927
vt 0.749767 0.633927
vt 0.738762 0.633927
vt 0.746946 0.633927
vt 0.728846 0.633927
vt 0.729524 0.633927
vt 0.722576 0.633927
vt 0.722813 0.633927
vt 0.722847 0.633927
vt 0.722612 0.633927
vt 0.579859 0.645444
vt 0.598897 0.645444
vt 0.598647 0.645444
vt 0.579617 0.645444
vt 0.599605 0.645444
vt 0.577288 0.645444
vt 0.599736 0.645444
vt 0.577454 0.645444
vn -0.9881 0.1540 0.0000
vn 0.0000 0.1540 -0.9881
vn 0.9881 0.1540 0.0000
vn 0.0000 0.1540 0.9881
vn 0.9997 0.0212 0.0099
vn -0.5675 0.8234 0.0000
vn 0.0000 0.8234 -0.5675
vn 0.5675 0.8234 0.0000
vn 0.0000 0.8234 0.5675
vn 0.0463 -0.8135 0.5797
vn -0.9990 -0.0440 -0.0003
vn -0.0016 -0.0001 1.0000
vn 0.0019 0.0001 -1.0000
vn 0.0038 0.0004 -1.0000
vn 0.0513 -0.8233 -0.5652
vn 0.5823 -0.8128 0.0170
vn -0.4928 -0.8701 0.0083
vn 0.9991 0.0392 0.0181
vn -0.9977 -0.0681 -0.0004
vn -0.0035 -0.0003 1.0000
vn -0.4550 0.8904 -0.0124
vn -0.0632 0.9003 -0.4306
vn 0.3208 0.9471 0.0023
vn -0.0664 0.9131 0.4022
vn 0.0061 0.0313 0.9995
vn -0.0034 -0.0002 -1.0000
vn -0.0016 0.0044 -1.0000
vn -0.0036 0.0024 -1.0000
vn 0.0038 0.0002 1.0000
vn 0.0064 -0.0003 1.0000
vn -0.0771 0.9969 -0.0158
vn 0.0780 -0.9968 0.0174
vn -0.2873 0.9576 -0.0197
vn 0.2787 -0.9601 0.0218
vn -0.0007 -0.0004 -1.0000
vn 0.0081 0.0064 -0.9999
vn 0.0034 0.0032 1.0000
vn 0.0036 0.0034 1.0000
vn 0.0082 0.0065 -0.9999
vn 0.0058 0.0060 1.0000
vn -0.7116 0.7023 -0.0188
vn 0.7459 -0.6657 0.0226
vn 0.9331 -0.3582 0.0320
vn -0.9138 0.4057 -0.0196
vn 0.0129 0.0383 -0.9992
vn 0.0103 -0.1041 -0.9945
vn 0.0025 -0.1087 0.9941
vn -0.9996 0.0209 -0.0164
vn 0.9931 -0.1112 0.0384
vn -0.9996 0.0275 0.0053
vn 0.0332 -0.8266 -0.5618
vn 0.9996 -0.0280 -0.0050
vn 0.0183 -0.0199 -0.9996
vn -0.0184 0.0205 0.9996
vn -0.0415 0.0359 0.9985
vn -0.0093 -0.8237 0.5670
vn -0.5550 -0.8319 0.0042
vn 0.5702 -0.8215 -0.0073
vn -0.9991 0.0404 0.0119
vn 0.9991 -0.0417 -0.0111
vn 0.0413 -0.0348 -0.9985
vn 0.3671 0.9302 -0.0024
vn -0.0314 0.9350 0.3532
vn -0.3655 0.9308 0.0070
vn 0.0010 0.9241 -0.3821
vn 0.0118 0.0940 -0.9955
vn -0.0077 -0.0060 1.0000
vn -0.0015 0.0045 -1.0000
vn 0.1969 0.9804 -0.0103
vn -0.2127 -0.9770 0.0121
vn 0.3399 0.9404 -0.0045
vn -0.3488 -0.9372 0.0072
vn -0.0320 -0.0144 0.9994
vn 0.0182 0.0101 -0.9998
vn 0.0101 -0.0643 0.9979
vn -0.0202 0.0625 -0.9978
vn 0.6966 0.7174 -0.0043
vn -0.7510 -0.6603 0.0073
vn -0.9593 -0.2820 0.0125
vn 0.9486 0.3162 -0.0119
vn -0.0360 -0.0305 0.9989
vn -0.0375 -0.1280 0.9911
vn 0.0449 -0.0965 -0.9943
vn 0.9975 -0.0689 -0.0139
vn -0.9988 -0.0471 0.0142
vn -0.9773 -0.2117 0.0041
vn -0.0098 -0.0726 -0.9973
vn 0.9868 -0.1622 -0.0034
vn 0.0022 -0.1254 0.9921
vn -0.1650 -0.9862 0.0150
vn -0.0410 0.9991 -0.0104
usemtl Material.005
s 1
f 5/1/1 9/2/1 10/3/1 6/4/1
f 6/4/2 10/3/2 11/5/2 7/6/2
f 7/6/3 11/5/3 12/7/3 8/8/3
f 8/8/4 12/7/4 9/2/4 5/1/4
f 3/9/5 4/10/5 15/11/5 16/12/5
f 1/13/6 2/14/6 10/3/6 9/2/6
f 2/14/7 4/15/7 11/5/7 10/3/7
f 4/15/8 3/16/8 12/7/8 11/5/8
f 3/16/9 1/13/9 9/2/9 12/7/9
f 13/17/10 16/18/10 20/19/10 17/20/10
f 2/21/11 1/22/11 13/23/11 14/24/11
f 1/22/12 3/9/12 16/12/12 13/23/12
f 4/10/13 2/21/13 14/24/13 15/11/13
f 19/25/14 18/26/14 26/27/14 27/28/14
f 15/29/15 14/30/15 18/26/15 19/25/15
f 16/18/16 15/29/16 19/25/16 20/19/16
f 14/30/17 13/17/17 17/20/17 18/26/17
f 20/19/18 19/25/18 27/28/18 28/31/18
f 18/26/19 17/20/19 25/32/19 26/27/19
f 17/20/20 20/19/20 28/31/20 25/32/20
f 21/33/21 22/34/21 26/27/21 25/32/21
f 22/34/22 23/35/22 27/28/22 26/27/22
f 23/35/23 24/36/23 28/31/23 27/28/23
f 24/36/24 21/33/24 25/32/24 28/31/24
f 46/37/25 45/38/25 41/39/25 44/40/25
f 34/41/26 35/42/26 31/43/27 30/44/28
f 36/45/29 33/46/29 29/47/30 32/48/30
f 35/42/31 36/45/31 32/48/31 31/43/31
f 33/46/32 34/41/32 30/44/32 29/47/32
f 39/49/33 40/50/33 36/45/33 35/42/33
f 37/51/34 38/52/34 34/41/34 33/46/34
f 38/52/35 39/49/36 35/42/26 34/41/26
f 40/50/37 37/51/38 33/46/29 36/45/29
f 42/53/39 43/54/39 39/49/36 38/52/35
f 44/40/40 41/39/40 37/51/38 40/50/37
f 43/54/41 44/40/41 40/50/41 39/49/41
f 41/39/42 42/53/42 38/52/42 37/51/42
f 45/38/43 48/55/43 42/53/43 41/39/43
f 47/56/44 46/37/44 44/40/44 43/54/44
f 48/55/45 47/56/45 43/54/45 42/53/45
f 51/57/46 49/58/46 47/56/46 48/55/46
f 50/59/47 52/60/47 45/38/47 46/37/47
f 49/58/48 50/59/48 46/37/48 47/56/48
f 52/60/49 51/57/49 48/55/49 45/38/49
f 57/61/3 61/62/3 62/63/3 58/64/3
f 58/64/4 62/63/4 63/65/4 59/66/4
f 59/66/1 63/65/1 64/67/1 60/68/1
f 60/68/2 64/67/2 61/62/2 57/61/2
f 55/69/50 56/70/50 67/71/50 68/72/50
f 53/73/8 54/74/8 62/63/8 61/62/8
f 54/74/9 56/75/9 63/65/9 62/63/9
f 56/75/6 55/76/6 64/67/6 63/65/6
f 55/76/7 53/73/7 61/62/7 64/67/7
f 65/77/51 68/78/51 72/79/51 69/80/51
f 54/81/52 53/82/52 65/83/52 66/84/52
f 53/82/53 55/69/53 68/72/53 65/83/53
f 56/70/54 54/81/54 66/84/54 67/71/54
f 71/85/55 70/86/55 78/87/55 79/88/55
f 67/89/56 66/90/56 70/86/56 71/85/56
f 68/78/57 67/89/57 71/85/57 72/79/57
f 66/90/58 65/77/58 69/80/58 70/86/58
f 72/79/59 71/85/59 79/88/59 80/91/59
f 70/86/60 69/80/60 77/92/60 78/87/60
f 69/80/61 72/79/61 80/91/61 77/92/61
f 73/93/62 74/94/62 78/87/62 77/92/62
f 74/94/63 75/95/63 79/88/63 78/87/63
f 75/95/64 76/96/64 80/91/64 79/88/64
f 76/96/65 73/93/65 77/92/65 80/91/65
f 98/97/66 97/98/66 93/99/66 96/100/66
f 86/101/67 87/102/67 32/48/67 29/47/67
f 88/103/68 85/104/68 30/44/28 31/43/27
f 87/102/69 88/103/69 31/43/69 32/48/69
f 85/104/70 86/101/70 29/47/70 30/44/70
f 91/105/71 92/106/71 88/103/71 87/102/71
f 89/107/72 90/108/72 86/101/72 85/104/72
f 90/108/73 91/105/73 87/102/73 86/101/73
f 92/106/74 89/107/74 85/104/74 88/103/74
f 94/109/75 95/110/75 91/105/75 90/108/75
f 96/100/76 93/99/76 89/107/76 92/106/76
f 95/110/77 96/100/77 92/106/77 91/105/77
f 93/99/78 94/109/78 90/108/78 89/107/78
f 97/98/79 100/111/79 94/109/79 93/99/79
f 99/112/80 98/97/80 96/100/80 95/110/80
f 100/111/81 99/112/81 95/110/81 94/109/81
f 103/113/82 101/114/82 99/112/82 100/111/82
f 102/115/83 104/116/83 97/98/83 98/97/83
f 101/114/84 102/115/84 98/97/84 99/112/84
f 104/116/85 103/113/85 100/111/85 97/98/85
f 82/117/86 81/118/86 84/119/86 83/120/86
f 83/120/87 84/119/87 108/121/87 107/122/87
f 107/122/88 108/121/88 106/123/88 105/124/88
f 105/124/89 106/123/89 81/118/89 82/117/89
f 83/120/90 107/122/90 105/124/90 82/117/90
f 108/121/91 84/119/91 81/118/91 106/123/91
