# Blender v3.1.2 OBJ File: 'farm.blend'
# www.blender.org
mtllib shared.mtl
o {mesh}Boulder_Boulder.002
v -26.884626 51.419739 25.388750
v -26.730843 30.266922 -26.606424
v 30.266928 30.266922 30.266928
v 0.000000 40.843330 -15.133464
v -37.893192 -0.000000 37.726143
v -40.489662 -0.000000 -30.266928
v 30.266928 -0.000000 -30.266928
v 23.311617 -0.000000 27.341339
v 0.000000 30.266922 -30.266928
v 0.000000 51.419739 30.266928
v 3.625286 -0.000000 52.445885
v 0.000000 -0.000000 -46.402763
v -28.447443 51.419739 5.986007
v 14.877709 30.266922 -2.557803
v 30.266928 -0.000000 0.000000
v -48.396187 -0.000000 0.000000
v 0.000000 51.419739 0.000000
v -30.266928 30.499939 -15.133464
v -40.489662 -0.000000 -15.133464
v -37.236217 26.487152 38.110203
v 30.266928 -0.000000 -15.133464
v -36.711086 14.665260 -31.675182
v -15.133464 51.419739 30.266928
v -17.133953 -0.000000 45.086014
v -15.133464 30.266922 -30.266928
v -20.244831 -0.000000 -46.402763
v -15.133464 51.419739 0.000000
v -15.133464 35.671635 -15.133464
v 17.772720 20.576208 -25.263170
v 30.801123 14.665260 32.306343
v 2.883232 26.487152 46.336777
v 0.857130 14.665260 -42.738964
v 26.087582 14.665260 -1.319291
v -43.106140 26.487152 0.110214
v 26.087582 14.665260 -9.777087
v -38.687332 14.795488 -16.805374
v -18.915102 14.665260 -42.738964
v -17.176495 26.487152 42.223492
vt 0.589111 0.629231
vt 0.622958 0.629231
vt 0.622456 0.629231
vt 0.588830 0.629231
vt 0.588830 0.629231
vt 0.622456 0.629231
vt 0.645251 0.629231
vt 0.601570 0.629231
vt 0.588830 0.629231
vt 0.622456 0.629231
vt 0.622456 0.629231
vt 0.588830 0.629231
vt 0.614310 0.629231
vt 0.668046 0.629231
vt 0.668046 0.629231
vt 0.614310 0.629231
vt 0.668046 0.629231
vt 0.668046 0.629231
vt 0.668046 0.629231
vt 0.668046 0.629231
vt 0.614310 0.629231
vt 0.588830 0.629231
vt 0.622456 0.629231
vt 0.634105 0.629231
vt 0.588830 0.629231
vt 0.614310 0.629231
vt 0.557223 0.629231
vt 0.557223 0.629231
vt 0.557223 0.629231
vt 0.557223 0.629231
vt 0.557223 0.629231
vt 0.557223 0.629231
vt 0.557223 0.629231
vt 0.557223 0.629231
vt 0.557223 0.629231
vt 0.557223 0.629231
vt 0.557223 0.629231
vt 0.557223 0.629231
vn -0.9057 0.3193 -0.2790
vn -0.7758 0.5168 -0.3620
vn -0.8303 0.5270 -0.1810
vn -0.9267 0.3549 -0.1239
vn 0.5166 0.4523 -0.7270
vn 0.5092 0.6324 -0.5838
vn 0.5173 0.5032 -0.6922
vn 0.9574 0.2803 -0.0690
vn 0.7644 0.6069 -0.2178
vn 0.9090 0.3132 -0.2750
vn -0.2243 0.2987 0.9276
vn -0.1711 0.4831 0.8587
vn -0.2389 0.4778 0.8454
vn 0.0000 1.0000 0.0000
vn 0.6988 0.6699 -0.2509
vn 0.6697 0.7245 -0.1633
vn 0.4224 0.3992 0.8138
vn -0.1881 0.6095 -0.7701
vn -0.1767 0.6111 -0.7716
vn 0.0000 0.6244 -0.7811
vn 0.7278 0.6108 -0.3118
vn -0.1985 0.8294 -0.5223
vn -0.2672 0.6842 -0.6786
vn -0.2040 0.7157 -0.6679
vn 0.8713 0.4831 -0.0862
vn -0.9491 0.2642 0.1714
vn -0.8817 0.4579 0.1142
vn -0.9481 0.2685 0.1702
vn 0.7879 0.5895 -0.1783
vn -0.1804 0.9153 -0.3602
vn -0.2151 0.9492 -0.2297
vn -0.5740 0.1617 -0.8027
vn -0.7980 0.3887 -0.4606
vn -0.7230 0.4993 -0.4775
vn -0.1494 0.8744 -0.4617
vn -0.1383 0.8091 -0.5712
vn -0.1279 0.7483 -0.6509
vn -0.3669 0.5735 -0.7324
vn -0.1954 0.3120 0.9297
vn -0.1014 0.4861 0.8680
vn -0.2672 0.1571 0.9507
vn -0.2691 0.1040 0.9575
vn -0.9058 0.1405 -0.3996
vn -0.9548 0.1606 -0.2502
vn 0.8761 0.4584 -0.1494
vn 0.9167 0.3890 -0.0915
vn -0.9718 0.1071 0.2101
vn 0.9971 0.0737 0.0192
vn 0.0000 0.2424 -0.9702
vn 0.6210 -0.0802 0.7797
vn -0.2703 0.0481 0.9616
vn 0.9925 -0.1165 0.0365
vn 0.5108 0.3606 -0.7804
vn -0.9816 0.1791 -0.0654
usemtl Material.005
s 1
f 36/1/1 18/2/2 2/3/3 22/4/4
f 32/5/5 9/6/6 4/7/6 29/8/7
f 33/9/8 14/10/9 3/11/10 30/12/10
f 38/13/11 23/14/12 1/15/13 20/16/13
f 27/17/14 13/18/14 1/15/14 23/14/14
f 14/10/9 17/19/15 10/20/16 3/11/16
f 30/12/17 3/11/17 10/20/17 31/21/17
f 37/22/18 25/23/19 9/6/20 32/5/20
f 14/10/9 4/7/21 17/19/15
f 28/24/22 18/2/23 13/18/23 27/17/24
f 35/25/25 14/10/9 33/9/8
f 20/16/26 1/15/27 13/18/27 34/26/28
f 29/8/29 4/7/21 14/10/9 35/25/25
f 25/23/30 2/3/31 18/2/31 28/24/22
f 6/27/32 22/4/32 37/22/32 26/28/32
f 34/26/33 13/18/34 18/2/2 36/1/1
f 9/6/35 25/23/30 28/24/22 4/7/36
f 4/7/36 28/24/22 27/17/24 17/19/37
f 22/4/38 2/3/38 25/23/19 37/22/18
f 17/19/14 27/17/14 23/14/14 10/20/14
f 31/21/39 10/20/40 23/14/12 38/13/11
f 11/29/41 31/21/39 38/13/11 24/30/42
f 16/31/43 34/26/33 36/1/1 19/32/44
f 7/33/45 29/8/29 35/25/25 21/34/46
f 5/35/47 20/16/26 34/26/28 16/31/47
f 21/34/46 35/25/25 33/9/8 15/36/48
f 26/28/49 37/22/49 32/5/49 12/37/49
f 8/38/50 30/12/50 31/21/50 11/29/50
f 24/30/42 38/13/11 20/16/51 5/35/51
f 15/36/48 33/9/8 30/12/52 8/38/52
f 12/37/53 32/5/5 29/8/7 7/33/53
f 19/32/44 36/1/1 22/4/4 6/27/54
