# Blender v3.1.2 OBJ File: 'farm.blend'
# www.blender.org
mtllib shared.mtl
o {mesh}Hay_Pile_Sphere.009
v -0.176615 66.107819 -9.317649
v -0.176615 59.714222 -18.430820
v -0.176615 50.042801 -26.382273
v -0.162240 37.298737 -32.701683
v -0.168426 20.774612 -36.614460
v 4.702100 66.064110 -7.993569
v 9.265759 59.714222 -15.900743
v 13.135994 49.964485 -22.579769
v 16.237896 37.338963 -27.941624
v 18.236938 20.928202 -31.385317
v 21.893103 -0.044414 -37.952988
v 8.285820 66.107819 -4.431860
v 16.178055 59.714222 -8.988443
v 23.022573 50.042801 -12.966995
v 27.737757 37.298737 -16.883581
v 31.734869 20.825478 -18.000225
v 34.844643 0.000000 -21.031242
v 9.594964 66.107819 0.453928
v 18.689049 59.714222 0.433916
v 25.807663 50.042801 -0.384256
v 32.181435 37.298737 -0.384253
v 35.986881 20.823719 -0.351853
v 44.178082 -0.050463 -0.326436
v 8.284465 66.107819 5.332272
v 15.251271 59.617390 9.022619
v 22.001097 49.951031 12.926756
v 27.732143 37.298737 16.220732
v 31.105867 20.774723 18.184944
v 35.509720 -0.789001 20.711119
v 4.709182 66.107819 8.907557
v 8.413837 59.714222 15.970418
v 12.389564 50.042801 22.856569
v 15.616247 37.298737 28.322065
v 17.489710 20.823853 31.685785
v 20.122047 -0.789001 35.994091
v -0.175309 66.064072 10.211490
v -0.978648 59.608780 18.397852
v -0.935398 49.962982 26.201088
v -0.004182 37.338932 31.690535
v 0.703652 20.791636 36.078064
v 0.809967 -0.789003 45.186035
v -5.048980 66.064064 8.895798
v -8.935041 59.564125 15.440901
v -12.977255 50.042801 22.417524
v -15.985250 37.332630 27.659304
v -17.972317 20.558205 31.474388
v -20.309101 -0.789003 35.553123
v -0.176617 68.341919 0.453930
v -8.620817 66.107819 5.313056
v -15.827712 59.628151 8.644230
v -22.773911 50.042801 12.620871
v -27.666393 37.332104 15.538907
v -31.678465 20.558205 17.767122
v -38.031437 -0.789003 20.235882
v -9.942601 66.107819 0.448342
v -18.051165 59.714222 0.301190
v -25.987551 50.042801 0.325853
v -32.005352 37.332623 0.311981
v -36.073540 20.860451 -0.797236
v -40.116562 -0.124136 -0.006312
v -8.623255 66.064217 -4.420731
v -16.493282 59.714222 -8.997772
v -22.392181 50.042801 -13.092247
v -27.623129 37.332661 -16.093134
v -31.123554 20.848824 -18.089802
v -34.572929 -0.106020 -20.627010
v -5.052710 66.064102 -7.991208
v -9.599401 59.714222 -15.898430
v -12.494687 49.966614 -22.679853
v -15.791456 37.298737 -28.364300
v -18.921432 20.558210 -32.013062
v -22.485199 -0.789001 -37.791924
v -0.142478 -0.646402 -41.409161
v 20.167183 6.302925 -34.963894
v 31.773096 6.398383 -19.234751
v 40.677944 6.314881 -0.329298
v 32.381294 5.733589 18.904924
v 18.234385 5.854252 32.844398
v 0.830254 5.733586 41.589294
v -18.434252 5.855058 32.326481
v -34.792419 5.855016 18.367147
v -36.540886 6.316248 -0.004956
v -31.496683 6.330248 -18.844650
v -20.705193 5.853358 -34.628605
v -0.160873 5.733589 -38.047680
vt 0.351392 0.123731
vt 0.338128 0.123731
vt 0.338128 0.123731
vt 0.351392 0.123731
vt 0.400466 0.123731
vt 0.391186 0.123731
vt 0.391186 0.123731
vt 0.400466 0.123731
vt 0.364657 0.123731
vt 0.364657 0.123731
vt 0.377922 0.123731
vt 0.377922 0.123731
vt 0.324863 0.123731
vt 0.364657 0.123731
vt 0.377922 0.123731
vt 0.338128 0.123731
vt 0.391186 0.123731
vt 0.351392 0.123731
vt 0.400466 0.123731
vt 0.391186 0.123731
vt 0.400466 0.123731
vt 0.351392 0.123731
vt 0.364657 0.123731
vt 0.377922 0.123731
vt 0.338128 0.123731
vt 0.377922 0.123731
vt 0.391186 0.123731
vt 0.338128 0.123731
vt 0.351392 0.123731
vt 0.400466 0.123731
vt 0.364657 0.123731
vt 0.364657 0.123731
vt 0.377922 0.123731
vt 0.338128 0.123731
vt 0.391186 0.123731
vt 0.351392 0.123731
vt 0.400466 0.123731
vt 0.391186 0.123731
vt 0.400466 0.123731
vt 0.351392 0.123731
vt 0.364657 0.123731
vt 0.377922 0.123731
vt 0.338128 0.123731
vt 0.338128 0.123731
vt 0.377922 0.123731
vt 0.391186 0.123731
vt 0.351392 0.123731
vt 0.400466 0.123731
vt 0.364657 0.123731
vt 0.364657 0.123731
vt 0.377922 0.123731
vt 0.338128 0.123731
vt 0.391186 0.123731
vt 0.351392 0.123731
vt 0.400466 0.123731
vt 0.338128 0.123731
vt 0.351392 0.123731
vt 0.391186 0.123731
vt 0.400466 0.123731
vt 0.364657 0.123731
vt 0.377922 0.123731
vt 0.338128 0.123731
vt 0.377922 0.123731
vt 0.391186 0.123731
vt 0.351392 0.123731
vt 0.400466 0.123731
vt 0.364657 0.123731
vt 0.351392 0.123731
vt 0.364657 0.123731
vt 0.377922 0.123731
vt 0.338128 0.123731
vt 0.391186 0.123731
vt 0.400466 0.123731
vt 0.404451 0.123731
vt 0.404451 0.123731
vt 0.404451 0.123731
vt 0.404451 0.123731
vt 0.404451 0.123731
vt 0.404451 0.123731
vt 0.404451 0.123731
vt 0.404451 0.123731
vt 0.404451 0.123731
vt 0.404451 0.123731
vt 0.404451 0.123731
vt 0.404451 0.123731
vn -0.0021 0.7196 -0.6944
vn -0.0002 0.9024 -0.4308
vn 0.2167 0.9012 -0.3753
vn 0.3479 0.7187 -0.6020
vn -0.0047 0.3230 -0.9464
vn 0.0064 0.2002 -0.9797
vn 0.4964 0.2022 -0.8442
vn 0.4751 0.3503 -0.8072
vn -0.0013 0.5331 -0.8460
vn 0.4249 0.5290 -0.7346
vn 0.0063 0.3401 -0.9404
vn 0.4733 0.3324 -0.8158
vn -0.0012 1.0000 -0.0002
vn 0.7414 0.5256 -0.4172
vn 0.8117 0.3323 -0.4803
vn 0.3725 0.9021 -0.2180
vn 0.8523 0.1983 -0.4840
vn 0.6046 0.7179 -0.3450
vn 0.8128 0.3232 -0.4847
vn 0.9774 0.2114 0.0007
vn 0.9313 0.3643 -0.0059
vn 0.7082 0.7050 0.0386
vn 0.8519 0.5235 0.0175
vn 0.9426 0.3337 0.0078
vn 0.4385 0.8986 0.0177
vn 0.8152 0.3375 0.4707
vn 0.8395 0.1865 0.5103
vn 0.3937 0.8856 0.2463
vn 0.6131 0.6948 0.3759
vn 0.7882 0.3247 0.5228
vn 0.7310 0.5296 0.4304
vn 0.4161 0.5337 0.7362
vn 0.4599 0.3370 0.8215
vn 0.2328 0.8848 0.4037
vn 0.5068 0.1962 0.8394
vn 0.3547 0.7014 0.6182
vn 0.5318 0.3238 0.7825
vn 0.0035 0.2331 0.9725
vn 0.0088 0.3820 0.9241
vn -0.0335 0.7026 0.7108
vn -0.0299 0.5203 0.8535
vn -0.0107 0.3292 0.9442
vn -0.0127 0.8850 0.4655
vn -0.2458 0.8791 0.4083
vn -0.4744 0.3294 0.8164
vn -0.4985 0.2059 0.8421
vn -0.3751 0.6990 0.6089
vn -0.5025 0.3281 0.7999
vn -0.4391 0.5213 0.7318
vn -0.7380 0.5244 0.4247
vn -0.8194 0.3308 0.4682
vn -0.4013 0.8826 0.2448
vn -0.8559 0.1877 0.4819
vn -0.6158 0.7025 0.3566
vn -0.8333 0.3375 0.4377
vn -0.4559 0.8900 0.0126
vn -0.7097 0.7043 0.0165
vn -0.9862 0.1607 -0.0388
vn -0.9549 0.2914 -0.0576
vn -0.8552 0.5182 0.0078
vn -0.9436 0.3312 0.0030
vn -0.3839 0.8992 -0.2101
vn -0.8185 0.3415 -0.4620
vn -0.8733 0.1646 -0.4586
vn -0.6237 0.7040 -0.3397
vn -0.8606 0.2880 -0.4201
vn -0.7424 0.5164 -0.4268
vn -0.3596 0.7098 -0.6057
vn -0.4287 0.5241 -0.7358
vn -0.4763 0.3474 -0.8077
vn -0.2191 0.9015 -0.3733
vn -0.5135 0.1978 -0.8350
vn -0.4992 0.3385 -0.7976
vn -0.4523 0.4899 -0.7453
vn -0.0114 0.4618 -0.8869
vn -0.7937 0.4730 -0.3825
vn -0.8765 0.4778 -0.0587
vn -0.7612 0.5001 0.4128
vn -0.4751 0.4759 0.7401
vn 0.0060 0.5039 0.8637
vn 0.5070 0.4726 0.7209
vn 0.7263 0.4757 0.4962
vn 0.8659 0.5002 -0.0002
vn 0.7589 0.4681 -0.4528
vn 0.4368 0.4903 -0.7542
usemtl Material.005
s 1
f 2/1/1 1/2/2 6/3/3 7/4/4
f 85/5/5 5/6/6 10/7/7 74/8/8
f 3/9/9 2/1/1 7/4/4 8/10/10
f 4/11/11 3/9/9 8/10/10 9/12/12
f 1/2/2 48/13/13 6/3/3
f 5/6/6 4/11/11 9/12/12 10/7/7
f 9/12/12 8/10/10 14/14/14 15/15/15
f 6/3/3 48/13/13 12/16/16
f 10/7/7 9/12/12 15/15/15 16/17/17
f 7/4/4 6/3/3 12/16/16 13/18/18
f 74/8/8 10/7/7 16/17/17 75/19/19
f 8/10/10 7/4/4 13/18/18 14/14/14
f 75/19/19 16/17/17 22/20/20 76/21/21
f 14/14/14 13/18/18 19/22/22 20/23/23
f 15/15/15 14/14/14 20/23/23 21/24/24
f 12/16/16 48/13/13 18/25/25
f 16/17/17 15/15/15 21/24/24 22/20/20
f 13/18/18 12/16/16 18/25/25 19/22/22
f 22/20/20 21/24/24 27/26/26 28/27/27
f 19/22/22 18/25/25 24/28/28 25/29/29
f 76/21/21 22/20/20 28/27/27 77/30/30
f 20/23/23 19/22/22 25/29/29 26/31/31
f 21/24/24 20/23/23 26/31/31 27/26/26
f 18/25/25 48/13/13 24/28/28
f 27/26/26 26/31/31 32/32/32 33/33/33
f 24/28/28 48/13/13 30/34/34
f 28/27/27 27/26/26 33/33/33 34/35/35
f 25/29/29 24/28/28 30/34/34 31/36/36
f 77/30/30 28/27/27 34/35/35 78/37/37
f 26/31/31 25/29/29 31/36/36 32/32/32
f 78/37/37 34/35/35 40/38/38 79/39/39
f 32/32/32 31/36/36 37/40/40 38/41/41
f 33/33/33 32/32/32 38/41/41 39/42/42
f 30/34/34 48/13/13 36/43/43
f 34/35/35 33/33/33 39/42/42 40/38/38
f 31/36/36 30/34/34 36/43/43 37/40/40
f 36/43/43 48/13/13 42/44/44
f 40/38/38 39/42/42 45/45/45 46/46/46
f 37/40/40 36/43/43 42/44/44 43/47/47
f 79/39/39 40/38/38 46/46/46 80/48/48
f 38/41/41 37/40/40 43/47/47 44/49/49
f 39/42/42 38/41/41 44/49/49 45/45/45
f 45/45/45 44/49/49 51/50/50 52/51/51
f 42/44/44 48/13/13 49/52/52
f 46/46/46 45/45/45 52/51/51 53/53/53
f 43/47/47 42/44/44 49/52/52 50/54/54
f 80/48/48 46/46/46 53/53/53 81/55/55
f 44/49/49 43/47/47 50/54/54 51/50/50
f 50/54/54 49/52/52 55/56/56 56/57/57
f 81/55/55 53/53/53 59/58/58 82/59/59
f 51/50/50 50/54/54 56/57/57 57/60/60
f 52/51/51 51/50/50 57/60/60 58/61/61
f 49/52/52 48/13/13 55/56/56
f 53/53/53 52/51/51 58/61/61 59/58/58
f 55/56/56 48/13/13 61/62/62
f 59/58/58 58/61/61 64/63/63 65/64/64
f 56/57/57 55/56/56 61/62/62 62/65/65
f 82/59/59 59/58/58 65/64/64 83/66/66
f 57/60/60 56/57/57 62/65/65 63/67/67
f 58/61/61 57/60/60 63/67/67 64/63/63
f 63/67/67 62/65/65 68/68/68 69/69/69
f 64/63/63 63/67/67 69/69/69 70/70/70
f 61/62/62 48/13/13 67/71/71
f 65/64/64 64/63/63 70/70/70 71/72/72
f 62/65/65 61/62/62 67/71/71 68/68/68
f 83/66/66 65/64/64 71/72/72 84/73/73
f 68/68/68 67/71/71 1/2/2 2/1/1
f 84/73/73 71/72/72 5/6/6 85/5/5
f 69/69/69 68/68/68 2/1/1 3/9/9
f 70/70/70 69/69/69 3/9/9 4/11/11
f 67/71/71 48/13/13 1/2/2
f 71/72/72 70/70/70 4/11/11 5/6/6
f 72/74/74 84/73/73 85/5/5 73/75/75
f 66/76/76 83/66/66 84/73/73 72/74/74
f 60/77/77 82/59/59 83/66/66 66/76/76
f 54/78/78 81/55/55 82/59/59 60/77/77
f 47/79/79 80/48/48 81/55/55 54/78/78
f 41/80/80 79/39/39 80/48/48 47/79/79
f 35/81/81 78/37/37 79/39/39 41/80/80
f 29/82/82 77/30/30 78/37/37 35/81/81
f 23/83/83 76/21/21 77/30/30 29/82/82
f 17/84/84 75/19/19 76/21/21 23/83/83
f 11/85/85 74/8/8 75/19/19 17/84/84
f 73/75/75 85/5/5 74/8/8 11/85/85
