# Blender v3.1.2 OBJ File: 'farm.blend'
# www.blender.org
mtllib shared.mtl
o {mesh}Pillar_Cube.021
v -6.295837 7.964767 5.974503
v -6.295837 7.964767 -5.974503
v 5.653171 7.964767 5.974503
v 5.653171 7.964767 -5.974503
v -9.771669 -0.000006 9.450334
v -9.771669 -0.000006 -9.450334
v 9.129003 -0.000006 -9.450334
v 9.129003 -0.000006 9.450334
v -8.799262 6.239294 8.477928
v -8.799262 6.239294 -8.477928
v 8.156597 6.239294 -8.477928
v 8.156597 6.239294 8.477928
v -6.295837 50.927681 5.974503
v -6.295837 50.927681 -5.974503
v 5.653171 50.927681 -5.974503
v 5.653171 50.927681 5.974503
v -8.035669 52.124088 7.714339
v -8.035669 52.124088 -7.714339
v 7.393004 52.124088 -7.714339
v 7.393004 52.124088 7.714339
v -5.608352 59.402794 5.287022
v -5.608352 59.402794 -5.287022
v 4.965686 59.402794 -5.287022
v 4.965686 59.402794 5.287022
v -8.035669 58.385551 7.714339
v -8.035669 58.385551 -7.714339
v 7.393004 58.385551 -7.714339
v 7.393004 58.385551 7.714339
v -4.043226 62.767570 3.721890
v -4.043226 62.767570 -3.721890
v 3.400560 62.767570 -3.721890
v 3.400560 62.767570 3.721890
vt 0.574211 0.629044
vt 0.581320 0.629044
vt 0.581320 0.629044
vt 0.574211 0.629044
vt 0.581320 0.629044
vt 0.574211 0.629044
vt 0.581320 0.629044
vt 0.574211 0.629044
vt 0.703403 0.630997
vt 0.703403 0.630997
vt 0.752357 0.630997
vt 0.752357 0.630997
vt 0.583286 0.629044
vt 0.583286 0.629044
vt 0.583286 0.629044
vt 0.583286 0.629044
vt 0.632239 0.629044
vt 0.632239 0.629044
vt 0.633603 0.629044
vt 0.633603 0.629044
vt 0.703403 0.630997
vt 0.703403 0.630997
vt 0.752357 0.630997
vt 0.752357 0.630997
vt 0.633603 0.629044
vt 0.633603 0.629044
vt 0.640737 0.629044
vt 0.640737 0.629044
vt 0.632239 0.629044
vt 0.632239 0.629044
vt 0.762013 0.630997
vt 0.762013 0.630997
vt 0.765847 0.630997
vt 0.765847 0.630997
vt 0.640737 0.629044
vt 0.640737 0.629044
vt 0.641896 0.629044
vt 0.641896 0.629044
vt 0.641896 0.629044
vt 0.641896 0.629044
vt 0.765847 0.630997
vt 0.765847 0.630997
vt 0.762013 0.630997
vt 0.762013 0.630997
vn -0.9881 0.1540 0.0000
vn 0.0000 0.1540 -0.9881
vn 0.9881 0.1540 0.0000
vn 0.0000 0.1540 0.9881
vn 1.0000 0.0000 0.0000
vn -0.5675 0.8234 0.0000
vn 0.0000 0.8234 -0.5675
vn 0.5675 0.8234 0.0000
vn 0.0000 0.8234 0.5675
vn 0.0000 -0.8240 0.5666
vn -1.0000 0.0000 0.0000
vn 0.0000 0.0000 1.0000
vn 0.0000 0.0000 -1.0000
vn 0.0000 -0.8240 -0.5666
vn 0.5666 -0.8240 0.0000
vn -0.5666 -0.8240 0.0000
vn 0.0000 0.4218 0.9067
vn -0.3865 0.9223 0.0000
vn 0.0000 0.9223 -0.3865
vn 0.3865 0.9223 0.0000
vn 0.0000 0.9223 0.3865
vn 0.0000 1.0000 0.0000
vn 0.0000 0.4218 -0.9067
vn 0.9067 0.4218 0.0000
vn -0.9067 0.4218 0.0000
usemtl Material.005
s 1
f 5/1/1 9/2/1 10/3/1 6/4/1
f 6/4/2 10/3/2 11/5/2 7/6/2
f 7/6/3 11/5/3 12/7/3 8/8/3
f 8/8/4 12/7/4 9/2/4 5/1/4
f 3/9/5 4/10/5 15/11/5 16/12/5
f 1/13/6 2/14/6 10/3/6 9/2/6
f 2/14/7 4/15/7 11/5/7 10/3/7
f 4/15/8 3/16/8 12/7/8 11/5/8
f 3/16/9 1/13/9 9/2/9 12/7/9
f 13/17/10 16/18/10 20/19/10 17/20/10
f 2/21/11 1/22/11 13/23/11 14/24/11
f 1/22/12 3/9/12 16/12/12 13/23/12
f 4/10/13 2/21/13 14/24/13 15/11/13
f 19/25/13 18/26/13 26/27/13 27/28/13
f 15/29/14 14/30/14 18/26/14 19/25/14
f 16/18/15 15/29/15 19/25/15 20/19/15
f 14/30/16 13/17/16 17/20/16 18/26/16
f 21/31/17 24/32/17 32/33/17 29/34/17
f 20/19/5 19/25/5 27/28/5 28/35/5
f 18/26/11 17/20/11 25/36/11 26/27/11
f 17/20/12 20/19/12 28/35/12 25/36/12
f 21/37/18 22/38/18 26/27/18 25/36/18
f 22/38/19 23/39/19 27/28/19 26/27/19
f 23/39/20 24/40/20 28/35/20 27/28/20
f 24/40/21 21/37/21 25/36/21 28/35/21
f 31/41/22 30/42/22 29/34/22 32/33/22
f 23/43/23 22/44/23 30/42/23 31/41/23
f 24/32/24 23/43/24 31/41/24 32/33/24
f 22/44/25 21/31/25 29/34/25 30/42/25
