# Blender v3.1.2 OBJ File: 'farm.blend'
# www.blender.org
mtllib shared.mtl
o {mesh}StonePath_Cylinder.034
v 17.628735 0.029220 22.404778
v 17.628735 4.069632 22.404778
v 29.694302 0.029220 29.370836
v 29.694302 4.069632 29.370836
v 29.694298 0.029220 43.302948
v 29.694298 4.069632 43.302948
v 17.628735 0.029220 50.268997
v 17.628735 4.069632 50.268997
v 5.563171 0.029220 43.302944
v 5.563171 4.069632 43.302944
v 5.563171 0.029220 29.370836
v 5.563171 4.069632 29.370836
v -20.181236 0.029223 -50.019489
v -20.181236 4.069635 -50.019489
v -9.820436 0.029223 -40.705128
v -9.820436 4.069635 -40.705128
v -12.706512 0.029223 -27.075218
v -12.706512 4.069635 -27.075218
v -25.953398 0.029223 -22.759689
v -25.953398 4.069635 -22.759689
v -36.314198 0.029223 -32.074062
v -36.314198 4.069635 -32.074062
v -33.428123 0.029223 -45.703960
v -33.428123 4.069635 -45.703960
v 14.171894 0.029223 -15.979639
v 14.171894 4.069635 -15.979639
v 0.240265 0.029223 -16.096010
v 0.240265 4.069635 -16.096010
v -6.624766 0.029223 -28.219339
v -6.624766 4.069635 -28.219339
v 0.441827 0.029223 -40.226295
v 0.441827 4.069635 -40.226295
v 14.373454 0.029223 -40.109928
v 14.373454 4.069635 -40.109928
v 21.238487 0.029223 -27.986599
v 21.238487 4.069635 -27.986599
v -4.600470 0.029223 -12.175529
v -4.600470 4.069635 -12.175529
v -4.199628 0.029223 1.750818
v -4.199628 4.069635 1.750818
v -16.059772 0.029223 9.061129
v -16.059772 4.069635 9.061129
v -28.320766 0.029223 2.445095
v -28.320766 4.069635 2.445095
v -28.721603 0.029223 -11.481249
v -28.721603 4.069635 -11.481249
v -16.861460 0.029223 -18.791559
v -16.861460 4.069635 -18.791559
v 2.108813 0.029223 -0.855352
v 2.108813 4.069635 -0.855352
v 12.691047 0.029223 -9.917367
v 12.691047 4.069635 -9.917367
v 25.830099 0.029223 -5.283889
v 25.830099 4.069635 -5.283889
v 28.386915 0.029223 8.411600
v 28.386915 4.069635 8.411600
v 17.804682 0.029223 17.473614
v 17.804682 4.069635 17.473614
v 4.665632 0.029223 12.840139
v 4.665632 4.069635 12.840139
v 1.488000 0.029223 20.368263
v 1.488000 4.069635 20.368263
v -1.788484 0.029223 33.909622
v -1.788484 4.069635 33.909622
v -15.153885 0.029223 37.842785
v -15.153885 4.069635 37.842785
v -25.242802 0.029223 28.234589
v -25.242802 4.069635 28.234589
v -21.966322 0.029223 14.693231
v -21.966322 4.069635 14.693231
v -8.600922 0.029223 10.760067
v -8.600922 4.069635 10.760067
vt 0.662109 0.627070
vt 0.662109 0.627070
vt 0.662109 0.627070
vt 0.662109 0.627070
vt 0.662109 0.627070
vt 0.662109 0.627070
vt 0.662109 0.627070
vt 0.662109 0.627070
vt 0.662109 0.627070
vt 0.662109 0.627070
vt 0.662109 0.627070
vt 0.662109 0.627070
vt 0.603516 0.634883
vt 0.603516 0.634883
vt 0.603516 0.634883
vt 0.603516 0.634883
vt 0.603516 0.634883
vt 0.603516 0.634883
vt 0.603516 0.634883
vt 0.603516 0.634883
vt 0.603516 0.634883
vt 0.603516 0.634883
vt 0.603516 0.634883
vt 0.603516 0.634883
vt 0.625000 0.633906
vt 0.625000 0.633906
vt 0.625000 0.633906
vt 0.625000 0.633906
vt 0.625000 0.633906
vt 0.625000 0.633906
vt 0.625000 0.633906
vt 0.625000 0.633906
vt 0.625000 0.633906
vt 0.625000 0.633906
vt 0.625000 0.633906
vt 0.625000 0.633906
vt 0.673828 0.573359
vt 0.673828 0.573359
vt 0.673828 0.573359
vt 0.673828 0.573359
vt 0.673828 0.573359
vt 0.673828 0.573359
vt 0.673828 0.573359
vt 0.673828 0.573359
vt 0.673828 0.573359
vt 0.673828 0.573359
vt 0.673828 0.573359
vt 0.673828 0.573359
vt 0.598633 0.632930
vt 0.598633 0.632930
vt 0.598633 0.632930
vt 0.598633 0.632930
vt 0.598633 0.632930
vt 0.598633 0.632930
vt 0.598633 0.632930
vt 0.598633 0.632930
vt 0.598633 0.632930
vt 0.598633 0.632930
vt 0.598633 0.632930
vt 0.598633 0.632930
vt 0.624023 0.647578
vt 0.624023 0.647578
vt 0.624023 0.647578
vt 0.624023 0.647578
vt 0.624023 0.647578
vt 0.624023 0.647578
vt 0.624023 0.647578
vt 0.624023 0.647578
vt 0.624023 0.647578
vt 0.624023 0.647578
vt 0.624023 0.647578
vt 0.624023 0.647578
vn 0.5000 0.0000 -0.8660
vn 1.0000 0.0000 0.0000
vn 0.5000 0.0000 0.8660
vn -0.5000 0.0000 0.8660
vn 0.0000 1.0000 0.0000
vn -1.0000 0.0000 0.0000
vn -0.5000 0.0000 -0.8660
vn 0.6686 0.0000 -0.7437
vn 0.9783 0.0000 0.2072
vn 0.3098 0.0000 0.9508
vn -0.6686 0.0000 0.7437
vn -0.9783 0.0000 -0.2072
vn -0.3098 0.0000 -0.9508
vn -0.0084 0.0000 1.0000
vn -0.8702 0.0000 0.4927
vn -0.8618 0.0000 -0.5072
vn 0.0084 0.0000 -1.0000
vn 0.8702 0.0000 -0.4927
vn 0.8618 0.0000 0.5072
vn 0.9996 0.0000 -0.0288
vn 0.5247 0.0000 0.8513
vn -0.4749 0.0000 0.8801
vn -0.9996 0.0000 0.0288
vn -0.5247 0.0000 -0.8513
vn 0.4749 0.0000 -0.8801
vn -0.6504 0.0000 -0.7596
vn 0.3326 0.0000 -0.9431
vn 0.9830 0.0000 -0.1835
vn 0.6504 0.0000 0.7596
vn -0.3326 0.0000 0.9431
vn -0.9830 0.0000 0.1835
vn 0.9720 0.0000 0.2352
vn 0.2823 0.0000 0.9593
vn -0.6896 0.0000 0.7241
vn -0.9720 0.0000 -0.2352
vn -0.2823 0.0000 -0.9593
vn 0.6896 0.0000 -0.7241
usemtl Material.005
s 1
f 1/1/1 2/2/1 4/3/1 3/4/1
f 3/4/2 4/3/2 6/5/2 5/6/2
f 5/6/3 6/5/3 8/7/3 7/8/3
f 7/8/4 8/7/4 10/9/4 9/10/4
f 4/3/5 2/2/5 12/11/5 10/9/5 8/7/5 6/5/5
f 9/10/6 10/9/6 12/11/6 11/12/6
f 11/12/7 12/11/7 2/2/7 1/1/7
f 13/13/8 14/14/8 16/15/8 15/16/8
f 15/16/9 16/15/9 18/17/9 17/18/9
f 17/18/10 18/17/10 20/19/10 19/20/10
f 19/20/11 20/19/11 22/21/11 21/22/11
f 16/15/5 14/14/5 24/23/5 22/21/5 20/19/5 18/17/5
f 21/22/12 22/21/12 24/23/12 23/24/12
f 23/24/13 24/23/13 14/14/13 13/13/13
f 25/25/14 26/26/14 28/27/14 27/28/14
f 27/28/15 28/27/15 30/29/15 29/30/15
f 29/30/16 30/29/16 32/31/16 31/32/16
f 31/32/17 32/31/17 34/33/17 33/34/17
f 28/27/5 26/26/5 36/35/5 34/33/5 32/31/5 30/29/5
f 33/34/18 34/33/18 36/35/18 35/36/18
f 35/36/19 36/35/19 26/26/19 25/25/19
f 37/37/20 38/38/20 40/39/20 39/40/20
f 39/40/21 40/39/21 42/41/21 41/42/21
f 41/42/22 42/41/22 44/43/22 43/44/22
f 43/44/23 44/43/23 46/45/23 45/46/23
f 40/39/5 38/38/5 48/47/5 46/45/5 44/43/5 42/41/5
f 45/46/24 46/45/24 48/47/24 47/48/24
f 47/48/25 48/47/25 38/38/25 37/37/25
f 49/49/26 50/50/26 52/51/26 51/52/26
f 51/52/27 52/51/27 54/53/27 53/54/27
f 53/54/28 54/53/28 56/55/28 55/56/28
f 55/56/29 56/55/29 58/57/29 57/58/29
f 52/51/5 50/50/5 60/59/5 58/57/5 56/55/5 54/53/5
f 57/58/30 58/57/30 60/59/30 59/60/30
f 59/60/31 60/59/31 50/50/31 49/49/31
f 61/61/32 62/62/32 64/63/32 63/64/32
f 63/64/33 64/63/33 66/65/33 65/66/33
f 65/66/34 66/65/34 68/67/34 67/68/34
f 67/68/35 68/67/35 70/69/35 69/70/35
f 64/63/5 62/62/5 72/71/5 70/69/5 68/67/5 66/65/5
f 69/70/36 70/69/36 72/71/36 71/72/36
f 71/72/37 72/71/37 62/62/37 61/61/37
