# Blender v3.1.2 OBJ File: 'farm.blend'
# www.blender.org
mtllib shared.mtl
o {mesh}Streetlight_Cube.028
v -2.951989 32.938137 2.951989
v -6.205197 31.183800 6.205197
v -2.951989 140.227203 2.951989
v -3.846814 143.634338 5.970108
v -11.881432 169.224564 14.004725
v -1.841557 189.014297 1.841557
v -1.290873 192.571411 1.290873
v 0.000000 3.611284 15.000001
v 0.000000 31.183800 6.205197
v 0.000000 140.227203 2.951989
v -1.841557 191.176910 1.841557
v -5.360816 141.693741 5.360816
v -0.000000 145.169037 4.769809
v -0.000000 168.651398 12.142615
v -3.529953 145.169037 4.769809
v -10.902759 168.651398 12.142615
v -15.000001 3.611284 -15.000001
v -2.951990 32.938137 -2.951989
v -6.205197 31.183800 -6.205196
v -2.951990 140.227203 -2.951989
v -5.970108 143.634338 -3.846814
v -14.004725 169.224564 -11.881432
v -18.039898 172.126602 -18.039896
v -18.039898 174.403290 -18.039896
v -1.841557 189.014297 -1.841557
v -4.925035 187.705200 -4.925034
v -1.290873 192.571411 -1.290873
v -12.003658 5.435735 0.000001
v -2.951989 32.938137 0.000000
v -1.825271 192.571411 0.000000
v -1.841557 191.176910 -1.841557
v -2.603928 191.176910 0.000000
v -5.360816 141.693741 -5.360816
v -14.614017 171.165161 -14.614017
v -4.769809 145.169037 -3.529952
v -12.142615 168.651398 -10.902758
v 12.003657 5.435735 -12.003658
v 2.951989 32.938137 -2.951990
v 6.205196 31.183800 -6.205197
v 2.951989 140.227203 -2.951990
v 5.970108 143.634338 -3.846815
v 14.004725 169.224564 -11.881433
v 18.039896 172.126602 -18.039898
v 18.039896 174.403290 -18.039898
v 4.925034 187.705200 -4.925035
v 1.290873 192.571411 -1.290873
v 15.000001 0.000000 -0.000001
v 2.951989 32.938137 -0.000000
v 18.039898 174.403290 -0.000001
v 4.925034 187.705200 -0.000000
v 1.841557 191.176910 -1.841557
v 2.603928 191.176910 -0.000000
v 5.360816 141.693741 -0.000000
v 5.360816 141.693741 -5.360816
v 14.614017 171.165161 -0.000001
v 14.614017 171.165161 -14.614017
v 4.769809 145.169037 -3.529953
v 12.142614 168.651398 -10.902760
v -12.003657 5.435735 12.003658
v -15.000001 0.000000 15.000001
v -15.000001 3.611284 15.000001
v -5.970108 143.634338 3.846815
v -14.004725 169.224564 11.881433
v -18.039896 172.126602 18.039898
v -14.389181 175.296494 14.389181
v -18.039896 174.403290 18.039898
v -4.925034 187.705200 4.925035
v -15.000001 3.611284 0.000001
v -15.000001 0.000000 0.000001
v -6.205197 31.183800 0.000000
v -2.951989 140.227203 0.000000
v -5.970108 143.634338 0.000000
v -14.004725 169.224564 0.000001
v -18.039898 172.126602 0.000001
v -18.039898 174.403290 0.000001
v -14.389181 175.296494 0.000001
v -4.925034 187.705200 0.000000
v -2.603928 189.014297 0.000000
v -5.360816 141.693741 0.000000
v -14.614017 171.165161 0.000001
v -14.614017 171.165161 14.614017
v -4.769809 145.169037 0.000000
v -12.142615 168.651398 0.000001
v -4.769809 145.169037 3.529953
v -12.142614 168.651398 10.902760
v 15.000001 0.000000 15.000001
v 5.970108 143.634338 3.846814
v 14.004725 169.224564 11.881432
v 18.039898 172.126602 18.039896
v 15.000001 3.611284 -0.000001
v 12.003658 5.435735 -0.000001
v 6.205197 31.183800 -0.000000
v 2.951989 140.227203 -0.000000
v 5.970108 143.634338 -0.000000
v 14.004725 169.224564 -0.000001
v 18.039898 172.126602 -0.000001
v 14.389181 175.296494 -0.000001
v 2.603928 189.014297 -0.000000
v 1.825271 192.571411 -0.000000
v 0.000000 193.320709 0.000000
v 5.360816 141.693741 5.360816
v 4.769809 145.169037 -0.000000
v 12.142615 168.651398 -0.000001
v 4.769809 145.169037 3.529952
v 12.142615 168.651398 10.902758
v 15.000001 0.000000 -15.000001
v 15.000001 3.611284 -15.000001
v 3.846814 143.634338 -5.970108
v 11.881432 169.224564 -14.004725
v 14.389181 175.296494 -14.389181
v 1.841557 189.014297 -1.841557
v 0.000000 5.435735 -12.003658
v 0.000000 31.183800 -6.205197
v 0.000000 32.938137 -2.951989
v 0.000000 143.634338 -5.970108
v 0.000000 174.403290 -18.039898
v 0.000000 175.296494 -14.389181
v 0.000000 187.705200 -4.925034
v 0.000000 189.014297 -2.603928
v 0.000000 192.571411 -1.825271
v 0.000000 191.176910 -2.603928
v 3.529953 145.169037 -4.769809
v 10.902759 168.651398 -12.142615
v 12.003658 5.435735 12.003658
v 15.000001 3.611284 15.000001
v 2.951989 32.938137 2.951989
v 6.205197 31.183800 6.205197
v 2.951989 140.227203 2.951989
v 3.846814 143.634338 5.970108
v 11.881432 169.224564 14.004725
v 14.389181 175.296494 14.389181
v 18.039898 174.403290 18.039898
v 1.841557 189.014297 1.841557
v 4.925034 187.705200 4.925034
v 1.290873 192.571411 1.290873
v 0.000000 0.000000 15.000001
v 0.000000 5.435735 12.003658
v 0.000000 32.938137 2.951989
v 0.000000 143.634338 5.970108
v 0.000000 169.224564 14.004725
v 0.000000 172.126602 18.039898
v 0.000000 174.403290 18.039898
v 0.000000 175.296494 14.389181
v 0.000000 187.705200 4.925034
v 0.000000 189.014297 2.603928
v 0.000000 192.571411 1.825271
v 1.841557 191.176910 1.841557
v 0.000000 191.176910 2.603928
v 0.000000 141.693741 5.360816
v 0.000000 171.165161 14.614017
v 14.614017 171.165161 14.614017
v 3.529953 145.169037 4.769809
v 10.902759 168.651398 12.142615
v -12.003658 5.435735 -12.003658
v -15.000001 0.000000 -15.000001
v -3.846814 143.634338 -5.970108
v -11.881432 169.224564 -14.004725
v -14.389181 175.296494 -14.389181
v 0.000000 3.611284 -15.000001
v 0.000000 0.000000 -15.000001
v 0.000000 140.227203 -2.951989
v 0.000000 169.224564 -14.004725
v 0.000000 172.126602 -18.039898
v 0.000000 141.693741 -5.360816
v 0.000000 171.165161 -14.614017
v -0.000000 145.169037 -4.769809
v -0.000000 168.651398 -12.142615
v -3.529953 145.169037 -4.769809
v -10.902759 168.651398 -12.142615
vt 0.685124 0.385595
vt 0.683550 0.385595
vt 0.683550 0.385595
vt 0.685124 0.385595
vt 0.682754 0.384288
vt 0.682754 0.384288
vt 0.670764 0.380342
vt 0.670764 0.380342
vt 0.671529 0.381761
vt 0.671529 0.381761
vt 0.608702 0.385328
vt 0.608702 0.385328
vt 0.609092 0.386920
vt 0.609092 0.386920
vt 0.602722 0.380191
vt 0.602722 0.379858
vt 0.603293 0.381202
vt 0.603293 0.381202
vt 0.601779 0.379858
vt 0.601779 0.380191
vt 0.601171 0.379851
vt 0.601171 0.379618
vt 0.610084 0.386920
vt 0.610084 0.386920
vt 0.610503 0.385426
vt 0.610503 0.385426
vt 0.623991 0.380342
vt 0.623991 0.380342
vt 0.623352 0.381392
vt 0.623352 0.381392
vt 0.622506 0.381658
vt 0.622506 0.381658
vt 0.621837 0.381135
vt 0.621837 0.381135
vt 0.600845 0.379055
vt 0.611349 0.385161
vt 0.611349 0.385161
vt 0.420835 0.134717
vt 0.420835 0.134717
vt 0.335209 0.148818
vt 0.335209 0.148818
vt 0.611599 0.384349
vt 0.611599 0.384349
vt 0.685124 0.379055
vt 0.683550 0.379055
vt 0.683550 0.372516
vt 0.685124 0.372516
vt 0.682754 0.379055
vt 0.682754 0.373822
vt 0.670764 0.379055
vt 0.670764 0.377768
vt 0.671529 0.376350
vt 0.671529 0.379055
vt 0.608702 0.379055
vt 0.608702 0.372782
vt 0.609092 0.371191
vt 0.609092 0.379055
vt 0.602722 0.379055
vt 0.602722 0.378253
vt 0.603293 0.376908
vt 0.603293 0.379055
vt 0.601779 0.378253
vt 0.601779 0.379055
vt 0.601171 0.379055
vt 0.601171 0.378493
vt 0.610084 0.371191
vt 0.610084 0.379055
vt 0.610503 0.372684
vt 0.610503 0.379055
vt 0.623991 0.377768
vt 0.623991 0.379055
vt 0.623352 0.379055
vt 0.623352 0.376718
vt 0.622506 0.377378
vt 0.622506 0.379055
vt 0.621837 0.379055
vt 0.621837 0.377517
vt 0.611349 0.373876
vt 0.611349 0.379055
vt 0.420835 0.118844
vt 0.420835 0.125595
vt 0.335209 0.125595
vt 0.335209 0.104743
vt 0.611599 0.374302
vt 0.611599 0.379055
vt 0.685124 0.379055
vt 0.685124 0.372516
vt 0.683550 0.372516
vt 0.683550 0.379055
vt 0.682754 0.379055
vt 0.682754 0.373822
vt 0.670764 0.379055
vt 0.671529 0.379055
vt 0.671529 0.376350
vt 0.670764 0.377768
vt 0.608702 0.379055
vt 0.609092 0.379055
vt 0.609092 0.371191
vt 0.608702 0.372782
vt 0.602722 0.379055
vt 0.603293 0.379055
vt 0.603293 0.376908
vt 0.602722 0.378253
vt 0.601779 0.378253
vt 0.601171 0.378493
vt 0.601171 0.379055
vt 0.601779 0.379055
vt 0.610084 0.371191
vt 0.610084 0.379055
vt 0.610503 0.372684
vt 0.610503 0.379055
vt 0.623991 0.377768
vt 0.623352 0.376718
vt 0.623352 0.379055
vt 0.623991 0.379055
vt 0.622506 0.377378
vt 0.621837 0.377517
vt 0.621837 0.379055
vt 0.622506 0.379055
vt 0.611349 0.373876
vt 0.611349 0.379055
vt 0.420835 0.118844
vt 0.335209 0.104743
vt 0.335209 0.125595
vt 0.420835 0.125595
vt 0.611599 0.374302
vt 0.611599 0.379055
vt 0.622506 0.380732
vt 0.621837 0.380594
vt 0.611349 0.384235
vt 0.420835 0.132346
vt 0.335209 0.146446
vt 0.611599 0.383809
vt 0.683550 0.385595
vt 0.685124 0.385595
vt 0.682754 0.384288
vt 0.670764 0.380342
vt 0.671529 0.381761
vt 0.608702 0.385328
vt 0.609092 0.386920
vt 0.602722 0.379858
vt 0.603293 0.381202
vt 0.601779 0.379858
vt 0.601171 0.379618
vt 0.610084 0.386920
vt 0.610503 0.385426
vt 0.623991 0.380342
vt 0.623352 0.381392
vt 0.622506 0.380732
vt 0.621837 0.380594
vt 0.611349 0.384235
vt 0.420835 0.132346
vt 0.335209 0.146446
vt 0.611599 0.383809
vt 0.685124 0.372516
vt 0.683550 0.372516
vt 0.682754 0.373822
vt 0.670764 0.377768
vt 0.671529 0.376350
vt 0.608702 0.372782
vt 0.609092 0.371191
vt 0.602722 0.377920
vt 0.603293 0.376908
vt 0.601779 0.377920
vt 0.601171 0.378260
vt 0.610084 0.371191
vt 0.610503 0.372684
vt 0.623991 0.377768
vt 0.623352 0.376718
vt 0.622506 0.376453
vt 0.622506 0.376453
vt 0.621837 0.376976
vt 0.621837 0.376976
vt 0.611349 0.372950
vt 0.611349 0.372950
vt 0.420835 0.116472
vt 0.420835 0.116472
vt 0.335209 0.102372
vt 0.335209 0.102372
vt 0.611599 0.373762
vt 0.611599 0.373762
vt 0.622506 0.381658
vt 0.621837 0.381135
vt 0.611349 0.385161
vt 0.420835 0.134717
vt 0.335209 0.148818
vt 0.611599 0.384349
vt 0.622506 0.376453
vt 0.621837 0.376976
vt 0.611349 0.372950
vt 0.420835 0.116472
vt 0.335209 0.102372
vt 0.611599 0.373762
vn 0.0000 0.0000 1.0000
vn 0.0000 0.8541 0.5201
vn 0.0000 0.8802 0.4746
vn 0.0000 0.9713 0.2377
vn -0.0466 0.9092 0.4138
vn 0.0000 0.6064 0.7951
vn -0.6868 0.2381 0.6868
vn -0.0000 0.2381 0.9712
vn 0.0000 0.7097 0.7046
vn -0.4982 0.7097 0.4982
vn 0.0000 -0.9628 0.2702
vn 0.0000 -0.8542 0.5200
vn 0.0000 0.6161 0.7877
vn 0.0000 0.2197 0.9756
vn 0.0000 1.0000 0.0000
vn -0.5391 0.6471 0.5391
vn -0.0000 0.6124 0.7905
vn 0.0000 -0.2996 0.9541
vn 0.8935 0.1473 0.4242
vn 0.0000 -0.9557 0.2942
vn -1.0000 0.0000 0.0000
vn -0.5201 0.8541 0.0000
vn -0.4746 0.8802 0.0000
vn -0.2377 0.9713 0.0000
vn -0.4138 0.9092 -0.0466
vn -0.7951 0.6064 -0.0000
vn -0.6868 0.2381 -0.6868
vn -0.9712 0.2381 -0.0000
vn -0.7046 0.7097 -0.0000
vn -0.4982 0.7097 -0.4982
vn -0.2702 -0.9628 0.0000
vn -0.5200 -0.8542 0.0000
vn -0.7877 0.6161 0.0000
vn -0.9756 0.2197 0.0000
vn -0.5391 0.6471 -0.5391
vn -0.7905 0.6124 -0.0001
vn -0.9541 -0.2996 0.0000
vn -0.4242 0.1473 0.8935
vn -0.2942 -0.9557 0.0000
vn 1.0000 0.0000 0.0000
vn 0.5201 0.8541 -0.0000
vn 0.4746 0.8802 0.0000
vn 0.2377 0.9713 0.0000
vn 0.4138 0.9092 -0.0466
vn 0.7951 0.6064 0.0000
vn 0.6868 0.2381 -0.6868
vn 0.4982 0.7097 -0.4982
vn 0.7046 0.7097 -0.0000
vn 0.9712 0.2381 -0.0000
vn 0.2702 -0.9628 0.0000
vn 0.5200 -0.8542 0.0000
vn 0.7877 0.6161 0.0000
vn 0.9756 0.2197 -0.0000
vn 0.5391 0.6471 -0.5391
vn 0.7905 0.6124 0.0001
vn 0.9541 -0.2996 -0.0000
vn 0.4242 0.1473 0.8935
vn 0.2942 -0.9557 0.0000
vn -0.4138 0.9092 0.0466
vn -0.4242 0.1473 -0.8935
vn 0.4138 0.9092 0.0466
vn 0.6868 0.2381 0.6868
vn 0.4982 0.7097 0.4982
vn 0.5391 0.6471 0.5391
vn 0.4242 0.1473 -0.8935
vn 0.0000 0.0000 -1.0000
vn 0.0000 0.8541 -0.5201
vn -0.0000 0.8802 -0.4746
vn 0.0000 0.9713 -0.2377
vn 0.0466 0.9092 -0.4138
vn -0.0000 0.6064 -0.7951
vn -0.0000 0.2381 -0.9712
vn -0.0000 0.7097 -0.7046
vn 0.0000 -0.9628 -0.2702
vn 0.0000 -0.8542 -0.5200
vn 0.0000 0.6161 -0.7877
vn 0.0000 0.2197 -0.9756
vn 0.0000 0.6124 -0.7905
vn 0.0000 -0.2996 -0.9541
vn -0.8935 0.1473 -0.4242
vn 0.0000 -0.9557 -0.2942
vn 0.0466 0.9092 0.4138
vn -0.8935 0.1473 0.4242
vn -0.0466 0.9092 -0.4138
vn 0.8935 0.1473 -0.4242
vn 0.0000 -1.0000 0.0000
usemtl Material.005
s 1
f 136/1/1 8/2/1 61/3/1 60/4/1
f 137/5/2 59/6/2 61/3/2 8/2/2
f 138/7/3 1/8/3 2/9/3 9/10/3
f 143/11/4 65/12/4 66/13/4 142/14/4
f 145/15/5 6/16/5 67/17/5 144/18/5
f 65/12/6 143/11/6 144/18/6 67/17/6
f 11/19/7 148/20/8 146/21/9 7/22/10
f 64/23/1 141/24/1 142/14/1 66/13/1
f 81/25/11 150/26/11 141/24/11 64/23/11
f 3/27/12 10/28/12 149/29/12 12/30/12
f 4/31/13 139/32/13 13/33/13 15/34/13
f 1/8/1 138/7/1 10/28/1 3/27/1
f 59/6/14 137/5/14 9/10/14 2/9/14
f 146/21/9 100/35/15 7/22/10
f 6/16/16 145/15/17 148/20/8 11/19/7
f 139/32/18 4/31/18 12/30/18 149/29/18
f 5/36/18 140/37/18 150/26/18 81/25/18
f 4/31/18 5/36/18 81/25/18 12/30/18
f 15/38/18 13/39/18 14/40/18 16/41/18
f 5/36/19 4/31/19 15/34/19 16/42/19
f 140/37/20 5/36/20 16/42/20 14/43/20
f 69/44/21 68/45/21 17/46/21 155/47/21
f 28/48/22 154/49/22 17/46/22 68/45/22
f 29/50/23 18/51/23 19/52/23 70/53/23
f 76/54/24 158/55/24 24/56/24 75/57/24
f 78/58/25 25/59/25 26/60/25 77/61/25
f 158/55/26 76/54/26 77/61/26 26/60/26
f 31/62/27 32/63/28 30/64/29 27/65/30
f 23/66/21 74/67/21 75/57/21 24/56/21
f 34/68/31 80/69/31 74/67/31 23/66/31
f 20/70/32 71/71/32 79/72/32 33/73/32
f 21/74/33 72/75/33 82/76/33 35/77/33
f 18/51/21 29/50/21 71/71/21 20/70/21
f 154/49/34 28/48/34 70/53/34 19/52/34
f 30/64/29 100/35/15 27/65/30
f 25/59/35 78/58/36 32/63/28 31/62/27
f 72/75/37 21/74/37 33/73/37 79/72/37
f 22/78/37 73/79/37 80/69/37 34/68/37
f 21/74/37 22/78/37 34/68/37 33/73/37
f 35/80/37 82/81/37 83/82/37 36/83/37
f 22/78/38 21/74/38 35/77/38 36/84/38
f 73/79/39 22/78/39 36/84/39 83/85/39
f 47/86/40 106/87/40 107/88/40 90/89/40
f 91/90/41 90/89/41 107/88/41 37/91/41
f 48/92/42 92/93/42 39/94/42 38/95/42
f 97/96/43 49/97/43 44/98/43 110/99/43
f 98/100/44 50/101/44 45/102/44 111/103/44
f 110/99/45 45/102/45 50/101/45 97/96/45
f 51/104/46 46/105/47 99/106/48 52/107/49
f 43/108/40 44/98/40 49/97/40 96/109/40
f 56/110/50 43/108/50 96/109/50 55/111/50
f 40/112/51 54/113/51 53/114/51 93/115/51
f 41/116/52 57/117/52 102/118/52 94/119/52
f 38/95/40 40/112/40 93/115/40 48/92/40
f 37/91/53 39/94/53 92/93/53 91/90/53
f 99/106/48 46/105/47 100/35/15
f 111/103/54 51/104/46 52/107/49 98/100/55
f 94/119/56 53/114/56 54/113/56 41/116/56
f 42/120/56 56/110/56 55/111/56 95/121/56
f 41/116/56 54/113/56 56/110/56 42/120/56
f 57/122/56 58/123/56 103/124/56 102/125/56
f 42/120/57 58/126/57 57/117/57 41/116/57
f 95/121/58 103/127/58 58/126/58 42/120/58
f 69/44/21 60/4/21 61/3/21 68/45/21
f 28/48/22 68/45/22 61/3/22 59/6/22
f 29/50/23 70/53/23 2/9/23 1/8/23
f 76/54/24 75/57/24 66/13/24 65/12/24
f 78/58/59 77/61/59 67/17/59 6/16/59
f 65/12/26 67/17/26 77/61/26 76/54/26
f 11/19/7 7/22/10 30/64/29 32/63/28
f 64/23/21 66/13/21 75/57/21 74/67/21
f 81/25/31 64/23/31 74/67/31 80/69/31
f 3/27/32 12/30/32 79/72/32 71/71/32
f 62/128/33 84/129/33 82/76/33 72/75/33
f 1/8/21 3/27/21 71/71/21 29/50/21
f 59/6/34 2/9/34 70/53/34 28/48/34
f 30/64/29 7/22/10 100/35/15
f 6/16/16 11/19/7 32/63/28 78/58/36
f 72/75/37 79/72/37 12/30/37 62/128/37
f 63/130/37 81/25/37 80/69/37 73/79/37
f 62/128/37 12/30/37 81/25/37 63/130/37
f 84/131/37 85/132/37 83/82/37 82/81/37
f 63/130/60 85/133/60 84/129/60 62/128/60
f 73/79/39 83/85/39 85/133/39 63/130/39
f 47/86/40 90/89/40 125/134/40 86/135/40
f 91/90/41 124/136/41 125/134/41 90/89/41
f 48/92/42 126/137/42 127/138/42 92/93/42
f 97/96/43 131/139/43 132/140/43 49/97/43
f 98/100/61 133/141/61 134/142/61 50/101/61
f 131/139/45 97/96/45 50/101/45 134/142/45
f 147/143/62 52/107/49 99/106/48 135/144/63
f 89/145/40 96/109/40 49/97/40 132/140/40
f 151/146/50 55/111/50 96/109/50 89/145/50
f 128/147/51 93/115/51 53/114/51 101/148/51
f 87/149/52 94/119/52 102/118/52 104/150/52
f 126/137/40 48/92/40 93/115/40 128/147/40
f 124/136/53 91/90/53 92/93/53 127/138/53
f 99/106/48 100/35/15 135/144/63
f 133/141/64 98/100/55 52/107/49 147/143/62
f 94/119/56 87/149/56 101/148/56 53/114/56
f 88/151/56 95/121/56 55/111/56 151/146/56
f 87/149/56 88/151/56 151/146/56 101/148/56
f 104/152/56 102/125/56 103/124/56 105/153/56
f 88/151/65 87/149/65 104/150/65 105/154/65
f 95/121/58 88/151/58 105/154/58 103/127/58
f 160/155/66 159/156/66 107/88/66 106/87/66
f 112/157/67 37/91/67 107/88/67 159/156/67
f 114/158/68 38/95/68 39/94/68 113/159/68
f 117/160/69 110/99/69 44/98/69 116/161/69
f 119/162/70 111/103/70 45/102/70 118/163/70
f 110/99/71 117/160/71 118/163/71 45/102/71
f 51/104/46 121/164/72 120/165/73 46/105/47
f 43/108/66 163/166/66 116/161/66 44/98/66
f 56/110/74 165/167/74 163/166/74 43/108/74
f 40/112/75 161/168/75 164/169/75 54/113/75
f 108/170/76 115/171/76 166/172/76 122/173/76
f 38/95/66 114/158/66 161/168/66 40/112/66
f 37/91/77 112/157/77 113/159/77 39/94/77
f 120/165/73 100/35/15 46/105/47
f 111/103/54 119/162/78 121/164/72 51/104/46
f 115/171/79 108/170/79 54/113/79 164/169/79
f 109/174/79 162/175/79 165/167/79 56/110/79
f 108/170/79 109/174/79 56/110/79 54/113/79
f 122/176/79 166/177/79 167/178/79 123/179/79
f 109/174/80 108/170/80 122/173/80 123/180/80
f 162/175/81 109/174/81 123/180/81 167/181/81
f 136/1/1 86/135/1 125/134/1 8/2/1
f 137/5/2 8/2/2 125/134/2 124/136/2
f 138/7/3 9/10/3 127/138/3 126/137/3
f 143/11/4 142/14/4 132/140/4 131/139/4
f 145/15/82 144/18/82 134/142/82 133/141/82
f 131/139/6 134/142/6 144/18/6 143/11/6
f 147/143/62 135/144/63 146/21/9 148/20/8
f 89/145/1 132/140/1 142/14/1 141/24/1
f 151/146/11 89/145/11 141/24/11 150/26/11
f 128/147/12 101/148/12 149/29/12 10/28/12
f 129/182/13 152/183/13 13/33/13 139/32/13
f 126/137/1 128/147/1 10/28/1 138/7/1
f 124/136/14 127/138/14 9/10/14 137/5/14
f 146/21/9 135/144/63 100/35/15
f 133/141/64 147/143/62 148/20/8 145/15/17
f 139/32/18 149/29/18 101/148/18 129/182/18
f 130/184/18 151/146/18 150/26/18 140/37/18
f 129/182/18 101/148/18 151/146/18 130/184/18
f 152/185/18 153/186/18 14/40/18 13/39/18
f 130/184/83 153/187/83 152/183/83 129/182/83
f 140/37/20 14/43/20 153/187/20 130/184/20
f 160/155/66 155/47/66 17/46/66 159/156/66
f 112/157/67 159/156/67 17/46/67 154/49/67
f 114/158/68 113/159/68 19/52/68 18/51/68
f 117/160/69 116/161/69 24/56/69 158/55/69
f 119/162/84 118/163/84 26/60/84 25/59/84
f 158/55/71 26/60/71 118/163/71 117/160/71
f 31/62/27 27/65/30 120/165/73 121/164/72
f 23/66/66 24/56/66 116/161/66 163/166/66
f 34/68/74 23/66/74 163/166/74 165/167/74
f 20/70/75 33/73/75 164/169/75 161/168/75
f 156/188/76 168/189/76 166/172/76 115/171/76
f 18/51/66 20/70/66 161/168/66 114/158/66
f 154/49/77 19/52/77 113/159/77 112/157/77
f 120/165/73 27/65/30 100/35/15
f 25/59/35 31/62/27 121/164/72 119/162/78
f 115/171/79 164/169/79 33/73/79 156/188/79
f 157/190/79 34/68/79 165/167/79 162/175/79
f 156/188/79 33/73/79 34/68/79 157/190/79
f 168/191/79 169/192/79 167/178/79 166/177/79
f 157/190/85 169/193/85 168/189/85 156/188/85
f 162/175/81 167/181/81 169/193/81 157/190/81
f 69/44/86 155/47/86 160/155/86 106/87/86 47/86/86 86/135/86 136/1/86 60/4/86
