# Blender v3.1.2 OBJ File: 'farm.blend'
# www.blender.org
mtllib shared.mtl
o {mesh}Tombstone_2_Cube.030
v -27.319155 49.649170 8.185033
v -27.319155 49.649170 -8.185033
v 24.123940 53.127159 8.185033
v 24.123940 53.127159 -8.185033
v -21.730818 -0.000012 5.803460
v -21.730818 -0.000012 -5.803460
v 17.046169 -0.000012 -5.803460
v 17.046169 -0.000012 5.803460
vt 0.494838 0.631723
vt 0.588229 0.631723
vt 0.588229 0.631723
vt 0.494838 0.631723
vt 0.594771 0.631723
vt 0.494838 0.631723
vt 0.594771 0.631723
vt 0.494838 0.631723
vn -0.9937 -0.1119 0.0000
vn 0.0018 -0.0463 -0.9989
vn 0.9912 -0.1321 0.0000
vn 0.0018 -0.0463 0.9989
vn -0.0675 0.9977 0.0000
usemtl Material.005
s 1
f 5/1/1 1/2/1 2/3/1 6/4/1
f 6/4/2 2/3/2 4/5/2 7/6/2
f 7/6/3 4/5/3 3/7/3 8/8/3
f 8/8/4 3/7/4 1/2/4 5/1/4
f 4/5/5 2/3/5 1/2/5 3/7/5
