# Blender v3.1.2 OBJ File: 'farm.blend'
# www.blender.org
mtllib shared.mtl
o {mesh}Tombstone_1_Cube.029
v -16.364735 11.182497 6.282479
v -16.364735 11.182497 -6.282479
v 16.364735 11.182497 6.282479
v 16.364735 11.182497 -6.282479
v -26.492670 0.000000 15.536387
v -26.492670 0.000000 -15.536387
v 26.492670 0.000000 -15.536387
v 26.492670 0.000000 15.536387
v -24.379244 9.242136 14.296988
v -24.379244 9.242136 -14.296988
v 24.379244 9.242136 -14.296988
v 24.379244 9.242136 14.296988
v -16.364735 43.608864 6.282479
v -16.364735 43.608864 -6.282479
v 16.364735 43.608864 -6.282479
v 16.364735 43.608864 6.282479
v -12.747224 49.850361 6.282479
v -12.747224 49.850361 -6.282479
v 12.747224 49.850361 -6.282479
v 12.747224 49.850361 6.282479
v -7.596864 52.564060 6.282479
v -7.596864 52.564060 -6.282479
v 7.596864 52.564060 -6.282479
v 7.596864 52.564060 6.282479
v 0.000000 9.242136 -14.296988
v 0.000000 9.242136 14.296988
v 0.000000 0.000000 15.536387
v 0.000000 0.000000 -15.536387
v 0.000000 11.182497 -6.282479
v 0.000000 11.182497 6.282479
v 0.000000 43.608864 -6.282479
v 0.000000 43.608864 6.282479
v 0.000000 49.850361 -6.282479
v 0.000000 49.850361 6.282479
v 0.000000 53.920906 -6.282479
v 0.000000 53.920906 6.282479
vt 0.580426 0.631723
vt 0.587739 0.631723
vt 0.587739 0.631723
vt 0.580426 0.631723
vt 0.580426 0.631723
vt 0.587739 0.631723
vt 0.587739 0.631723
vt 0.580426 0.631723
vt 0.587739 0.631723
vt 0.580426 0.631723
vt 0.580426 0.631723
vt 0.587739 0.631723
vt 0.532634 0.631723
vt 0.532634 0.631723
vt 0.558292 0.631723
vt 0.558292 0.631723
vt 0.589275 0.631723
vt 0.589275 0.631723
vt 0.589275 0.631723
vt 0.589275 0.631723
vt 0.589275 0.631723
vt 0.589275 0.631723
vt 0.558292 0.631723
vt 0.563231 0.631723
vt 0.563231 0.631723
vt 0.532634 0.631723
vt 0.532634 0.631723
vt 0.558292 0.631723
vt 0.558292 0.631723
vt 0.532634 0.631723
vt 0.532634 0.631723
vt 0.558292 0.631723
vt 0.565378 0.631723
vt 0.565378 0.631723
vt 0.563231 0.631723
vt 0.563231 0.631723
vt 0.563231 0.631723
vt 0.563231 0.631723
vt 0.566452 0.631723
vt 0.565378 0.631723
vt 0.565378 0.631723
vt 0.566452 0.631723
vn -0.9748 0.2229 0.0000
vn 0.0000 0.1329 -0.9911
vn 0.9748 0.2229 0.0000
vn 0.0000 0.1329 0.9911
vn 0.0000 0.0000 1.0000
vn -0.1193 0.9857 0.1193
vn -0.1193 0.9857 -0.1193
vn 0.0000 0.9719 -0.2353
vn 0.1193 0.9857 -0.1193
vn 0.1193 0.9857 0.1193
vn 0.0000 0.9719 0.2353
vn 0.9657 0.2596 0.0000
vn 0.6927 0.7212 0.0000
vn 0.0000 0.0000 -1.0000
vn 1.0000 0.0000 0.0000
vn -1.0000 0.0000 0.0000
vn -0.9657 0.2596 0.0000
vn 0.3248 0.9458 0.0000
vn -0.6927 0.7212 0.0000
vn 0.0000 1.0000 0.0000
vn -0.3248 0.9458 0.0000
usemtl Material.005
s 1
f 5/1/1 9/2/1 10/3/1 6/4/1
f 28/5/2 25/6/2 11/7/2 7/8/2
f 7/8/3 11/7/3 12/9/3 8/10/3
f 27/11/4 26/12/4 9/2/4 5/1/4
f 30/13/5 3/14/5 16/15/5 32/16/5
f 1/17/6 2/18/7 10/3/7 9/2/6
f 29/19/8 4/20/9 11/7/9 25/6/8
f 4/20/9 3/21/10 12/9/10 11/7/9
f 30/22/11 1/17/6 9/2/6 26/12/11
f 16/15/12 15/23/12 19/24/13 20/25/13
f 29/26/14 2/27/14 14/28/14 31/29/14
f 3/14/15 4/30/15 15/23/12 16/15/12
f 2/27/16 1/31/16 13/32/17 14/28/17
f 20/25/13 19/24/13 23/33/18 24/34/18
f 14/28/17 13/32/17 17/35/19 18/36/19
f 32/16/5 16/15/5 20/25/5 34/37/5
f 31/29/14 14/28/14 18/36/14 33/38/14
f 35/39/20 22/40/21 21/41/21 36/42/20
f 18/36/19 17/35/19 21/41/21 22/40/21
f 34/37/5 20/25/5 24/34/5
f 33/38/14 18/36/14 22/40/14
f 33/38/14 35/39/14 23/33/14
f 34/37/5 36/42/5 21/41/5
f 23/33/18 35/39/20 36/42/20 24/34/18
f 15/23/14 31/29/14 33/38/14 19/24/14
f 13/32/5 32/16/5 34/37/5 17/35/5
f 4/30/14 29/26/14 31/29/14 15/23/14
f 3/21/10 30/22/11 26/12/11 12/9/10
f 2/18/7 29/19/8 25/6/8 10/3/7
f 1/31/5 30/13/5 32/16/5 13/32/5
f 8/10/4 12/9/4 26/12/4 27/11/4
f 6/4/2 10/3/2 25/6/2 28/5/2
f 17/35/5 34/37/5 21/41/5
f 36/42/5 34/37/5 24/34/5
f 19/24/14 33/38/14 23/33/14
f 35/39/14 33/38/14 22/40/14
