# Blender v3.1.2 OBJ File: 'farm.blend'
# www.blender.org
mtllib shared.mtl
o {mesh}Tree_Square_Cylinder.002
v 0.160530 -0.000002 -15.323621
v 0.000000 39.523281 -7.000004
v 11.128898 -0.000002 -3.527241
v 6.657399 39.523281 -2.163120
v 6.880612 -0.000002 9.547634
v 4.114499 39.523281 5.663123
v -7.173960 -0.000002 11.299026
v -4.114500 39.523281 5.663122
v -11.115407 -0.000002 -3.527242
v -6.657399 39.523281 -2.163121
v -29.625004 37.709869 29.625004
v -29.625004 96.959885 29.625004
v -29.625004 37.709869 -29.625004
v -29.625004 96.959885 -29.625004
v 29.625004 37.709869 29.625004
v 29.625004 96.959885 29.625004
v 29.625004 37.709869 -29.625004
v 29.625004 96.959885 -29.625004
v -32.916672 67.334877 32.916676
v -32.916668 67.334877 -32.916676
v 32.916676 67.334877 -32.916668
v 32.916668 67.334877 32.916676
v 0.000000 34.418198 -32.916672
v -0.000000 100.251541 -32.916676
v -0.000000 34.418201 32.916672
v -0.000000 100.251541 32.916676
v 0.000000 67.334877 39.500011
v 0.000000 67.334877 -39.500011
v -32.916672 34.418198 -0.000000
v -32.916676 100.251541 0.000000
v 32.916676 34.418198 0.000000
v 32.916676 100.251556 0.000000
v 39.500011 67.334877 0.000000
v -39.500011 67.334877 0.000000
v 0.000000 106.834885 0.000000
v 0.000000 31.255760 0.000000
v -32.352821 34.982052 18.500387
v -32.352821 85.835266 32.352821
v -32.352821 99.687698 -18.500387
v -32.352821 48.834488 -32.352821
v -18.500385 34.982052 -32.352821
v 18.500387 99.687698 -32.352821
v 32.352821 48.834488 -32.352821
v 32.352821 34.982052 -18.500389
v 32.352821 99.687698 18.500387
v 32.352821 48.834488 32.352821
v 18.500387 34.982052 32.352821
v -18.500387 99.687698 32.352821
v -32.352821 48.834488 32.352821
v -32.352821 85.835266 -32.352821
v 32.352821 85.835266 -32.352821
v 32.352821 85.835266 32.352821
v -18.927086 67.334877 38.677086
v 38.677094 67.334877 18.927088
v 18.927088 67.334877 -38.677094
v -38.677094 67.334877 -18.927088
v 18.500387 34.982056 -32.352821
v -18.500389 99.687698 -32.352821
v -18.500387 34.982052 32.352821
v 18.500387 99.687698 32.352821
v 18.927088 67.334877 38.677090
v -18.927088 67.334877 -38.677090
v 0.000000 48.407791 -38.677090
v 0.000000 48.407791 38.677090
v -0.000000 106.011963 18.927086
v 0.000000 29.314529 18.927086
v 0.000000 86.261963 38.677086
v 0.000000 86.261963 -38.677086
v -32.352821 34.982056 -18.500387
v -32.352821 99.687698 18.500387
v 32.352821 34.982052 18.500387
v 32.352821 99.687698 -18.500389
v 38.677090 67.334877 -18.927088
v -38.677090 67.334877 18.927088
v 0.000000 106.011963 -18.927088
v 0.000000 29.314528 -18.927088
v -18.927088 29.314528 0.000000
v 18.927088 106.011963 0.000000
v -38.677090 48.407791 0.000000
v 38.677090 48.407791 0.000000
v -18.927086 106.011963 0.000000
v 18.927088 29.314524 0.000000
v 38.677094 86.261963 0.000000
v -38.677086 86.261963 0.000000
v -37.884655 86.155289 -18.820412
v 18.820412 86.155289 -37.884655
v 37.884655 86.155289 18.820412
v -18.820412 86.155289 37.884655
v 18.820412 29.450220 18.820412
v -18.820412 105.219528 18.820412
v -18.820412 48.514465 37.884655
v 37.884655 48.514465 18.820412
v 18.820412 48.514465 -37.884655
v -37.884655 48.514465 -18.820412
v -18.820412 48.514465 -37.884651
v 18.820412 48.514465 37.884651
v 18.820412 105.219528 18.820412
v -18.820412 29.450220 18.820412
v 18.820412 86.155289 37.884651
v -18.820412 86.155289 -37.884651
v -18.820412 29.450222 -18.820412
v 18.820412 105.219528 -18.820412
v -37.884651 48.514465 18.820412
v 37.884651 48.514465 -18.820412
v -18.820412 105.219528 -18.820412
v 18.820412 29.450222 -18.820412
v 37.884651 86.155289 -18.820412
v -37.884651 86.155289 18.820412
vt 0.018232 0.880859
vt 0.261065 0.880859
vt 0.261065 0.880859
vt 0.018232 0.880859
vt 0.261065 0.880859
vt 0.018232 0.880859
vt 0.261065 0.880859
vt 0.018232 0.880859
vt 0.261065 0.880859
vt 0.018232 0.880859
vt 0.194208 0.629912
vt 0.112919 0.629912
vt 0.113378 0.629912
vt 0.194208 0.629912
vt 0.052837 0.629912
vt 0.055259 0.629912
vt 0.066974 0.629912
vt 0.114752 0.629912
vt 0.194208 0.629912
vt 0.194208 0.629912
vt 0.112919 0.629912
vt 0.113378 0.629912
vt 0.194208 0.629912
vt 0.052837 0.629912
vt 0.055259 0.629912
vt 0.066974 0.629912
vt 0.114752 0.629912
vt 0.194208 0.629912
vt 0.194208 0.629912
vt 0.112919 0.629912
vt 0.113378 0.629912
vt 0.194208 0.629912
vt 0.052837 0.629912
vt 0.055259 0.629912
vt 0.066974 0.629912
vt 0.114752 0.629912
vt 0.194208 0.629912
vt 0.194208 0.629912
vt 0.112919 0.629912
vt 0.113378 0.629912
vt 0.194208 0.629912
vt 0.052837 0.629912
vt 0.055259 0.629912
vt 0.066974 0.629912
vt 0.114752 0.629912
vt 0.194208 0.629912
vt 0.302285 0.629912
vt 0.310623 0.629912
vt 0.310040 0.629912
vt 0.310623 0.629912
vt 0.288703 0.629912
vt 0.286281 0.629912
vt 0.274566 0.629912
vt 0.286281 0.629912
vt 0.288703 0.629912
vt 0.024563 0.629912
vt 0.028097 0.629912
vt 0.031500 0.629912
vt 0.028097 0.629912
vt 0.055259 0.629912
vt 0.243269 0.629912
vt 0.242811 0.629912
vt 0.286281 0.629912
vt 0.241437 0.629912
vt 0.274566 0.629912
vt 0.243269 0.629912
vt 0.242811 0.629912
vt 0.241437 0.629912
vt 0.288703 0.629912
vt 0.243269 0.629912
vt 0.242811 0.629912
vt 0.286282 0.629912
vt 0.241437 0.629912
vt 0.274566 0.629912
vt 0.288703 0.629912
vt 0.243269 0.629912
vt 0.242811 0.629912
vt 0.286281 0.629912
vt 0.241437 0.629912
vt 0.274566 0.629912
vt 0.242811 0.629912
vt 0.286282 0.629912
vt 0.194208 0.629912
vt 0.242811 0.629912
vt 0.194208 0.629912
vt 0.028097 0.629912
vt 0.031500 0.629912
vt 0.055259 0.629912
vt 0.310623 0.629912
vt 0.310040 0.629912
vt 0.286281 0.629912
vt 0.113378 0.629912
vt 0.113378 0.629912
vt 0.055259 0.629912
vt 0.310040 0.629912
vt 0.310623 0.629912
vt 0.031500 0.629912
vt 0.055259 0.629912
vt 0.028097 0.629912
vt 0.242811 0.629912
vt 0.194208 0.629912
vt 0.242811 0.629912
vt 0.286282 0.629912
vt 0.194208 0.629912
vt 0.031500 0.629912
vt 0.310040 0.629912
vt 0.113378 0.629912
vt 0.113378 0.629912
vn 0.0047 -0.4882 -0.8727
vn 0.0023 0.1728 -0.9850
vn 0.9604 0.1327 -0.2448
vn 0.7989 -0.5652 -0.2059
vn 0.6148 0.1292 0.7780
vn 0.5113 -0.5602 0.6518
vn -0.5715 0.1444 0.8078
vn -0.4825 -0.5211 0.7040
vn -0.9544 0.1355 -0.2662
vn -0.7924 -0.5681 -0.2221
vn -1.0000 0.0000 0.0000
vn -0.9768 0.2143 0.0000
vn -0.9581 0.2026 -0.2026
vn -0.9768 0.0000 -0.2143
vn -0.7071 0.7071 0.0000
vn -0.6933 0.6933 -0.1968
vn -0.5774 0.5774 -0.5774
vn -0.6933 0.1968 -0.6933
vn -0.7071 -0.0000 -0.7071
vn -0.0000 0.0000 -1.0000
vn -0.0000 0.2143 -0.9768
vn 0.2026 0.2026 -0.9581
vn 0.2143 0.0000 -0.9768
vn -0.0000 0.7071 -0.7071
vn 0.1968 0.6933 -0.6933
vn 0.5774 0.5774 -0.5774
vn 0.6933 0.1968 -0.6933
vn 0.7071 0.0000 -0.7071
vn 1.0000 -0.0000 -0.0000
vn 0.9768 0.2143 -0.0000
vn 0.9581 0.2026 0.2026
vn 0.9768 -0.0000 0.2143
vn 0.7071 0.7071 -0.0000
vn 0.6933 0.6933 0.1968
vn 0.5774 0.5774 0.5774
vn 0.6933 0.1968 0.6933
vn 0.7071 -0.0000 0.7071
vn -0.0000 0.0000 1.0000
vn -0.0000 0.2143 0.9768
vn -0.2026 0.2026 0.9581
vn -0.2143 0.0000 0.9768
vn 0.0000 0.7071 0.7071
vn -0.1968 0.6933 0.6933
vn -0.5774 0.5774 0.5774
vn -0.6933 0.1968 0.6933
vn -0.7071 0.0000 0.7071
vn -0.0000 -1.0000 -0.0000
vn 0.1606 -0.9870 -0.0000
vn 0.1708 -0.9704 0.1708
vn -0.0000 -0.9870 0.1606
vn 0.6998 -0.7143 -0.0000
vn 0.6899 -0.6978 0.1926
vn 0.5774 -0.5774 0.5774
vn 0.1926 -0.6978 0.6899
vn 0.0000 -0.7143 0.6998
vn 0.0000 1.0000 0.0000
vn -0.2143 0.9768 0.0000
vn -0.2026 0.9581 0.2026
vn -0.0000 0.9768 0.2143
vn -0.6933 0.6933 0.1968
vn -0.0000 -0.2143 0.9768
vn -0.2026 -0.2026 0.9581
vn -0.1926 -0.6978 0.6899
vn -0.6933 -0.1968 0.6933
vn -0.5774 -0.5774 0.5774
vn 0.9768 -0.2143 -0.0000
vn 0.9581 -0.2026 0.2026
vn 0.6933 -0.1968 0.6933
vn 0.0000 -0.7143 -0.6998
vn -0.0000 -0.2143 -0.9768
vn 0.2026 -0.2026 -0.9581
vn 0.1926 -0.6978 -0.6899
vn 0.6933 -0.1968 -0.6933
vn 0.5774 -0.5774 -0.5774
vn -0.6998 -0.7143 0.0000
vn -0.9768 -0.2143 0.0000
vn -0.9581 -0.2026 -0.2026
vn -0.6899 -0.6978 -0.1926
vn -0.6933 -0.1968 -0.6933
vn -0.5774 -0.5774 -0.5774
vn -0.2026 -0.2026 -0.9581
vn -0.1926 -0.6978 -0.6899
vn -0.2143 0.0000 -0.9768
vn 0.2026 -0.2026 0.9581
vn 0.2143 0.0000 0.9768
vn 0.2143 0.9768 0.0000
vn 0.2026 0.9581 0.2026
vn 0.1968 0.6933 0.6933
vn -0.1606 -0.9870 -0.0000
vn -0.1708 -0.9704 0.1708
vn -0.6899 -0.6978 0.1926
vn 0.2026 0.2026 0.9581
vn -0.2026 0.2026 -0.9581
vn -0.1968 0.6933 -0.6933
vn -0.1708 -0.9704 -0.1708
vn -0.0000 -0.9870 -0.1606
vn 0.2026 0.9581 -0.2026
vn 0.6933 0.6933 -0.1968
vn 0.0000 0.9768 -0.2143
vn -0.9581 -0.2026 0.2026
vn -0.9768 0.0000 0.2143
vn 0.9581 -0.2026 -0.2026
vn 0.6899 -0.6978 -0.1926
vn 0.9768 -0.0000 -0.2143
vn -0.2026 0.9581 -0.2026
vn 0.1708 -0.9704 -0.1708
vn 0.9581 0.2026 -0.2026
vn -0.9581 0.2026 0.2026
usemtl Material.005
s 1
f 1/1/1 2/2/2 4/3/3 3/4/4
f 3/4/4 4/3/3 6/5/5 5/6/6
f 5/6/6 6/5/5 8/7/7 7/8/8
f 7/8/8 8/7/7 10/9/9 9/10/10
f 9/10/10 10/9/9 2/2/2 1/1/1
f 34/11/11 84/12/12 85/13/13 56/14/14
f 84/12/12 30/15/15 39/16/16 85/13/13
f 85/13/13 39/16/16 14/17/17 50/18/18
f 56/14/14 85/13/13 50/18/18 20/19/19
f 28/20/20 68/21/21 86/22/22 55/23/23
f 68/21/21 24/24/24 42/25/25 86/22/22
f 86/22/22 42/25/25 18/26/26 51/27/27
f 55/23/23 86/22/22 51/27/27 21/28/28
f 33/29/29 83/30/30 87/31/31 54/32/32
f 83/30/30 32/33/33 45/34/34 87/31/31
f 87/31/31 45/34/34 16/35/35 52/36/36
f 54/32/32 87/31/31 52/36/36 22/37/37
f 27/38/38 67/39/39 88/40/40 53/41/41
f 67/39/39 26/42/42 48/43/43 88/40/40
f 88/40/40 48/43/43 12/44/44 38/45/45
f 53/41/41 88/40/40 38/45/45 19/46/46
f 36/47/47 82/48/48 89/49/49 66/50/50
f 82/48/48 31/51/51 71/52/52 89/49/49
f 89/49/49 71/52/52 15/53/53 47/54/54
f 66/50/50 89/49/49 47/54/54 25/55/55
f 35/56/56 81/57/57 90/58/58 65/59/59
f 81/57/57 30/15/15 70/60/60 90/58/58
f 90/58/58 70/60/60 12/44/44 48/43/43
f 65/59/59 90/58/58 48/43/43 26/42/42
f 25/55/55 64/61/61 91/62/62 59/63/63
f 64/61/61 27/38/38 53/41/41 91/62/62
f 91/62/62 53/41/41 19/46/46 49/64/64
f 59/63/63 91/62/62 49/64/64 11/65/65
f 31/51/51 80/66/66 92/67/67 71/52/52
f 80/66/66 33/29/29 54/32/32 92/67/67
f 92/67/67 54/32/32 22/37/37 46/68/68
f 71/52/52 92/67/67 46/68/68 15/53/53
f 23/69/69 63/70/70 93/71/71 57/72/72
f 63/70/70 28/20/20 55/23/23 93/71/71
f 93/71/71 55/23/23 21/28/28 43/73/73
f 57/72/72 93/71/71 43/73/73 17/74/74
f 29/75/75 79/76/76 94/77/77 69/78/78
f 79/76/76 34/11/11 56/14/14 94/77/77
f 94/77/77 56/14/14 20/19/19 40/79/79
f 69/78/78 94/77/77 40/79/79 13/80/80
f 13/80/80 40/79/79 95/81/81 41/82/82
f 40/79/79 20/19/19 62/83/83 95/81/81
f 95/81/81 62/83/83 28/20/20 63/70/70
f 41/82/82 95/81/81 63/70/70 23/69/69
f 15/53/53 46/68/68 96/84/84 47/54/54
f 46/68/68 22/37/37 61/85/85 96/84/84
f 96/84/84 61/85/85 27/38/38 64/61/61
f 47/54/54 96/84/84 64/61/61 25/55/55
f 32/33/33 78/86/86 97/87/87 45/34/34
f 78/86/86 35/56/56 65/59/59 97/87/87
f 97/87/87 65/59/59 26/42/42 60/88/88
f 45/34/34 97/87/87 60/88/88 16/35/35
f 29/75/75 77/89/89 98/90/90 37/91/91
f 77/89/89 36/47/47 66/50/50 98/90/90
f 98/90/90 66/50/50 25/55/55 59/63/63
f 37/91/91 98/90/90 59/63/63 11/65/65
f 22/37/37 52/36/36 99/92/92 61/85/85
f 52/36/36 16/35/35 60/88/88 99/92/92
f 99/92/92 60/88/88 26/42/42 67/39/39
f 61/85/85 99/92/92 67/39/39 27/38/38
f 20/19/19 50/18/18 100/93/93 62/83/83
f 50/18/18 14/17/17 58/94/94 100/93/93
f 100/93/93 58/94/94 24/24/24 68/21/21
f 62/83/83 100/93/93 68/21/21 28/20/20
f 13/80/80 41/82/82 101/95/95 69/78/78
f 41/82/82 23/69/69 76/96/96 101/95/95
f 101/95/95 76/96/96 36/47/47 77/89/89
f 69/78/78 101/95/95 77/89/89 29/75/75
f 18/26/26 42/25/25 102/97/97 72/98/98
f 42/25/25 24/24/24 75/99/99 102/97/97
f 102/97/97 75/99/99 35/56/56 78/86/86
f 72/98/98 102/97/97 78/86/86 32/33/33
f 11/65/65 49/64/64 103/100/100 37/91/91
f 49/64/64 19/46/46 74/101/101 103/100/100
f 103/100/100 74/101/101 34/11/11 79/76/76
f 37/91/91 103/100/100 79/76/76 29/75/75
f 17/74/74 43/73/73 104/102/102 44/103/103
f 43/73/73 21/28/28 73/104/104 104/102/102
f 104/102/102 73/104/104 33/29/29 80/66/66
f 44/103/103 104/102/102 80/66/66 31/51/51
f 24/24/24 58/94/94 105/105/105 75/99/99
f 58/94/94 14/17/17 39/16/16 105/105/105
f 105/105/105 39/16/16 30/15/15 81/57/57
f 75/99/99 105/105/105 81/57/57 35/56/56
f 23/69/69 57/72/72 106/106/106 76/96/96
f 57/72/72 17/74/74 44/103/103 106/106/106
f 106/106/106 44/103/103 31/51/51 82/48/48
f 76/96/96 106/106/106 82/48/48 36/47/47
f 21/28/28 51/27/27 107/107/107 73/104/104
f 51/27/27 18/26/26 72/98/98 107/107/107
f 107/107/107 72/98/98 32/33/33 83/30/30
f 73/104/104 107/107/107 83/30/30 33/29/29
f 19/46/46 38/45/45 108/108/108 74/101/101
f 38/45/45 12/44/44 70/60/60 108/108/108
f 108/108/108 70/60/60 30/15/15 84/12/12
f 74/101/101 108/108/108 84/12/12 34/11/11
f 1/1/1 3/4/4 5/6/6 7/8/8 9/10/10
