# Blender v3.1.2 OBJ File: 'farm.blend'
# www.blender.org
mtllib shared.mtl
o {mesh}Tree_Pine_Cone
v 19.062817 92.946602 -19.239937
v 25.686083 93.299225 10.820966
v -1.227369 93.653061 27.417332
v -27.017181 92.110130 7.163864
v -14.709455 92.188278 -21.052507
v 0.216095 148.062912 -0.104038
v 10.423100 65.586487 31.496859
v -28.098866 65.293335 20.387489
v -28.319151 65.293335 -20.236570
v 10.248550 65.293335 -32.999592
v 34.304981 65.293335 -0.263513
v -0.000002 117.588631 0.000002
v 0.000000 29.085886 -43.786995
v 43.125080 27.273708 -14.170172
v 26.556545 27.273708 36.822536
v -25.737358 29.085886 35.424431
v -41.643909 29.085886 -13.530932
v -0.251901 93.034462 -0.076136
v 0.000000 34.507782 -13.503043
v 12.842157 34.507782 -4.172670
v 7.936889 34.507782 10.924191
v -7.936891 34.507782 10.924191
v -12.842156 34.507782 -4.172672
v 0.000000 0.000001 -20.540384
v 19.535069 0.000001 -6.347327
v 12.073333 0.000001 16.617519
v -12.073336 0.000001 16.617519
v -19.535061 0.000001 -6.347330
vt 0.262692 0.635650
vt 0.213314 0.635650
vt 0.262692 0.635650
vt 0.262692 0.635650
vt 0.262692 0.635650
vt 0.262692 0.635650
vt 0.286522 0.624586
vt 0.175310 0.620924
vt 0.286522 0.624586
vt 0.286522 0.624586
vt 0.286522 0.624586
vt 0.286522 0.624586
vt 0.346548 0.632447
vt 0.110522 0.634889
vt 0.346548 0.632447
vt 0.346548 0.632447
vt 0.346548 0.632447
vt 0.346548 0.632447
vt 0.080935 0.880668
vt 0.162613 0.880668
vt 0.162613 0.880668
vt 0.080935 0.880668
vt 0.162613 0.880668
vt 0.080935 0.880668
vt 0.162613 0.880668
vt 0.080935 0.880668
vt 0.162613 0.880668
vt 0.080935 0.880668
vn 0.9027 0.3793 -0.2033
vn 0.4884 0.3835 0.7838
vn -0.5857 0.3782 0.7169
vn 0.0212 -0.9996 0.0194
vn -0.8530 0.3670 -0.3711
vn 0.0428 0.3407 -0.9392
vn -0.2486 0.4649 0.8498
vn -0.8801 0.4748 0.0048
vn -0.2767 0.4734 -0.8362
vn 0.0011 -1.0000 0.0033
vn 0.7115 0.4694 -0.5229
vn 0.7103 0.4633 0.5299
vn 0.5082 0.4874 -0.7101
vn 0.8294 0.4893 0.2695
vn -0.0065 0.4873 0.8732
vn -0.0251 -0.9997 -0.0082
vn -0.8331 0.4823 0.2707
vn -0.5149 0.4824 -0.7087
vn 0.5799 0.1628 -0.7982
vn 0.9384 0.1628 0.3049
vn 0.0000 0.1628 0.9867
vn -0.9384 0.1628 0.3049
vn -0.5799 0.1628 -0.7982
usemtl Material.005
s 1
f 1/1/1 6/2/1 2/3/1
f 2/3/2 6/2/2 3/4/2
f 3/4/3 6/2/3 4/5/3
f 1/1/4 2/3/4 3/4/4 4/5/4 5/6/4
f 4/5/5 6/2/5 5/6/5
f 5/6/6 6/2/6 1/1/6
f 7/7/7 12/8/7 8/9/7
f 8/9/8 12/8/8 9/10/8
f 9/10/9 12/8/9 10/11/9
f 7/7/10 8/9/10 9/10/10 10/11/10 11/12/10
f 10/11/11 12/8/11 11/12/11
f 11/12/12 12/8/12 7/7/12
f 13/13/13 18/14/13 14/15/13
f 14/15/14 18/14/14 15/16/14
f 15/16/15 18/14/15 16/17/15
f 13/13/16 14/15/16 15/16/16 16/17/16 17/18/16
f 16/17/17 18/14/17 17/18/17
f 17/18/18 18/14/18 13/13/18
f 24/19/19 19/20/19 20/21/19 25/22/19
f 25/22/20 20/21/20 21/23/20 26/24/20
f 26/24/21 21/23/21 22/25/21 27/26/21
f 27/26/22 22/25/22 23/27/22 28/28/22
f 28/28/23 23/27/23 19/20/23 24/19/23
