# Blender v3.1.2 OBJ File: 'farm.blend'
# www.blender.org
mtllib shared.mtl
o {mesh}Coffin_Cube.024
v -19.793201 0.000000 -28.407324
v -14.002397 11.027699 51.151711
v 19.793201 0.000000 -28.407324
v -15.291056 14.102184 -51.554726
v 23.147404 14.102184 -28.407324
v 14.002397 11.027699 51.151711
v -23.147404 14.102184 -28.407324
v 15.291056 14.102184 -51.554726
v -11.973363 0.000000 46.741432
v -13.075288 0.000000 -47.144447
v 13.075288 0.000000 -47.144447
v 11.973363 0.000000 46.741432
v -11.035693 25.739601 -28.407324
v -8.055600 25.739601 -42.259815
v 8.055600 25.739601 -42.259815
v 11.035693 25.739601 -28.407324
v 6.675743 22.665115 45.414997
v -6.675743 22.665115 45.414997
vt 0.366603 0.881862
vt 0.405671 0.881862
vt 0.405671 0.881862
vt 0.366603 0.881862
vt 0.405671 0.881862
vt 0.366603 0.881862
vt 0.366603 0.881862
vt 0.405671 0.881862
vt 0.397153 0.881862
vt 0.366603 0.881862
vt 0.397153 0.881862
vt 0.366603 0.881862
vt 0.491715 0.879536
vt 0.491715 0.879536
vt 0.523955 0.879536
vt 0.523955 0.879536
vt 0.500233 0.879536
vt 0.500233 0.879536
vt 0.532472 0.879536
vt 0.532472 0.879536
vt 0.611532 0.879536
vt 0.611532 0.879536
vt 0.603015 0.879536
vt 0.603015 0.879536
vt 0.611532 0.879536
vt 0.611532 0.879536
vt 0.500233 0.879536
vt 0.500233 0.879536
vt 0.532472 0.879536
vt 0.532472 0.879536
vn -0.9188 -0.2314 -0.3197
vn 0.0000 -0.2985 -0.9544
vn 0.9689 -0.2254 0.1018
vn 0.0000 -0.3713 0.9285
vn 0.0000 0.4422 0.8969
vn -0.7098 0.6730 -0.2079
vn 0.0000 0.9991 0.0416
vn 0.0000 1.0000 0.0000
vn -0.9689 -0.2254 0.1018
vn 0.9188 -0.2314 -0.3197
vn 0.7098 0.6730 -0.2079
vn 0.0000 0.6241 -0.7814
vn -0.7529 0.6516 0.0924
vn 0.7529 0.6516 0.0924
usemtl Material.005
s 1
f 1/1/1 7/2/1 4/3/1 10/4/1
f 10/4/2 4/3/2 8/5/2 11/6/2
f 3/7/3 5/8/3 6/9/3 12/10/3
f 12/10/4 6/9/4 2/11/4 9/12/4
f 2/13/5 6/14/5 17/15/5 18/16/5
f 4/17/6 7/18/6 13/19/6 14/20/6
f 16/21/7 13/22/7 18/23/7 17/24/7
f 15/25/8 14/26/8 13/22/8 16/21/8
f 9/12/9 2/11/9 7/2/9 1/1/9
f 11/6/10 8/5/10 5/8/10 3/7/10
f 5/27/11 8/28/11 15/29/11 16/30/11
f 8/28/12 4/17/12 14/20/12 15/29/12
f 7/18/13 2/13/13 18/16/13 13/19/13
f 6/14/14 5/27/14 16/30/14 17/15/14
