# Blender v3.1.2 OBJ File: 'farm.blend'
# www.blender.org
mtllib shared.mtl
o {mesh}Daisy_Cylinder.007
v -0.000000 18.138676 1.924706
v -1.730876 17.946009 1.502832
v -2.997966 17.419634 0.350249
v -3.461753 16.700594 -1.224208
v -2.997966 15.981553 -2.798664
v -1.730877 15.455180 -3.951246
v -0.000001 15.262514 -4.373120
v 1.730876 15.455180 -3.951246
v 2.997966 15.981553 -2.798665
v 3.461753 16.700594 -1.224209
v 2.997967 17.419634 0.350248
v 1.730878 17.946009 1.502831
v 0.000000 16.775940 3.179520
v -2.018530 16.551254 2.687534
v -3.496198 15.937402 1.343405
v -4.037061 15.098864 -0.492711
v -3.496197 14.260326 -2.328826
v -2.018531 13.646475 -3.672955
v -0.000001 13.421790 -4.164941
v 2.018530 13.646473 -3.672956
v 3.496197 14.260326 -2.328827
v 4.037061 15.098863 -0.492712
v 3.496198 15.937400 1.343403
v 2.018533 16.551254 2.687533
v -0.000000 18.632027 -0.086651
v -0.918556 18.529781 -0.310535
v -1.590985 18.250443 -0.922196
v -1.837111 17.868856 -1.757742
v -1.590985 17.487268 -2.593287
v -0.918556 17.207928 -3.204948
v -0.000000 17.105682 -3.428833
v 0.918555 17.207928 -3.204948
v 1.590984 17.487268 -2.593287
v 1.837111 17.868855 -1.757742
v 1.590986 18.250441 -0.922197
v 0.918557 18.529781 -0.310535
v -8.032687 12.069596 -9.675885
v -10.172638 14.613882 -4.470559
v -8.774915 15.040178 -3.138008
v -7.100739 15.296170 -2.105814
v -10.830700 12.931536 -7.779589
v -3.483877 14.387534 -3.199587
v -5.014862 14.413426 -4.563559
v -6.545890 14.445122 -5.930232
v 7.975297 20.296700 7.731171
v 11.101240 18.672007 4.191628
v 5.907673 20.162601 7.183814
v 4.251778 19.535208 6.303224
v 2.872335 18.737511 5.122276
v 8.718375 17.213718 1.245638
v 7.047147 16.567673 0.395085
v 9.673049 20.006618 7.080716
v 10.773311 19.434763 5.834875
v 3.435580 16.775183 1.815362
v 9.208732 20.042837 5.414019
v 4.958215 17.854767 2.664532
v 6.480803 18.940151 3.511000
v 10.328054 19.756882 6.533805
v -5.760519 20.846212 9.134009
v -3.863129 20.553490 8.181702
v -2.473938 19.804276 6.990120
v -1.428712 18.909576 5.561540
v -9.103032 18.745392 4.384027
v -8.038655 17.884096 2.957031
v -7.572120 20.696526 8.841961
v -8.942883 20.223526 7.848485
v -2.801148 17.024689 2.452318
v -7.452371 20.709379 7.115614
v -5.260571 19.409876 4.710144
v 9.597591 12.863919 -8.256171
v 7.982117 14.369796 -4.849400
v 3.804048 12.037004 -10.230820
v 1.375119 12.954268 -7.272268
v 2.752851 14.138026 -3.836543
v 8.284294 11.862517 -10.385256
v 1.140228 17.803829 4.492668
v 5.615319 14.960329 -1.686005
v -0.172711 18.108694 4.855465
v -5.943021 16.117575 0.673373
v -6.123457 15.434840 -0.795220
v -1.186032 13.028889 -5.723217
v -0.107124 12.985725 -5.833405
v -1.138158 12.796519 -6.512494
v -11.158628 13.694291 -6.136342
v -2.925928 13.126334 -6.833005
v -4.308317 12.718688 -8.195593
v -5.966756 12.427897 -9.232932
v -8.075133 14.240649 -7.186926
v -9.276249 13.664354 -7.983163
v -9.730436 12.359678 -9.025429
v -10.385444 12.609419 -8.478519
v 10.113554 17.976616 2.421441
v 8.005177 19.789370 4.467446
v -9.654980 19.502377 6.311459
v -4.030837 18.214380 3.582581
v -6.629907 17.114836 1.791920
v -6.488519 20.369200 5.947685
v -8.341682 20.503778 8.440543
v 5.703131 11.520083 -11.078722
v 3.974189 14.053814 -5.481609
v 5.195484 13.975395 -7.129375
v 2.417399 12.449617 -8.882486
v 6.418563 13.660814 -8.667164
v 9.043951 13.845102 -6.433145
v 6.576314 14.749007 -3.502649
v 8.885494 12.142770 -9.793199
v 7.384854 12.997810 -9.684758
v 7.514731 11.669770 -10.786674
v 0.061321 17.846991 4.602856
v 1.440370 18.044163 4.690722
v 5.733426 15.416537 -0.708268
v 6.071989 15.636905 -0.553718
v 5.895407 14.954824 -2.015539
v -5.779230 15.416180 -0.522282
v -5.661122 15.872386 0.455455
v 0.125097 12.963705 -6.197631
v -11.988872 13.031917 -4.675440
v -7.185853 10.535572 -10.113957
v -1.799632 11.697300 -7.706658
v -3.102275 11.053946 -9.067056
v -4.829380 10.631203 -9.946828
v -11.291728 13.989973 -2.629430
v -9.965214 14.620922 -1.296062
v -8.214240 15.031259 -0.443317
v -11.485006 11.859940 -7.200293
v -9.794451 10.981281 -9.114531
v -10.800871 11.365006 -8.274202
v 7.145055 19.634327 9.192072
v 11.948074 17.137983 3.753555
v 8.173443 15.138639 -0.478569
v 9.924417 15.548977 0.374176
v 11.250931 16.179924 1.707545
v 4.788583 19.538692 9.024942
v 3.061478 19.115952 8.145169
v 1.758835 18.472597 6.784773
v 9.753653 19.188618 8.192645
v 11.444209 18.309958 6.278408
v 10.760073 18.804892 7.352316
v -4.707530 20.108500 10.402575
v -10.691379 18.043694 6.065719
v -8.018735 15.786421 1.175135
v -9.523527 16.327007 2.360392
v -10.499501 17.050070 3.928912
v -2.448376 19.828215 9.764050
v -0.973324 19.277369 8.557242
v -0.027087 18.544044 6.967167
v -7.491058 19.878506 9.953844
v -9.597239 19.151739 8.427367
v -8.673492 19.582348 9.337063
v 10.650582 12.126203 -6.987605
v 4.666733 10.061399 -11.324462
v -0.013710 11.625852 -7.889053
v 0.932527 10.892528 -9.479126
v 2.407579 10.341681 -10.685936
v 10.458706 13.119827 -4.850799
v 9.482730 13.842890 -3.282277
v 7.977939 14.383477 -2.097022
v 9.556443 11.018158 -9.349254
v 7.450262 10.291392 -10.875731
v 8.632696 10.587548 -10.258949
v 0.407342 18.026108 5.847913
v 1.067886 17.999683 5.780452
v 6.940191 14.947584 -0.868832
v 6.867882 14.668279 -1.467437
v -6.980988 15.222314 -0.053054
v -6.908678 15.501618 0.545550
v -0.448138 12.143789 -6.769800
v -1.108683 12.170215 -6.702338
v 2.272558 14.387657 -3.292702
v -2.320855 16.775059 1.908477
v -0.024148 15.581358 -0.692112
v -2.185924 13.264900 -5.870385
v -4.105325 14.398043 -3.753242
v -3.258004 17.466686 2.872236
v 4.001272 17.176270 2.130847
v 3.206605 14.106740 -4.447721
v 0.000000 18.370783 -1.610548
v -0.171202 18.351727 -1.652275
v -0.296530 18.299662 -1.766278
v -0.342403 18.228540 -1.922008
v -0.296530 18.157421 -2.077738
v -0.171202 18.105356 -2.191741
v -0.000000 18.086300 -2.233468
v 0.171202 18.105356 -2.191741
v 0.296530 18.157421 -2.077738
v 0.342403 18.228540 -1.922008
v 0.296530 18.299662 -1.766278
v 0.171202 18.351727 -1.652275
v 0.000000 -5.647554 -2.000000
v 0.000000 15.013504 -2.000000
v 1.732051 -5.647554 -1.000000
v 1.732051 15.013504 -1.000000
v 1.732051 -5.647554 1.000000
v 1.732051 15.013504 1.000000
v -0.000000 -5.647555 2.000000
v -0.000000 15.013504 2.000000
v -1.732051 -5.647554 1.000000
v -1.732051 15.013504 1.000000
v -1.732051 -5.647554 -1.000000
v -1.732051 15.013504 -1.000000
v 0.000000 4.077172 0.918669
v 0.000000 9.574940 0.553835
v 1.732051 9.574940 1.553835
v 1.732051 4.077171 1.918669
v 1.732051 9.574940 3.553836
v 1.732051 4.077172 3.918669
v -0.000000 9.574940 4.553836
v -0.000000 4.077172 4.918670
v -1.732051 9.574940 3.553836
v -1.732051 4.077172 3.918669
v -1.732051 9.574940 1.553835
v -1.732051 4.077171 1.918669
vt 0.305664 0.210078
vt 0.305664 0.210078
vt 0.305664 0.210078
vt 0.305664 0.210078
vt 0.305664 0.210078
vt 0.305664 0.210078
vt 0.305664 0.210078
vt 0.305664 0.210078
vt 0.305664 0.210078
vt 0.305664 0.210078
vt 0.305664 0.210078
vt 0.305664 0.210078
vt 0.305664 0.210078
vt 0.305664 0.210078
vt 0.305664 0.210078
vt 0.305664 0.210078
vt 0.305664 0.210078
vt 0.305664 0.210078
vt 0.305664 0.210078
vt 0.305664 0.210078
vt 0.305664 0.210078
vt 0.305664 0.210078
vt 0.305664 0.210078
vt 0.305664 0.210078
vt 0.305664 0.210078
vt 0.305664 0.210078
vt 0.305664 0.210078
vt 0.305664 0.210078
vt 0.305664 0.210078
vt 0.305664 0.210078
vt 0.305664 0.210078
vt 0.305664 0.210078
vt 0.305664 0.210078
vt 0.305664 0.210078
vt 0.305664 0.210078
vt 0.305664 0.210078
vt 0.305664 0.210078
vt 0.305664 0.210078
vt 0.071289 0.448242
vt 0.071289 0.448242
vt 0.071289 0.448242
vt 0.071289 0.448242
vt 0.071289 0.448242
vt 0.071289 0.448242
vt 0.071289 0.448242
vt 0.071289 0.448242
vt 0.071289 0.448242
vt 0.071289 0.448242
vt 0.071289 0.448242
vt 0.071289 0.448242
vt 0.071289 0.448242
vt 0.071289 0.448242
vt 0.071289 0.448242
vt 0.071289 0.448242
vt 0.071289 0.448242
vt 0.071289 0.448242
vt 0.071289 0.448242
vt 0.071289 0.448242
vt 0.071289 0.448242
vt 0.071289 0.448242
vt 0.071289 0.448242
vt 0.071289 0.448242
vt 0.071289 0.448242
vt 0.071289 0.448242
vt 0.071289 0.448242
vt 0.071289 0.448242
vt 0.071289 0.448242
vt 0.071289 0.448242
vt 0.071289 0.448242
vt 0.071289 0.448242
vt 0.071289 0.448242
vt 0.071289 0.448242
vt 0.071289 0.448242
vt 0.071289 0.448242
vt 0.071289 0.448242
vt 0.071289 0.448242
vt 0.071289 0.448242
vt 0.071289 0.448242
vt 0.071289 0.448242
vt 0.071289 0.448242
vt 0.071289 0.448242
vt 0.071289 0.448242
vt 0.071289 0.448242
vt 0.071289 0.448242
vt 0.071289 0.448242
vt 0.071289 0.448242
vt 0.071289 0.448242
vt 0.071289 0.448242
vt 0.071289 0.448242
vt 0.071289 0.448242
vt 0.071289 0.448242
vt 0.071289 0.448242
vt 0.071289 0.448242
vt 0.071289 0.448242
vt 0.071289 0.448242
vt 0.071289 0.448242
vt 0.071289 0.448242
vt 0.071289 0.448242
vt 0.071289 0.448242
vt 0.071289 0.448242
vt 0.071289 0.448242
vt 0.071289 0.448242
vt 0.071289 0.448242
vt 0.071289 0.448242
vt 0.071289 0.448242
vt 0.071289 0.448242
vt 0.071289 0.448242
vt 0.071289 0.448242
vt 0.071289 0.448242
vt 0.071289 0.448242
vt 0.071289 0.448242
vt 0.071289 0.448242
vt 0.071289 0.448242
vt 0.071289 0.448242
vt 0.071289 0.448242
vt 0.071289 0.448242
vt 0.071289 0.448242
vt 0.071289 0.448242
vt 0.071289 0.448242
vt 0.071289 0.448242
vt 0.071289 0.448242
vt 0.071289 0.448242
vt 0.071289 0.448242
vt 0.071289 0.448242
vt 0.071289 0.448242
vt 0.071289 0.448242
vt 0.071289 0.448242
vt 0.071289 0.448242
vt 0.071289 0.448242
vt 0.071289 0.448242
vt 0.071289 0.448242
vt 0.071289 0.448242
vt 0.071289 0.448242
vt 0.071289 0.448242
vt 0.071289 0.448242
vt 0.071289 0.448242
vt 0.071289 0.448242
vt 0.071289 0.448242
vt 0.071289 0.448242
vt 0.071289 0.448242
vt 0.071289 0.448242
vt 0.071289 0.448242
vt 0.071289 0.448242
vt 0.071289 0.448242
vt 0.071289 0.448242
vt 0.071289 0.448242
vt 0.071289 0.448242
vt 0.071289 0.448242
vt 0.071289 0.448242
vt 0.071289 0.448242
vt 0.071289 0.448242
vt 0.071289 0.448242
vt 0.071289 0.448242
vt 0.071289 0.448242
vt 0.071289 0.448242
vt 0.071289 0.448242
vt 0.071289 0.448242
vt 0.071289 0.448242
vt 0.071289 0.448242
vt 0.071289 0.448242
vt 0.071289 0.448242
vt 0.071289 0.448242
vt 0.071289 0.448242
vt 0.071289 0.448242
vt 0.071289 0.448242
vt 0.071289 0.448242
vt 0.071289 0.448242
vt 0.071289 0.448242
vt 0.071289 0.448242
vt 0.071289 0.448242
vt 0.071289 0.448242
vt 0.071289 0.448242
vt 0.071289 0.448242
vt 0.071289 0.448242
vt 0.071289 0.448242
vt 0.071289 0.448242
vt 0.071289 0.448242
vt 0.071289 0.448242
vt 0.305664 0.210078
vt 0.305664 0.210078
vt 0.305664 0.210078
vt 0.305664 0.210078
vt 0.305664 0.210078
vt 0.305664 0.210078
vt 0.305664 0.210078
vt 0.305664 0.210078
vt 0.305664 0.210078
vt 0.305664 0.210078
vt 0.228117 0.627930
vt 0.228117 0.627930
vt 0.228117 0.627930
vt 0.228117 0.627930
vt 0.228117 0.627930
vt 0.228117 0.627930
vt 0.228117 0.627930
vt 0.228117 0.627930
vt 0.228117 0.627930
vt 0.228117 0.627930
vt 0.228117 0.627930
vt 0.228117 0.627930
vt 0.228117 0.627930
vt 0.228117 0.627930
vt 0.228117 0.627930
vt 0.228117 0.627930
vt 0.228117 0.627930
vt 0.228117 0.627930
vt 0.228117 0.627930
vt 0.228117 0.627930
vt 0.228117 0.627930
vt 0.228117 0.627930
vt 0.228117 0.627930
vt 0.228117 0.627930
vn 0.4174 0.2004 -0.8863
vn 0.2368 0.6307 -0.7390
vn 0.4102 0.7028 -0.5813
vn 0.7230 0.3274 -0.6084
vn 0.4174 0.8011 0.4289
vn -0.0000 0.8476 0.5307
vn -0.0000 0.6774 0.7356
vn 0.4753 0.6245 0.6198
vn 0.7230 0.6742 0.1510
vn 0.8232 0.4799 0.3033
vn 0.8348 0.5008 -0.2287
vn 0.9506 0.2825 -0.1290
vn 0.8232 0.0851 -0.5613
vn 0.4753 -0.0595 -0.8778
vn 0.0000 0.1540 -0.9881
vn 0.0000 -0.1124 -0.9937
vn -0.4174 0.2004 -0.8863
vn -0.4753 -0.0595 -0.8778
vn -0.7230 0.3274 -0.6084
vn -0.8232 0.0851 -0.5613
vn -0.8348 0.5008 -0.2287
vn -0.9506 0.2825 -0.1290
vn -0.7230 0.6742 0.1510
vn -0.8232 0.4799 0.3033
vn -0.4174 0.8011 0.4289
vn -0.4753 0.6245 0.6198
vn -0.4102 0.8995 -0.1505
vn -0.1299 0.9305 -0.3425
vn -0.1500 0.8993 -0.4107
vn -0.4736 0.8011 -0.3659
vn 0.4736 0.8011 -0.3659
vn 0.4102 0.8995 -0.1505
vn -0.4102 0.7028 -0.5813
vn -0.2368 0.6307 -0.7390
vn 0.2368 0.9715 0.0072
vn -0.0000 0.9979 0.0649
vn 0.0000 0.6044 -0.7967
vn -0.2368 0.9715 0.0072
vn 0.0912 0.9389 -0.3320
vn -0.1080 0.6556 -0.7474
vn 0.2679 0.8850 -0.3807
vn 0.2175 0.9457 -0.2415
vn 0.1046 0.9357 -0.3370
vn -0.0197 0.7870 -0.6166
vn -0.1904 0.8701 -0.4546
vn -0.1185 0.8586 -0.4987
vn -0.2313 0.7905 -0.5671
vn 0.0061 0.9788 -0.2046
vn 0.1776 0.9100 -0.3746
vn 0.0297 0.9777 -0.2080
vn 0.0746 0.9915 -0.1063
vn -0.1601 0.9586 -0.2355
vn -0.1870 0.9618 -0.1999
vn -0.0216 0.9139 -0.4053
vn 0.0823 0.8510 -0.5187
vn 0.0459 0.8144 -0.5785
vn -0.0902 0.8180 -0.5681
vn -0.2308 0.8968 -0.3775
vn -0.3287 0.8872 -0.3237
vn -0.1979 0.8128 -0.5478
vn -0.2232 0.8854 -0.4076
vn -0.0835 0.9454 -0.3151
vn -0.0959 0.9436 -0.3170
vn 0.3312 0.8168 -0.4724
vn 0.1841 0.9448 -0.2710
vn 0.1739 0.7743 -0.6085
vn 0.2200 0.8787 -0.4236
vn 0.1719 0.6463 -0.7435
vn -0.1294 0.4369 -0.8902
vn -0.2132 0.8028 -0.5568
vn -0.0148 0.9037 -0.4279
vn 0.2996 0.7508 -0.5887
vn 0.1256 0.9390 -0.3201
vn -0.6399 0.7022 -0.3121
vn -0.3593 0.9223 -0.1421
vn -0.1517 0.9854 -0.0776
vn -0.0161 0.9951 -0.0971
vn -0.4022 0.3668 -0.8389
vn -0.5824 0.4093 -0.7023
vn -0.6820 0.5122 -0.5220
vn 0.0011 0.9092 -0.4164
vn 0.2000 0.9454 -0.2573
vn 0.6293 0.6987 -0.3403
vn 0.3470 0.7067 -0.6166
vn -0.1391 0.8477 -0.5119
vn 0.1390 0.6954 -0.7051
vn 0.0030 0.7149 -0.6993
vn -0.1842 0.9828 -0.0151
vn 0.1188 0.9640 0.2378
vn -0.3123 0.9300 -0.1940
vn 0.5732 0.8081 0.1353
vn 0.6726 0.7376 -0.0600
vn 0.3927 0.8830 0.2569
vn -0.4073 0.7369 -0.5395
vn -0.6278 0.7490 -0.2119
vn -0.1725 0.9603 -0.2193
vn -0.0132 0.9098 -0.4149
vn -0.0875 0.7185 -0.6900
vn -0.2231 0.7099 -0.6681
vn 0.0995 0.8381 -0.5363
vn 0.1469 0.7990 -0.5831
vn 0.0082 0.9685 0.2491
vn 0.2544 0.9652 -0.0599
vn 0.3392 0.9039 -0.2605
vn 0.3257 0.8611 -0.3905
vn -0.6104 0.7889 0.0711
vn -0.4684 0.8498 0.2417
vn -0.2617 0.9092 0.3237
vn -0.0005 0.9031 -0.4294
vn 0.1593 0.7879 -0.5949
vn -0.0188 0.4325 -0.9015
vn -0.2667 0.6638 -0.6987
vn -0.1130 0.9486 -0.2957
vn -0.3519 0.7768 -0.5222
vn -0.3386 0.8489 -0.4058
vn 0.3950 0.8922 -0.2191
vn 0.6172 0.6519 -0.4405
vn 0.2104 0.9709 -0.1146
vn 0.4592 0.3677 -0.8087
vn 0.2523 0.3406 -0.9057
vn 0.6009 0.4609 -0.6531
vn -0.1717 0.9275 -0.3321
vn -0.0428 0.7881 -0.6140
vn 0.1587 0.8531 -0.4970
vn 0.1598 0.5811 -0.7980
vn 0.4067 0.6907 -0.5979
vn -0.1279 0.2955 -0.9467
vn -0.3534 0.5180 -0.7790
vn -0.3873 0.6169 -0.6851
vn -0.5567 0.6236 -0.5488
vn -0.2397 0.9572 0.1623
vn 0.0337 0.9197 0.3911
vn -0.3869 0.7371 -0.5541
vn -0.2957 0.6153 -0.7307
vn -0.2017 0.9783 0.0473
vn -0.3366 0.9317 -0.1363
vn 0.2634 0.9610 -0.0841
vn -0.1981 0.9795 -0.0370
vn 0.1188 0.9163 0.3824
vn 0.3425 0.9339 0.1029
vn -0.3665 0.9303 -0.0124
vn -0.4618 0.7016 -0.5427
vn -0.2131 0.6222 -0.7532
vn -0.4405 0.6445 -0.6249
vn -0.4692 0.0786 -0.8796
vn -0.7143 0.1254 -0.6885
vn 0.4288 0.8985 -0.0936
vn -0.4086 0.9069 -0.1027
vn 0.3232 0.7085 -0.6273
vn 0.3738 0.9037 -0.2091
vn -0.0428 0.2921 -0.9554
vn 0.7087 0.6165 0.3429
vn 0.8438 0.5317 0.0721
vn 0.4499 0.8726 -0.1903
vn 0.2288 0.4947 -0.8384
vn 0.5457 0.8282 -0.1273
vn 0.7382 0.5944 -0.3190
vn -0.8499 0.2765 -0.4485
vn -0.7380 0.6535 -0.1682
vn 0.7289 0.5584 -0.3961
vn 0.3757 0.9262 -0.0334
vn 0.4631 0.7296 0.5032
vn 0.3548 0.6127 -0.7062
vn -0.7672 0.5962 0.2366
vn -0.5739 0.6678 0.4739
vn 0.2838 0.9589 -0.0023
vn 0.4820 0.5821 -0.6549
vn -0.7474 0.6175 -0.2453
vn 0.5683 0.0741 -0.8195
vn 0.2868 0.0484 -0.9568
vn -0.4930 0.8698 -0.0212
vn -0.2929 0.7599 0.5804
vn 0.2886 0.5899 -0.7542
vn 0.1899 0.5959 -0.7803
vn -0.3003 0.9532 0.0356
vn 0.7611 0.2121 -0.6130
vn 0.0079 0.8986 -0.4388
vn -0.0068 0.9065 -0.4221
vn -0.0000 0.9616 -0.2743
vn 0.0750 0.9533 -0.2926
vn 0.1299 0.9305 -0.3425
vn 0.1500 0.8993 -0.4107
vn 0.1299 0.8682 -0.4789
vn 0.0750 0.8454 -0.5289
vn -0.0000 0.8370 -0.5471
vn -0.0750 0.8454 -0.5289
vn -0.1299 0.8682 -0.4789
vn -0.0750 0.9533 -0.2926
vn -0.0000 -0.2656 -0.9641
vn -0.0000 -0.4250 -0.9052
vn 0.7779 -0.2671 -0.5688
vn 0.8889 -0.1084 -0.4451
vn 0.9100 0.1763 0.3754
vn 0.8360 0.1457 0.5291
vn -0.0000 0.4250 0.9052
vn -0.0000 0.2367 0.9716
vn -0.9100 0.1763 0.3754
vn -0.8360 0.1457 0.5291
vn -0.7779 -0.2671 -0.5688
vn -0.8889 -0.1084 -0.4451
vn 0.0000 -0.4989 -0.8667
vn 0.6924 -0.5459 -0.4719
vn 0.6831 -0.6565 0.3200
vn -0.0000 -0.7170 0.6971
vn -0.6831 -0.6565 0.3200
vn -0.6924 -0.5459 -0.4719
vn -0.8900 0.0486 -0.4534
vn -0.0000 0.1193 -0.9929
vn -0.8406 -0.0646 0.5378
vn 0.0000 -0.1066 0.9943
vn 0.8406 -0.0646 0.5378
vn 0.8900 0.0486 -0.4534
usemtl Material.005
s 1
f 8/1/1 32/2/2 33/3/3 9/4/4
f 12/5/5 1/6/6 13/7/7 24/8/8
f 11/9/9 12/5/5 24/8/8 23/10/10
f 10/11/11 11/9/9 23/10/10 22/12/12
f 9/4/4 10/11/11 22/12/12 21/13/13
f 8/1/1 9/4/4 21/13/13 20/14/14
f 7/15/15 8/1/1 20/14/14 19/16/16
f 6/17/17 7/15/15 19/16/16 18/18/18
f 5/19/19 6/17/17 18/18/18 17/20/20
f 4/21/21 5/19/19 17/20/20 16/22/22
f 3/23/23 4/21/21 16/22/22 15/24/24
f 2/25/25 3/23/23 15/24/24 14/26/26
f 1/6/6 2/25/25 14/26/26 13/7/7
f 27/27/27 179/28/28 180/29/29 28/30/30
f 3/23/23 27/27/27 28/30/30 4/21/21
f 10/11/11 34/31/31 35/32/32 11/9/9
f 5/19/19 29/33/33 30/34/34 6/17/17
f 12/5/5 36/35/35 25/36/36 1/6/6
f 7/15/15 31/37/37 32/2/2 8/1/1
f 2/25/25 26/38/38 27/27/27 3/23/23
f 9/4/4 33/3/3 34/31/31 10/11/11
f 4/21/21 28/30/30 29/33/33 5/19/19
f 11/9/9 35/32/32 36/35/35 12/5/5
f 6/17/17 30/34/34 31/37/37 7/15/15
f 1/6/6 25/36/36 26/38/38 2/25/25
f 81/39/39 83/40/40 172/41/41 173/42/42 42/43/43
f 112/44/44 111/45/45 54/46/46 175/47/47
f 173/42/42 80/48/48 114/49/49 42/43/43
f 113/50/50 105/51/51 100/52/52 176/53/53
f 170/54/54 67/55/55 109/56/56 76/57/57
f 110/58/58 49/59/59 56/60/60 175/47/47
f 116/61/61 82/62/62 74/63/63 176/53/53
f 173/42/42 172/41/41 85/64/64 43/65/65
f 174/66/66 78/67/67 109/56/56 67/55/55
f 87/68/68 37/69/69 89/70/70 88/71/71
f 85/64/64 86/72/72 44/73/73 43/65/65
f 86/72/72 87/68/68 88/71/71 44/73/73
f 84/74/74 38/75/75 88/71/71 89/70/70
f 38/75/75 39/76/76 44/73/73 88/71/71
f 39/76/76 40/77/77 43/65/65 44/73/73
f 89/70/70 90/78/78 91/79/79
f 89/70/70 37/69/69 90/78/78
f 89/70/70 41/80/80 84/74/74
f 89/70/70 91/79/79 41/80/80
f 93/81/81 55/82/82 46/83/83 92/84/84
f 56/60/60 57/85/85 50/86/86 51/87/87
f 57/85/85 93/81/81 92/84/84 50/86/86
f 55/82/82 93/81/81 47/88/88 45/89/89
f 93/81/81 57/85/85 48/90/90 47/88/88
f 57/85/85 56/60/60 49/59/59 48/90/90
f 58/91/91 53/92/92 55/82/82
f 53/92/92 46/83/83 55/82/82
f 45/89/89 52/93/93 55/82/82
f 52/93/93 58/91/91 55/82/82
f 63/94/94 94/95/95 68/96/96 97/97/97
f 96/98/98 64/99/99 69/100/100 95/101/101
f 64/99/99 63/94/94 97/97/97 69/100/100
f 59/102/102 60/103/103 97/97/97 68/96/96
f 60/103/103 61/104/104 69/100/100 97/97/97
f 61/104/104 62/105/105 95/101/101 69/100/100
f 68/96/96 66/106/106 98/107/107
f 68/96/96 94/95/95 66/106/106
f 68/96/96 65/108/108 59/102/102
f 68/96/96 98/107/107 65/108/108
f 103/109/109 107/110/110 99/111/111 72/112/112
f 100/52/52 101/113/113 102/114/114 73/115/115
f 101/113/113 103/109/109 72/112/112 102/114/114
f 107/110/110 103/109/109 104/116/116 70/117/117
f 103/109/109 101/113/113 71/118/118 104/116/116
f 101/113/113 100/52/52 105/51/51 71/118/118
f 75/119/119 108/120/120 107/110/110
f 108/120/120 99/111/111 107/110/110
f 70/117/117 106/121/121 107/110/110
f 106/121/121 75/119/119 107/110/110
f 78/67/67 110/58/58 76/57/57 109/56/56
f 112/44/44 113/50/50 77/122/122 111/45/45
f 80/48/48 79/123/123 115/124/124 114/49/49
f 116/61/61 83/40/40 81/39/39 82/62/62
f 73/115/115 116/61/61 176/53/53 100/52/52
f 76/57/57 110/58/58 175/47/47 54/46/46
f 51/87/87 112/44/44 175/47/47 56/60/60
f 95/101/101 62/105/105 78/67/67 174/66/66
f 77/122/122 113/50/50 176/53/53 74/63/63
f 115/124/124 79/123/123 174/66/66 67/55/55
f 43/65/65 40/77/77 80/48/48 173/42/42
f 85/64/64 172/41/41 168/125/125 119/126/126
f 72/112/112 99/111/111 151/127/127 154/128/128
f 63/94/94 64/99/99 142/129/129 143/130/130
f 45/89/89 47/88/88 133/131/131 128/132/132
f 96/98/98 79/123/123 166/133/133 141/134/134
f 80/48/48 40/77/77 124/135/135 165/136/136
f 110/58/58 78/67/67 161/137/137 162/138/138
f 60/103/103 59/102/102 139/139/139 144/140/140
f 47/88/88 48/90/90 134/141/141 133/131/131
f 116/61/61 73/115/115 152/142/142 167/143/143
f 73/115/115 102/114/114 153/144/144 152/142/142
f 91/79/79 90/78/78 126/145/145 127/146/146
f 102/114/114 72/112/112 154/128/128 153/144/144
f 61/104/104 60/103/103 144/140/140 145/147/147
f 48/90/90 49/59/59 135/148/148 134/141/141
f 172/41/41 83/40/40 168/125/125
f 113/50/50 112/44/44 163/149/149 164/150/150
f 90/78/78 37/69/69 118/151/151 126/145/145
f 53/92/92 58/91/91 138/152/152 137/153/153
f 62/105/105 61/104/104 145/147/147 146/154/154
f 37/69/69 87/68/68 121/155/155 118/151/151
f 70/117/117 104/116/116 155/156/156 150/157/157
f 41/80/80 125/158/158 117/159/159 84/74/74
f 79/123/123 80/48/48 165/136/136 166/133/133
f 46/83/83 53/92/92 137/153/153 129/160/160
f 41/80/80 91/79/79 127/146/146 125/158/158
f 104/116/116 71/118/118 156/161/161 155/156/156
f 52/93/93 45/89/89 128/132/132 136/162/162
f 86/72/72 85/64/64 119/126/126 120/163/163
f 83/40/40 116/61/61 167/143/143 168/125/125
f 98/107/107 66/106/106 148/164/164 149/165/165
f 71/118/118 105/51/51 157/166/166 156/161/161
f 58/91/91 52/93/93 136/162/162 138/152/152
f 92/84/84 46/83/83 129/160/160 132/167/167
f 87/68/68 86/72/72 120/163/163 121/155/155
f 66/106/106 94/95/95 140/168/168 148/164/164
f 49/59/59 110/58/58 162/138/138 135/148/148
f 108/120/120 75/119/119 160/169/169 159/170/170
f 94/95/95 63/94/94 143/130/130 140/168/168
f 38/75/75 84/74/74 117/159/159 122/171/171
f 59/102/102 65/108/108 147/172/172 139/139/139
f 51/87/87 50/86/86 131/173/173 130/174/174
f 78/67/67 62/105/105 146/154/154 161/137/137
f 99/111/111 108/120/120 159/170/170 151/127/127
f 112/44/44 51/87/87 130/174/174 163/149/149
f 65/108/108 98/107/107 149/165/165 147/172/172
f 50/86/86 92/84/84 132/167/167 131/173/173
f 39/76/76 38/75/75 122/171/171 123/175/175
f 106/121/121 70/117/117 150/157/157 158/176/176
f 64/99/99 96/98/98 141/134/134 142/129/129
f 105/51/51 113/50/50 164/150/150 157/166/166
f 40/77/77 39/76/76 123/175/175 124/135/135
f 75/119/119 106/121/121 158/176/176 160/169/169
f 169/177/177 171/178/178 54/46/46 111/45/45
f 42/43/43 114/49/49 170/54/54 171/178/178
f 81/39/39 42/43/43 171/178/178 169/177/177
f 114/49/49 115/124/124 67/55/55 170/54/54
f 171/178/178 170/54/54 76/57/57 54/46/46
f 74/63/63 169/177/177 111/45/45 77/122/122
f 82/62/62 81/39/39 169/177/177 74/63/63
f 79/123/123 96/98/98 95/101/101 174/66/66
f 177/179/179 188/180/180 187/181/181 186/182/182 185/183/183 184/184/184 183/185/185 182/186/186 181/187/187 180/29/29 179/28/28 178/188/188
f 34/31/31 186/182/182 187/181/181 35/32/32
f 31/37/37 183/185/185 184/184/184 32/2/2
f 28/30/30 180/29/29 181/187/187 29/33/33
f 35/32/32 187/181/181 188/180/180 36/35/35
f 25/36/36 177/179/179 178/188/188 26/38/38
f 32/2/2 184/184/184 185/183/183 33/3/3
f 29/33/33 181/187/187 182/186/186 30/34/34
f 36/35/35 188/180/180 177/179/179 25/36/36
f 26/38/38 178/188/188 179/28/28 27/27/27
f 33/3/3 185/183/183 186/182/182 34/31/31
f 30/34/34 182/186/186 183/185/185 31/37/37
f 202/189/189 190/190/190 192/191/191 203/192/192
f 203/192/192 192/191/191 194/193/193 205/194/194
f 205/194/194 194/193/193 196/195/195 207/196/196
f 207/196/196 196/195/195 198/197/197 209/198/198
f 209/198/198 198/197/197 200/199/199 211/200/200
f 211/200/200 200/199/199 190/190/190 202/189/189
f 189/201/201 191/202/202 193/203/203 195/204/204 197/205/205 199/206/206
f 199/206/206 212/207/207 201/208/208 189/201/201
f 212/207/207 211/200/200 202/189/189 201/208/208
f 197/205/205 210/209/209 212/207/207 199/206/206
f 210/209/209 209/198/198 211/200/200 212/207/207
f 195/204/204 208/210/210 210/209/209 197/205/205
f 208/210/210 207/196/196 209/198/198 210/209/209
f 193/203/203 206/211/211 208/210/210 195/204/204
f 206/211/211 205/194/194 207/196/196 208/210/210
f 191/202/202 204/212/212 206/211/211 193/203/203
f 204/212/212 203/192/192 205/194/194 206/211/211
f 189/201/201 201/208/208 204/212/212 191/202/202
f 201/208/208 202/189/189 203/192/192 204/212/212
