# Blender v3.1.2 OBJ File: 'farm.blend'
# www.blender.org
mtllib shared.mtl
o {mesh}Tombstone_3_Cube.035
v -23.069805 7.172320 7.812533
v -23.069805 7.172320 -7.812533
v 23.069805 7.172320 7.812533
v 23.069805 7.172320 -7.812533
v -26.339743 -0.000006 11.223655
v -26.339743 -0.000006 -11.223655
v 26.339743 -0.000006 -11.223655
v 26.339743 -0.000006 11.223655
v -26.339743 7.172320 11.223655
v -26.339743 7.172320 -11.223655
v 26.339743 7.172320 -11.223655
v 26.339743 7.172320 11.223655
v -23.069805 43.111984 7.812533
v -23.069805 43.111984 -7.812533
v 23.069805 43.111984 -7.812533
v 23.069805 43.111984 7.812533
v -25.610888 43.111984 10.654410
v -25.610888 43.111984 -10.654410
v 25.610888 43.111984 -10.654410
v 25.610888 43.111984 10.654410
v -25.610888 48.217602 10.654410
v -25.610888 48.217602 -10.654410
v 25.610888 48.217602 -10.654410
v 25.610888 48.217602 10.654410
v -21.277256 48.217602 -10.654410
v 21.277256 48.217602 -10.654410
v -21.277258 48.217602 10.654410
v 21.277256 48.217602 10.654410
v 0.000000 7.172320 -11.223655
v 0.000000 7.172320 11.223655
v 0.000000 -0.000006 11.223655
v 0.000000 -0.000006 -11.223655
v 0.000000 7.172320 -7.812533
v 0.000000 7.172320 7.812533
v 0.000000 43.111984 -7.812533
v 0.000000 43.111984 7.812533
v 0.000000 43.111984 -10.654410
v 0.000000 43.111984 10.654410
v 0.000000 48.217602 -10.654410
v 0.000000 58.190285 -10.654410
v 0.000000 58.190285 10.654410
v -0.000002 48.217602 10.654410
vt 0.495465 0.631723
vt 0.501141 0.631723
vt 0.501141 0.631723
vt 0.495465 0.631723
vt 0.495465 0.631723
vt 0.501141 0.631723
vt 0.501141 0.631723
vt 0.495465 0.631723
vt 0.501141 0.631723
vt 0.495465 0.631723
vt 0.495465 0.631723
vt 0.501141 0.631723
vt 0.529461 0.631723
vt 0.529461 0.631723
vt 0.557899 0.631723
vt 0.557899 0.631723
vt 0.501141 0.631723
vt 0.501141 0.631723
vt 0.501141 0.631723
vt 0.501141 0.631723
vt 0.501141 0.631723
vt 0.501141 0.631723
vt 0.557899 0.631723
vt 0.557899 0.631723
vt 0.557899 0.631723
vt 0.557899 0.631723
vt 0.529461 0.631723
vt 0.529461 0.631723
vt 0.529461 0.631723
vt 0.557899 0.631723
vt 0.529461 0.631723
vt 0.557899 0.631723
vt 0.493446 0.642465
vt 0.493446 0.642465
vt 0.497486 0.642465
vt 0.497486 0.642465
vt 0.557899 0.631723
vt 0.557899 0.631723
vt 0.557899 0.631723
vt 0.557899 0.631723
vt 0.497486 0.642465
vt 0.497486 0.642465
vt 0.493446 0.642465
vt 0.493446 0.642465
vt 0.497486 0.642465
vt 0.497486 0.642465
vt 0.497486 0.642465
vt 0.497486 0.642465
vt 0.505377 0.642465
vt 0.505377 0.642465
vt 0.497486 0.642465
vt 0.497486 0.642465
vt 0.493446 0.642465
vt 0.493446 0.642465
vn -1.0000 0.0000 0.0000
vn 0.0000 0.0000 -1.0000
vn 1.0000 0.0000 0.0000
vn 0.0000 0.0000 1.0000
vn 0.0000 1.0000 0.0000
vn 0.0000 -1.0000 0.0000
vn 0.4244 0.9055 0.0000
vn -0.4244 0.9055 0.0000
usemtl Material.005
s 1
f 5/1/1 9/2/1 10/3/1 6/4/1
f 32/5/2 29/6/2 11/7/2 7/8/2
f 7/8/3 11/7/3 12/9/3 8/10/3
f 31/11/4 30/12/4 9/2/4 5/1/4
f 2/13/1 1/14/1 13/15/1 14/16/1
f 1/17/5 2/18/5 10/3/5 9/2/5
f 33/19/5 4/20/5 11/7/5 29/6/5
f 4/20/5 3/21/5 12/9/5 11/7/5
f 34/22/5 1/17/5 9/2/5 30/12/5
f 36/23/6 16/24/6 20/25/6 38/26/6
f 34/27/4 3/28/4 16/24/4 36/23/4
f 33/29/2 2/13/2 14/16/2 35/30/2
f 3/28/3 4/31/3 15/32/3 16/24/3
f 20/33/3 19/34/3 23/35/3 24/36/3
f 35/30/6 14/16/6 18/37/6 37/38/6
f 16/24/6 15/32/6 19/39/6 20/25/6
f 14/16/6 13/15/6 17/40/6 18/37/6
f 24/36/5 23/35/5 26/41/5 28/42/5
f 18/43/1 17/44/1 21/45/1 22/46/1
f 20/33/4 24/36/4 28/42/4
f 18/43/2 22/46/2 25/47/2
f 22/46/5 21/45/5 27/48/5 25/47/5
f 40/49/7 41/50/7 28/42/7 26/41/7
f 42/51/4 28/42/4 41/50/4
f 39/52/2 25/47/2 40/49/2
f 21/45/4 17/44/4 27/48/4
f 38/53/4 20/33/4 28/42/4 42/51/4
f 23/35/2 19/34/2 26/41/2
f 37/54/2 18/43/2 25/47/2 39/52/2
f 19/34/2 37/54/2 39/52/2 26/41/2
f 17/44/4 38/53/4 42/51/4 27/48/4
f 26/41/2 39/52/2 40/49/2
f 27/48/4 42/51/4 41/50/4
f 15/32/6 35/30/6 37/38/6 19/39/6
f 4/31/2 33/29/2 35/30/2 15/32/2
f 1/14/4 34/27/4 36/23/4 13/15/4
f 13/15/6 36/23/6 38/26/6 17/40/6
f 3/21/5 34/22/5 30/12/5 12/9/5
f 2/18/5 33/19/5 29/6/5 10/3/5
f 8/10/4 12/9/4 30/12/4 31/11/4
f 6/4/2 10/3/2 29/6/2 32/5/2
f 25/47/8 27/48/8 41/50/8 40/49/8
