# Blender v3.1.2 OBJ File: 'farm.blend'
# www.blender.org
mtllib shared.mtl
o {mesh}Tree_Tall_Cylinder.006
v 0.079775 -0.000003 -8.219643
v -0.005582 39.523281 -3.793779
v 5.911914 -0.000003 -1.947230
v 3.534313 39.523281 -1.221895
v 3.653001 -0.000003 5.004989
v 2.182193 39.523281 2.939502
v -3.820146 -0.000003 5.936245
v -2.193358 39.523281 2.939502
v -5.915905 -0.000003 -1.947230
v -3.545478 39.523281 -1.221895
v -18.811054 42.082005 18.811136
v -10.125432 134.675278 10.125509
v -18.811054 42.082005 -18.811111
v -10.125432 134.675278 -10.125474
v 18.811193 42.082005 18.811136
v 10.125550 134.675278 10.125509
v 18.811193 42.082005 -18.811111
v 10.125550 134.675278 -10.125474
v -16.684250 97.197884 16.684332
v -16.684248 97.197884 -16.684303
v 16.684381 97.197884 -16.684298
v 16.684378 97.197884 16.684332
v 0.000070 37.114620 -20.901234
v 0.000059 137.349075 -11.250530
v 0.000070 37.114620 20.901260
v 0.000059 137.349075 11.250566
v 0.000066 95.457344 20.867317
v 0.000066 95.457344 -20.867290
v -20.901178 37.114620 0.000013
v -11.250488 137.349075 0.000018
v 20.901320 37.114620 0.000013
v 11.250607 137.349075 0.000018
v 20.867371 95.457336 0.000015
v -20.867243 95.457336 0.000015
v 0.000059 142.696686 0.000018
v 0.000070 32.342255 0.000013
v -20.543150 37.965519 11.747288
v -12.092845 124.445892 12.092924
v -11.057770 136.891068 -6.323205
v -20.161711 60.346268 -20.161768
v -11.747205 37.965519 -20.543205
v 6.323282 136.891068 -11.057811
v 20.161852 60.346268 -20.161768
v 20.543289 37.965519 -11.747263
v 11.057889 136.891068 6.323241
v 20.161850 60.346268 20.161797
v 11.747345 37.965519 20.543230
v -6.323164 136.891068 11.057847
v -20.161711 60.346268 20.161797
v -12.092846 124.445892 -12.092888
v 12.092966 124.445892 -12.092889
v 12.092967 124.445892 12.092922
v -9.671218 96.863876 19.763071
v 19.763124 96.863876 9.671299
v 9.671350 96.863869 -19.763046
v -19.762997 96.863869 -9.671270
v 11.747345 37.965523 -20.543205
v -6.323165 136.891052 -11.057811
v -11.747206 37.965519 20.543232
v 6.323282 136.891068 11.057847
v 9.671350 96.863869 19.763075
v -9.671219 96.863876 -19.763042
v 0.000069 58.932686 -24.342432
v 0.000069 58.932686 24.342459
v 0.000059 142.028214 6.469082
v 0.000070 29.412788 12.018230
v 0.000061 124.211731 15.110692
v 0.000061 124.211731 -15.110660
v -20.543150 37.965523 -11.747262
v -11.057770 136.891068 6.323241
v 20.543289 37.965519 11.747288
v 11.057889 136.891068 -6.323205
v 19.763124 96.863876 -9.671268
v -19.762993 96.863869 9.671299
v 0.000059 142.028214 -6.469046
v 0.000070 29.412783 -12.018206
v -12.018148 29.412783 0.000013
v 6.469124 142.028214 0.000018
v -24.342377 58.932686 0.000013
v 24.342516 58.932686 0.000013
v -6.469005 142.028214 0.000018
v 12.018288 29.412777 0.000013
v 15.110746 124.211731 0.000017
v -15.110615 124.211731 0.000017
v -14.362116 124.535843 -7.134852
v 7.134931 124.535843 -14.362160
v 14.362237 124.535843 7.134887
v -7.134810 124.535843 14.362195
v 11.950552 29.617554 11.950496
v -6.432544 141.384537 6.432622
v -11.767244 59.613098 23.687094
v 23.687149 59.613098 11.767327
v 11.767383 59.613098 -23.687067
v -23.687012 59.613098 -11.767301
v -11.767244 59.613098 -23.687067
v 11.767383 59.613098 23.687092
v 6.432663 141.384537 6.432622
v -11.950413 29.617554 11.950496
v 7.134931 124.535843 14.362192
v -7.134809 124.535843 -14.362158
v -11.950413 29.617559 -11.950470
v 6.432663 141.384537 -6.432586
v -23.687010 59.613098 11.767327
v 23.687149 59.613098 -11.767301
v -6.432544 141.384537 -6.432586
v 11.950552 29.617559 -11.950470
v 14.362237 124.535843 -7.134852
v -14.362116 124.535843 7.134888
vt 0.204755 0.880859
vt 0.447589 0.880859
vt 0.447589 0.880859
vt 0.204755 0.880859
vt 0.447589 0.880859
vt 0.204755 0.880859
vt 0.447589 0.880859
vt 0.204755 0.880859
vt 0.447589 0.880859
vt 0.204755 0.880859
vt 0.194208 0.629912
vt 0.112919 0.629912
vt 0.113378 0.629912
vt 0.194208 0.629912
vt 0.052837 0.629912
vt 0.055259 0.629912
vt 0.066974 0.629912
vt 0.114752 0.629912
vt 0.194208 0.629912
vt 0.194208 0.629912
vt 0.112919 0.629912
vt 0.113378 0.629912
vt 0.194208 0.629912
vt 0.052837 0.629912
vt 0.055259 0.629912
vt 0.066974 0.629912
vt 0.114752 0.629912
vt 0.194208 0.629912
vt 0.194208 0.629912
vt 0.112919 0.629912
vt 0.113378 0.629912
vt 0.194208 0.629912
vt 0.052837 0.629912
vt 0.055259 0.629912
vt 0.066974 0.629912
vt 0.114752 0.629912
vt 0.194208 0.629912
vt 0.194208 0.629912
vt 0.112919 0.629912
vt 0.113378 0.629912
vt 0.194208 0.629912
vt 0.052837 0.629912
vt 0.055259 0.629912
vt 0.066974 0.629912
vt 0.114752 0.629912
vt 0.194208 0.629912
vt 0.302285 0.629912
vt 0.310623 0.629912
vt 0.310040 0.629912
vt 0.310623 0.629912
vt 0.288703 0.629912
vt 0.286281 0.629912
vt 0.274566 0.629912
vt 0.286281 0.629912
vt 0.288703 0.629912
vt 0.024563 0.629912
vt 0.028097 0.629912
vt 0.031500 0.629912
vt 0.028097 0.629912
vt 0.055259 0.629912
vt 0.243269 0.629912
vt 0.242811 0.629912
vt 0.286281 0.629912
vt 0.241437 0.629912
vt 0.274566 0.629912
vt 0.243269 0.629912
vt 0.242811 0.629912
vt 0.241437 0.629912
vt 0.288703 0.629912
vt 0.243269 0.629912
vt 0.242811 0.629912
vt 0.286282 0.629912
vt 0.241437 0.629912
vt 0.274566 0.629912
vt 0.288703 0.629912
vt 0.243269 0.629912
vt 0.242811 0.629912
vt 0.286281 0.629912
vt 0.241437 0.629912
vt 0.274566 0.629912
vt 0.242811 0.629912
vt 0.286282 0.629912
vt 0.194208 0.629912
vt 0.242811 0.629912
vt 0.194208 0.629912
vt 0.028097 0.629912
vt 0.031500 0.629912
vt 0.055259 0.629912
vt 0.310623 0.629912
vt 0.310040 0.629912
vt 0.286281 0.629912
vt 0.113378 0.629912
vt 0.113378 0.629912
vt 0.055259 0.629912
vt 0.310040 0.629912
vt 0.310623 0.629912
vt 0.031500 0.629912
vt 0.055259 0.629912
vt 0.028097 0.629912
vt 0.242811 0.629912
vt 0.194208 0.629912
vt 0.242811 0.629912
vt 0.286282 0.629912
vt 0.194208 0.629912
vt 0.031500 0.629912
vt 0.310040 0.629912
vt 0.113378 0.629912
vt 0.113378 0.629912
vn 0.0042 -0.5165 -0.8563
vn 0.0033 0.0929 -0.9957
vn 0.9664 0.0710 -0.2469
vn 0.7825 -0.5893 -0.2011
vn 0.6179 0.0691 0.7832
vn 0.5019 -0.5834 0.6386
vn -0.5724 0.0774 0.8163
vn -0.4756 -0.5458 0.6899
vn -0.9606 0.0726 -0.2682
vn -0.7755 -0.5928 -0.2170
vn -0.9894 0.1451 0.0000
vn -0.9723 0.2338 0.0000
vn -0.9421 0.2374 -0.2367
vn -0.9577 0.1613 -0.2385
vn -0.8554 0.5179 -0.0000
vn -0.8111 0.5107 -0.2850
vn -0.6551 0.3764 -0.6551
vn -0.6849 0.2488 -0.6849
vn -0.6957 0.1789 -0.6957
vn -0.0000 0.1451 -0.9894
vn -0.0000 0.2338 -0.9723
vn 0.2367 0.2374 -0.9421
vn 0.2385 0.1613 -0.9577
vn -0.0000 0.5179 -0.8554
vn 0.2850 0.5107 -0.8111
vn 0.6551 0.3764 -0.6551
vn 0.6849 0.2488 -0.6849
vn 0.6957 0.1789 -0.6957
vn 0.9894 0.1451 0.0000
vn 0.9723 0.2338 0.0000
vn 0.9421 0.2374 0.2367
vn 0.9577 0.1613 0.2385
vn 0.8554 0.5179 0.0000
vn 0.8111 0.5107 0.2850
vn 0.6551 0.3764 0.6551
vn 0.6849 0.2488 0.6849
vn 0.6957 0.1789 0.6957
vn 0.0000 0.1451 0.9894
vn 0.0000 0.2338 0.9723
vn -0.2367 0.2374 0.9421
vn -0.2385 0.1613 0.9577
vn 0.0000 0.5179 0.8554
vn -0.2850 0.5107 0.8111
vn -0.6551 0.3764 0.6551
vn -0.6849 0.2488 0.6849
vn -0.6957 0.1789 0.6957
vn -0.0000 -1.0000 -0.0000
vn 0.3112 -0.9503 -0.0000
vn 0.3091 -0.8994 0.3091
vn -0.0000 -0.9503 0.3112
vn 0.8779 -0.4789 -0.0000
vn 0.8405 -0.4676 0.2736
vn 0.6783 -0.2824 0.6783
vn 0.2736 -0.4676 0.8405
vn 0.0000 -0.4789 0.8779
vn -0.0000 1.0000 0.0000
vn -0.4169 0.9090 0.0000
vn -0.3762 0.8467 0.3762
vn -0.0000 0.9090 0.4169
vn -0.8111 0.5107 0.2850
vn 0.0000 -0.0288 0.9996
vn -0.2193 -0.0120 0.9756
vn -0.2736 -0.4676 0.8405
vn -0.7071 0.0083 0.7071
vn -0.6783 -0.2824 0.6783
vn 0.9996 -0.0288 -0.0000
vn 0.9756 -0.0120 0.2193
vn 0.7071 0.0083 0.7071
vn 0.0000 -0.4789 -0.8779
vn 0.0000 -0.0288 -0.9996
vn 0.2193 -0.0120 -0.9756
vn 0.2736 -0.4676 -0.8405
vn 0.7071 0.0083 -0.7071
vn 0.6783 -0.2824 -0.6783
vn -0.8779 -0.4789 -0.0000
vn -0.9996 -0.0288 0.0000
vn -0.9756 -0.0120 -0.2193
vn -0.8405 -0.4676 -0.2736
vn -0.7071 0.0083 -0.7071
vn -0.6783 -0.2824 -0.6783
vn -0.2193 -0.0120 -0.9756
vn -0.2736 -0.4676 -0.8405
vn -0.2385 0.1613 -0.9577
vn 0.2193 -0.0120 0.9756
vn 0.2385 0.1613 0.9577
vn 0.4169 0.9090 0.0000
vn 0.3762 0.8467 0.3762
vn 0.2850 0.5107 0.8111
vn -0.3112 -0.9503 -0.0000
vn -0.3091 -0.8994 0.3091
vn -0.8405 -0.4676 0.2736
vn 0.2367 0.2374 0.9421
vn -0.2367 0.2374 -0.9421
vn -0.2850 0.5107 -0.8111
vn -0.3091 -0.8994 -0.3091
vn -0.0000 -0.9503 -0.3112
vn 0.3762 0.8467 -0.3762
vn 0.8111 0.5107 -0.2850
vn -0.0000 0.9090 -0.4169
vn -0.9756 -0.0120 0.2193
vn -0.9577 0.1613 0.2385
vn 0.9756 -0.0120 -0.2193
vn 0.8405 -0.4676 -0.2736
vn 0.9577 0.1613 -0.2385
vn -0.3762 0.8467 -0.3762
vn 0.3091 -0.8994 -0.3091
vn 0.9421 0.2374 -0.2367
vn -0.9421 0.2374 0.2367
usemtl Material.005
s 1
f 1/1/1 2/2/2 4/3/3 3/4/4
f 3/4/4 4/3/3 6/5/5 5/6/6
f 5/6/6 6/5/5 8/7/7 7/8/8
f 7/8/8 8/7/7 10/9/9 9/10/10
f 9/10/10 10/9/9 2/2/2 1/1/1
f 34/11/11 84/12/12 85/13/13 56/14/14
f 84/12/12 30/15/15 39/16/16 85/13/13
f 85/13/13 39/16/16 14/17/17 50/18/18
f 56/14/14 85/13/13 50/18/18 20/19/19
f 28/20/20 68/21/21 86/22/22 55/23/23
f 68/21/21 24/24/24 42/25/25 86/22/22
f 86/22/22 42/25/25 18/26/26 51/27/27
f 55/23/23 86/22/22 51/27/27 21/28/28
f 33/29/29 83/30/30 87/31/31 54/32/32
f 83/30/30 32/33/33 45/34/34 87/31/31
f 87/31/31 45/34/34 16/35/35 52/36/36
f 54/32/32 87/31/31 52/36/36 22/37/37
f 27/38/38 67/39/39 88/40/40 53/41/41
f 67/39/39 26/42/42 48/43/43 88/40/40
f 88/40/40 48/43/43 12/44/44 38/45/45
f 53/41/41 88/40/40 38/45/45 19/46/46
f 36/47/47 82/48/48 89/49/49 66/50/50
f 82/48/48 31/51/51 71/52/52 89/49/49
f 89/49/49 71/52/52 15/53/53 47/54/54
f 66/50/50 89/49/49 47/54/54 25/55/55
f 35/56/56 81/57/57 90/58/58 65/59/59
f 81/57/57 30/15/15 70/60/60 90/58/58
f 90/58/58 70/60/60 12/44/44 48/43/43
f 65/59/59 90/58/58 48/43/43 26/42/42
f 25/55/55 64/61/61 91/62/62 59/63/63
f 64/61/61 27/38/38 53/41/41 91/62/62
f 91/62/62 53/41/41 19/46/46 49/64/64
f 59/63/63 91/62/62 49/64/64 11/65/65
f 31/51/51 80/66/66 92/67/67 71/52/52
f 80/66/66 33/29/29 54/32/32 92/67/67
f 92/67/67 54/32/32 22/37/37 46/68/68
f 71/52/52 92/67/67 46/68/68 15/53/53
f 23/69/69 63/70/70 93/71/71 57/72/72
f 63/70/70 28/20/20 55/23/23 93/71/71
f 93/71/71 55/23/23 21/28/28 43/73/73
f 57/72/72 93/71/71 43/73/73 17/74/74
f 29/75/75 79/76/76 94/77/77 69/78/78
f 79/76/76 34/11/11 56/14/14 94/77/77
f 94/77/77 56/14/14 20/19/19 40/79/79
f 69/78/78 94/77/77 40/79/79 13/80/80
f 13/80/80 40/79/79 95/81/81 41/82/82
f 40/79/79 20/19/19 62/83/83 95/81/81
f 95/81/81 62/83/83 28/20/20 63/70/70
f 41/82/82 95/81/81 63/70/70 23/69/69
f 15/53/53 46/68/68 96/84/84 47/54/54
f 46/68/68 22/37/37 61/85/85 96/84/84
f 96/84/84 61/85/85 27/38/38 64/61/61
f 47/54/54 96/84/84 64/61/61 25/55/55
f 32/33/33 78/86/86 97/87/87 45/34/34
f 78/86/86 35/56/56 65/59/59 97/87/87
f 97/87/87 65/59/59 26/42/42 60/88/88
f 45/34/34 97/87/87 60/88/88 16/35/35
f 29/75/75 77/89/89 98/90/90 37/91/91
f 77/89/89 36/47/47 66/50/50 98/90/90
f 98/90/90 66/50/50 25/55/55 59/63/63
f 37/91/91 98/90/90 59/63/63 11/65/65
f 22/37/37 52/36/36 99/92/92 61/85/85
f 52/36/36 16/35/35 60/88/88 99/92/92
f 99/92/92 60/88/88 26/42/42 67/39/39
f 61/85/85 99/92/92 67/39/39 27/38/38
f 20/19/19 50/18/18 100/93/93 62/83/83
f 50/18/18 14/17/17 58/94/94 100/93/93
f 100/93/93 58/94/94 24/24/24 68/21/21
f 62/83/83 100/93/93 68/21/21 28/20/20
f 13/80/80 41/82/82 101/95/95 69/78/78
f 41/82/82 23/69/69 76/96/96 101/95/95
f 101/95/95 76/96/96 36/47/47 77/89/89
f 69/78/78 101/95/95 77/89/89 29/75/75
f 18/26/26 42/25/25 102/97/97 72/98/98
f 42/25/25 24/24/24 75/99/99 102/97/97
f 102/97/97 75/99/99 35/56/56 78/86/86
f 72/98/98 102/97/97 78/86/86 32/33/33
f 11/65/65 49/64/64 103/100/100 37/91/91
f 49/64/64 19/46/46 74/101/101 103/100/100
f 103/100/100 74/101/101 34/11/11 79/76/76
f 37/91/91 103/100/100 79/76/76 29/75/75
f 17/74/74 43/73/73 104/102/102 44/103/103
f 43/73/73 21/28/28 73/104/104 104/102/102
f 104/102/102 73/104/104 33/29/29 80/66/66
f 44/103/103 104/102/102 80/66/66 31/51/51
f 24/24/24 58/94/94 105/105/105 75/99/99
f 58/94/94 14/17/17 39/16/16 105/105/105
f 105/105/105 39/16/16 30/15/15 81/57/57
f 75/99/99 105/105/105 81/57/57 35/56/56
f 23/69/69 57/72/72 106/106/106 76/96/96
f 57/72/72 17/74/74 44/103/103 106/106/106
f 106/106/106 44/103/103 31/51/51 82/48/48
f 76/96/96 106/106/106 82/48/48 36/47/47
f 21/28/28 51/27/27 107/107/107 73/104/104
f 51/27/27 18/26/26 72/98/98 107/107/107
f 107/107/107 72/98/98 32/33/33 83/30/30
f 73/104/104 107/107/107 83/30/30 33/29/29
f 19/46/46 38/45/45 108/108/108 74/101/101
f 38/45/45 12/44/44 70/60/60 108/108/108
f 108/108/108 70/60/60 30/15/15 84/12/12
f 74/101/101 108/108/108 84/12/12 34/11/11
f 1/1/1 3/4/4 5/6/6 7/8/8 9/10/10
